SplineFontDB: 3.2
FontName: Fitenkajti
FullName: Fitenkajti
FamilyName: Fitenkajti
Weight: Regular
Copyright: Kinbvise, 2022, Dcijusi
FontLog: "1353.1 (20220624): +i9WPk1H6AAoA-1353.2 (20220628): +TxhTFltXV4tbV5HNAAoA-1370.0 (20220628): +iGVcD1GZj4WX8wAA"
Version: 1370.0
ItalicAngle: 0
UnderlinePosition: -200
UnderlineWidth: 50
Ascent: 800
Descent: 200
InvalidEm: 0
sfntRevision: 0x00030000
LayerCount: 2
Layer: 0 0 "Back" 1
Layer: 1 0 "Fore" 0
XUID: [1021 662 207978590 315]
StyleMap: 0x0000
FSType: 0
OS2Version: 4
OS2_WeightWidthSlopeOnly: 0
OS2_UseTypoMetrics: 1
CreationTime: 1654248262
ModificationTime: 1656431966
PfmFamily: 65
TTFWeight: 400
TTFWidth: 5
LineGap: 90
VLineGap: 0
Panose: 2 0 5 3 0 0 0 0 0 0
OS2TypoAscent: 800
OS2TypoAOffset: 0
OS2TypoDescent: -200
OS2TypoDOffset: 0
OS2TypoLinegap: 90
OS2WinAscent: 773
OS2WinAOffset: 0
OS2WinDescent: 172
OS2WinDOffset: 0
HheadAscent: 773
HheadAOffset: 0
HheadDescent: -172
HheadDOffset: 0
OS2SubXSize: 650
OS2SubYSize: 699
OS2SubXOff: 0
OS2SubYOff: 140
OS2SupXSize: 650
OS2SupYSize: 699
OS2SupXOff: 0
OS2SupYOff: 479
OS2StrikeYSize: 49
OS2StrikeYPos: 258
OS2Vendor: 'PfEd'
OS2CodePages: 00000001.00000000
OS2UnicodeRanges: 00000000.02000000.04000000.00000000
MarkAttachClasses: 1
DEI: 91125
LangName: 1033 "" "" "" "" "" "Version 1370.0"
Encoding: UnicodeFull
Compacted: 1
UnicodeInterp: none
NameList: Fitenka
DisplaySize: -72
AntiAlias: 1
FitToEm: 0
WinInfo: 50 25 9
BeginPrivate: 5
BlueShift 1 0
StdHW 4 [41]
StdVW 4 [40]
StemSnapH 4 [41]
StemSnapV 4 [40]
EndPrivate
TeXData: 1 0 0 346030 173015 115343 0 1048576 115343 783286 444596 497025 792723 393216 433062 380633 303038 157286 324010 404750 52429 2506097 1059062 262144
BeginChars: 1114113 1370

StartChar: .notdef
Encoding: 1114112 -1 0
Width: 500
GlyphClass: 1
Flags: HMW
HStem: 0 50<200 300 300 300> 483 50<200 300 200 350>
VStem: 150 50<50 483 483 483> 300 50<50 50 50 483>
LayerCount: 2
Fore
SplineSet
404 0 m 1
 96 0 l 1
 96 533 l 1
 404 533 l 1
 404 0 l 1
350 50 m 1
 350 483 l 1
 150 483 l 1
 150 50 l 1
 350 50 l 1
EndSplineSet
Validated: 1
EndChar

StartChar: hli
Encoding: 983277 983277 1
Width: 1000
GlyphClass: 1
Flags: HMW
LayerCount: 2
Fore
SplineSet
165 -57 m 1
 172 -52 l 1
 170 -50 l 1
 165 -57 l 1
180 -37 m 1
 189 -18 l 1
 187 -16 l 1
 169 -26 l 1
 169 -27 l 1
 179 -37 l 1
 180 -37 l 1
173 -10 m 0
 177 -10 180 -10 182 -10 c 0
 191 -10 229 19 290 94 c 0
 305 112 357 178 358 179 c 0
 398 229 433 265 464 290 c 0
 478 301 486 308 492 314 c 0
 502 323 514 334 532 334 c 0
 547 334 555 324 555 312 c 0
 555 295 544 282 534 272 c 0
 519 256 495 233 486 225 c 0
 448 191 445 189 382 107 c 0
 301 1 266 -42 210 -75 c 0
 203 -79 195 -83 187 -83 c 0
 178 -83 170 -78 158 -72 c 0
 151 -68 140 -60 140 -44 c 0
 140 -25 154 -10 173 -10 c 0
597 89 m 0
 573 89 556 109 556 135 c 0
 556 146 559 156 565 171 c 0
 592 242 600 296 624 346 c 0
 631 361 637 370 645 380 c 1
 530 368 386 338 324 335 c 0
 306 334 286 334 279 334 c 0
 266 334 209 335 193 336 c 0
 159 339 92 355 92 393 c 0
 92 399 95 415 123 415 c 0
 124 415 124 415 125 415 c 0
 135 415 145 415 168 408 c 0
 191 401 228 395 266 395 c 0
 266 395 278 395 279 395 c 0
 288 395 297 395 308 395 c 0
 360 395 406 405 494 419 c 1
 492 426 490 434 489 441 c 1
 494 452 498 458 501 477 c 2
 501 477 l 2
 510 529 523 566 534 625 c 0
 535 630 536 635 537 639 c 1
 490 633 446 630 399 630 c 0
 360 630 316 634 278 648 c 0
 260 654 237 665 237 695 c 0
 237 717 250 727 264 727 c 0
 271 727 276 725 284 721 c 0
 301 713 342 693 415 693 c 0
 422.142857143 693 428.87755102 692.918367347 435.997084548 692.918367347 c 0
 453.795918367 692.918367347 474 693.428571429 509 697 c 0
 529 699 574 703 596 705 c 0
 631 708 633 708 654 714 c 0
 659 715 670 717 674 719 c 0
 680 722 683 731 703 732 c 0
 704 732 703 732 704 732 c 0
 722 732 745 727 745 700 c 0
 745 692 744 679 732 670 c 0
 724 664 716 663 698 660 c 0
 698 660 656 652 651 651 c 0
 633 648 618 646 602 645 c 1
 603 640 604 637 604 633 c 0
 604 622 600 608 585 551 c 0
 576 516 570 493 567 468 c 0
 565 451 562 438 558 428 c 1
 568 429 578 432 589 433 c 0
 663 443 670 444 802 447 c 0
 809 447 815 447 819 447 c 0
 832 447 844 446 852 439 c 2
 877 418 l 1
 863 418 l 1
 864 415 866 409 866 404 c 0
 866 382 832 376 812 376 c 0
 788 376 779 385 724 385 c 0
 709 385 692 384 675 383 c 1
 676 382 678 381 679 380 c 0
 689 371 692 359 692 347 c 0
 692 327 665 282 641 187 c 0
 639 177 637 170 635 164 c 1
 658 168 671 173 694 176 c 0
 709 178 726 178 743 179 c 1
 758 185 777 191 793 191 c 0
 804 191 832 190 846 187 c 0
 849 187 851 188 854 188 c 0
 873 188 886 178 892 166 c 0
 898 154 902 151 904 145 c 0
 905 141 905 141 905 141 c 0
 908 136 911 128 911 120 c 0
 911 102 903 88 862 22 c 0
 840 -13 805 -69 790 -92 c 0
 766 -129 754 -142 737 -142 c 0
 715 -142 710 -122 710 -110 c 0
 710 -99 714 -90 716 -87 c 0
 815 74 815 74 838 116 c 1
 834 119 832 119 815 121 c 0
 809 122 801 122 793 123 c 0
 761 114 754 113 722 110 c 0
 700 108 696 107 675 103 c 0
 674 103 604 89 597 89 c 0
EndSplineSet
Validated: 524289
EndChar

StartChar: tf`j
Encoding: 983278 983278 2
Width: 1000
GlyphClass: 1
Flags: HMW
LayerCount: 2
Fore
SplineSet
313 354 m 0
 313 368 325 374 334 374 c 0
 363 374 388 334 388 285 c 0
 388 238 361 5 354 -32 c 1
 366 -23 380 -12 402 5 c 0
 425 23 467 55 481 66 c 0
 538 110 565 135 593 168 c 0
 607 184 638 220 638 221 c 0
 651 236 660 245 672 245 c 0
 681 245 695 238 695 219 c 0
 695 207 689 197 675 178 c 0
 654 149 619 109 585 77 c 0
 565 58 565 57 446 -39 c 0
 382 -91 366 -100 348 -109 c 0
 345 -110 342 -112 340 -114 c 0
 335 -117 330 -118 323 -118 c 0
 321 -118 284 -118 284 -79 c 0
 284 -48 291 -32 307 107 c 0
 321 228 l 2
 327 285 327 288 327 289 c 0
 327 306 323 322 320 330 c 0
 319 332 319 335 318 337 c 2
 313 337 l 1
 313 350 313 350 313 350 c 0
 313 351 313 352 313 354 c 0
661 489 m 0
 677 489 689 488 693 488 c 0
 707 488 720 499 770 506 c 0
 771 506 831 516 859 525 c 0
 866 527 872 530 881 530 c 4
 915 506 l 5
 916 501 917 498 917 494 c 0
 917 457 898 383 891 315 c 0
 889 299 888 284 882 260 c 0
 878 244 878 234 871 207 c 0
 867 193 867 188 864 169 c 0
 861 150 860 146 856 129 c 0
 851 110 852 110 844 65 c 0
 840 44 830 -15 785 -15 c 0
 764 -15 744 -6 724 3 c 0
 703 12 696 15 687 19 c 0
 680 25 670 35 670 49 c 0
 670 67 687 78 704 78 c 0
 713 78 721 74 731 69 c 0
 761 55 769 52 776 50 c 1
 786 78 781 83 792 136 c 0
 794 148 797 160 800 186 c 0
 801 193 805 214 807 222 c 0
 813 243 815 253 817 262 c 0
 818 267 818 269 819 274 c 0
 821 283 824 295 829 334 c 0
 834 378 849 442 851 457 c 1
 831 454 831 455 819 451 c 0
 807 447 789 444 771 444 c 0
 768 444 764 444 761 444 c 0
 758 443 758 444 734 436 c 0
 721 432 711 429 698 429 c 0
 682 429 660 433 646 437 c 0
 645 437 644 438 643 438 c 1
 648 435 654 432 660 428 c 0
 700 402 700 401 712 394 c 0
 716 388 722 377 722 363 c 0
 722 335 695 335 692 335 c 0
 677 335 684 338 656 345 c 0
 651 346 638 349 630 365 c 0
 629 368 629 369 625 373 c 0
 619 379 604 391 587 400 c 0
 569 410 550 418 532 427 c 0
 524 432 525 432 505 444 c 0
 504 445 501 447 500 447 c 0
 498 447 490 445 477 445 c 0
 449 445 423 460 417 460 c 0
 409 460 380 434 326 395 c 0
 301 377 282 366 253 351 c 0
 226 337 187 318 166 309 c 0
 135 295 120 292 110 292 c 0
 84 292 84 311 84 313 c 0
 84 331 106 344 129 357 c 0
 139 362 140 362 207 396 c 0
 244 415 264 428 304 458 c 0
 364 503 440 568 513 636 c 2
 554 677 l 2
 560 684 574 700 586 731 c 0
 587 732 587 732 588 733 c 0
 588 734 588 734 588 735 c 0
 588 747 598 755 610 755 c 0
 628 755 639 736 639 717 c 0
 639 691 617 659 608 646 c 0
 595 628 577 609 545 579 c 0
 523 558 492 529 458 500 c 1
 463 499 467 498 471 498 c 0
 483 498 494 501 503 501 c 0
 508 501 514 500 530 492 c 0
 561 476 590 468 626 448 c 1
 622 452 620 457 620 464 c 0
 620 476 628 486 638 486 c 0
 640 486 641 485 642 485 c 0
 649 488 651 489 659 489 c 0
 660 489 660 489 661 489 c 0
EndSplineSet
Validated: 513
EndChar

StartChar: hla
Encoding: 983279 983279 3
Width: 1000
GlyphClass: 1
Flags: HMW
LayerCount: 2
Fore
SplineSet
608 -27 m 0
 626 -27 632 -25 652 -25 c 0
 690 -25 717 -28 718 -28 c 0
 736 -28 744 -28 783 -34 c 0
 788 -35 844 -44 853 -53 c 0
 854 -54 857 -57 857 -62 c 0
 857 -63 857 -64 857 -65 c 0
 862 -73 863 -76 863 -81 c 0
 863 -91 853 -108 826 -108 c 0
 810 -108 797 -104 745 -98 c 0
 727 -96 680 -92 642 -92 c 0
 625 -92 616 -92 602 -92 c 0
 600 -92 585 -92 585 -92 c 0
 580 -92 575 -92 561 -93 c 0
 541 -95 512 -97 483 -97 c 0
 482 -97 l 0
 474 -97 464 -98 430 -98 c 0
 424 -98 414 -98 404 -98 c 0
 347 -98 333 -101 295 -101 c 0
 278 -101 224 -101 192 -67 c 0
 185 -60 183 -55 183 -50 c 0
 183 -46 185 -35 203 -35 c 0
 224 -35 246 -43 270 -43 c 0
 288 -43 322 -38 352 -36 c 0
 354 -36 563 -26 582 -26 c 0
 585 -26 608 -27 608 -27 c 0
769 244 m 1
 761 245 742 248 708 248 c 0
 686 248 673 248 645 241 c 0
 590 226 501 215 441 198 c 0
 434 196 428 195 422 195 c 0
 418 195 401 195 383 201 c 0
 362 208 349 224 349 244 c 0
 349 260 357 274 371 297 c 0
 380 311 391 330 400 341 c 0
 411 355 422 365 433 369 c 1
 395 363 374 359 304 345 c 0
 272 339 261 338 251 338 c 0
 235 338 213 342 182 349 c 0
 163 353 152 357 144 366 c 0
 141 370 137 376 137 382 c 0
 137 395 150 399 165 403 c 0
 170 404 174 405 180 405 c 0
 192 405 226 400 245 400 c 0
 257 400 259 401 325 415 c 0
 417 435 438 437 459 439 c 0
 465 440 471 440 475 441 c 1
 475 443 474 444 474 446 c 0
 474 463 490 474 490 474 c 0
 494 477 498 479 502 481 c 0
 505 482 506 483 507 483 c 0
 508 484 526 527 538 596 c 0
 541 613 543 625 545 632 c 1
 499 629 473 619 442 619 c 0
 441 619 362 620 362 652 c 0
 362 666 377 672 383 674 c 0
 397 679 387 672 462 685 c 0
 488 690 541 697 628 697 c 0
 696 697 731 695 744 692 c 0
 753 690 756 686 762 681 c 0
 767 676 771 670 771 662 c 0
 771 652 766 646 764 643 c 0
 760 635 757 630 743 630 c 0
 731 630 733 632 678 633 c 0
 636 633 l 2
 624 633 615 634 608 634 c 0
 602 634 597 634 593 634 c 0
 593 632 l 0
 593 603 578 512 565 466 c 1
 586 470 602 474 636 481 c 0
 658 486 669 488 686 488 c 0
 687 488 698 488 698 488 c 0
 731 488 761 498 789 498 c 0
 804 498 807 497 825 489 c 1
 841 514 l 1
 841 470 l 2
 841 459 838 429 803 429 c 0
 802 429 800 429 799 429 c 0
 783 423 747 419 745 419 c 0
 733 419 734 422 727 422 c 0
 722 422 714 421 706 421 c 0
 701 421 685 422 685 422 c 0
 668 422 641 410 572 400 c 1
 521 384 498 380 450 372 c 1
 456 371 468 368 468 353 c 0
 468 341 462 328 446 303 c 0
 446 303 424 271 417 258 c 1
 428 259 438 263 475 271 c 0
 497 276 520 280 564 289 c 0
 602 296 622 302 632 304 c 0
 652 309 669 313 707 313 c 0
 731 313 810 311 833 285 c 0
 835 283 843 274 843 255 c 0
 843 242 838 231 811 194 c 0
 796 172 705 45 665 6 c 0
 654 -5 643 -14 630 -14 c 0
 623 -14 614 -10 614 2 c 0
 614 28 642 70 769 244 c 1
EndSplineSet
Validated: 1
EndChar

StartChar: hl
Encoding: 983280 983280 4
Width: 1000
GlyphClass: 1
Flags: HMW
LayerCount: 2
Fore
SplineSet
260 109 m 1
 264 93 l 1
 266 92 l 1
 264 97 262 104 260 109 c 1
244 700 m 0
 244 708 250 720 267 720 c 0
 287 720 312 706 362 704 c 0
 372 704 384 703 397 703 c 0
 468 703 608 719 675 719 c 0
 694 719 735 718 736 718 c 0
 738 718 740 718 741 718 c 0
 749 718 755 718 776 711 c 1
 779 700 782 693 782 683 c 0
 782 651.885714286 765.109387755 650.996734694 753.959043732 650.996734694 c 0
 753.283265306 650.996734694 752.628571429 651 752 651 c 0
 751 651 712 652 685 652 c 0
 649 652 595 650 567 648 c 1
 570 630 572 575 572 531 c 0
 572 506 571 473 570 457 c 1
 657 454 741 442 800 430 c 0
 828 424 843 421 843 407 c 0
 846 402 848 397 848 391 c 0
 848 387 847 377 835 369 c 1
 833 359 l 1
 825 359 l 1
 825 357 l 1
 816 359 l 1
 804 359 l 1
 804 361 l 1
 726 377 648 387 569 390 c 1
 502 386 471 382 420 376 c 1
 437 372 456 355 456 327 c 0
 456 318 454 310 444 288 c 0
 427 252 397 204 363 159 c 0
 355 149 346 137 338 127 c 1
 344 128 350 130 370 136 c 0
 417 149 538 181 720 208 c 0
 762 214 774 215 786 215 c 0
 791 215 800 215 803 214 c 0
 826 207 854 189 854 149 c 0
 854 143 852 133 851 130 c 0
 838 98 822 67 793 24 c 0
 777 0 750 -37 732 -62 c 0
 712 -89 681 -129 644 -129 c 0
 623 -129 623 -111 623 -110 c 0
 623 -94 639 -77 651 -64 c 0
 672 -42 700 0 742 64 c 0
 755 84 775 115 786 143 c 0
 787 144 787 146 787 147 c 1
 785 147 782 148 780 148 c 0
 751 148 588 120 491 99 c 0
 454 91 436 87 385 72 c 0
 380 71 316 52 277 52 c 0
 273 52 270 52 266 53 c 2
 263 46 l 1
 243 67 l 1
 238 81 237 84 237 90 c 0
 237 93 237 101 246 112 c 0
 258 126 253 125 287 166 c 0
 345 235 394 329 394 331 c 0
 394 337 391 342 391 343 c 0
 387 347 383 351 383 359 c 0
 383 366 387 370 392 373 c 1
 383 372 374 370 363 369 c 0
 314 362 277 360 252 360 c 0
 216 360 192 365 173 378 c 0
 168 382 147 396 147 412 c 0
 147 415 149 429 170 429 c 0
 177 429 187 428 205 424 c 0
 211 423 223 422 235 422 c 0
 243 422 283 424 374 437 c 0
 438 446 443 447 500 452 c 0
 501 452 503 452 504 452 c 0
 505 457 507 481 507 511 c 0
 507 525 507 539 507 553 c 0
 507 554 507 612 509 643 c 1
 477 640 455 638 415 638 c 0
 376 638 277 639 249 685 c 0
 246 690 244 694 244 700 c 0
EndSplineSet
Validated: 524289
EndChar

StartChar: hlo
Encoding: 983281 983281 5
Width: 1000
GlyphClass: 1
Flags: HMW
LayerCount: 2
Fore
SplineSet
763 318 m 0
 763 337 777 343 787 343 c 0
 788 343 l 0
 807 343 826 327 826 304 c 0
 826 298 824 292 822 286 c 0
 822 281 799 197 706 81 c 0
 688 58 688 57 619 -24 c 0
 591 -57 570 -84 557 -100 c 0
 539 -122 526 -139 509 -139 c 0
 496 -139 483 -127 483 -113 c 0
 483 -104 487 -95 494 -83 c 0
 514 -50 550 -6 600 54 c 0
 617 75 635 96 648 113 c 0
 679 152 737 232 763 308 c 0
 763 309 763 311 764 312 c 0
 763 316 763 316 763 318 c 0
353 372 m 1
 356 375 367 383 377 383 c 0
 382 383 404 381 404 343 c 0
 404 342 404 303 385 275 c 0
 372 256 381 275 346 223 c 0
 343 218 318 184 318 184 c 1
 343 191 376 204 426 214 c 0
 442 217 470 222 494 222 c 0
 513 222 528 219 542 212 c 0
 561 203 572 187 572 168 c 0
 572 155 567 120 523 72 c 0
 499 46 476 23 406 -53 c 0
 364 -99 344 -120 317 -134 c 0
 311 -137 288 -149 269 -149 c 0
 249 -149 245 -136 245 -130 c 0
 245 -114 266 -97 286 -83 c 0
 295 -77 311 -63 347 -20 c 0
 375 13 426 68 449 91 c 0
 489 130 499 145 503 156 c 1
 500 156 496 157 491 157 c 0
 460 157 429 149 392 138 c 0
 328 118 286 110 258 110 c 0
 249 110 242 112 237 115 c 2
 187 139 l 1
 224 139 l 1
 223 141 221 146 221 151 c 0
 221 160 226 167 237 181 c 0
 259 208 247 195 279 239 c 0
 289 253 301 271 308 281 c 0
 318 297 326 305 333 312 c 1
 339 328 340 331 349 378 c 1
 353 372 l 1
625 509 m 0
 627 509 635 509 641 509 c 0
 659 509 678 509 708 506 c 0
 742 503 787 498 806 495 c 0
 833 491 860 487 860 457 c 0
 860 438 846 419 825 419 c 0
 811 419 812 424 795 427 c 0
 770 432 672 443 671 443 c 0
 670 443 l 0
 557 443 502 434 452 422 c 0
 427 416 396 408 260 384 c 0
 230 379 226 378 221 378 c 0
 177 378 161 381 150 389 c 0
 146 392 141 396 141 404 c 0
 141 415 153 424 157 427 c 0
 166 434 177 436 190 438 c 0
 252 447 283 455 389 474 c 0
 415 482 441 488 467 493 c 1
 466 512 466 513 466 519 c 0
 466 560 475 580 475 614 c 0
 475 616 475 621 475 627 c 1
 386 616 358 614 327 614 c 0
 306 614 258 614 247 641 c 0
 246 644 245 647 245 650 c 0
 245 657 249 668 265 668 c 0
 266 668 266 668 267 668 c 0
 376 668 445 692 612 710 c 0
 634 712 646 713 655 713 c 0
 667 713 676 712 683 702 c 0
 684 701 684 699 685 698 c 0
 689 694 691 689 691 683 c 0
 691 676 689 671 684 665 c 0
 684 665 684 664 684 663 c 0
 684 662 684 662 685 648 c 1
 670 648 670 648 668 648 c 0
 655 648 651 646 638 646 c 0
 637 646 631 646 631 646 c 0
 627 646 619 645 595 642 c 0
 586 641 560 637 531 634 c 1
 535 617 536 603 536 589 c 0
 536 574 534 560 533 549 c 0
 531 531 531 517 529 507 c 0
 529 505 528 504 528 503 c 1
 560 507 592 509 625 509 c 0
498 499 m 1
 504 500 509 500 515 501 c 1
 513 509 l 1
 509 509 l 1
 498 499 l 1
EndSplineSet
Validated: 1
EndChar

StartChar: h`hr`r
Encoding: 983282 983282 6
Width: 1000
GlyphClass: 1
Flags: HMW
LayerCount: 2
Fore
SplineSet
343 365 m 0
 348 365 353 365 359 365 c 0
 383 365 402 369 435 376 c 0
 451 379 455 380 465 382 c 0
 497 389 545 399 571 405 c 0
 606 413 641 421 666 421 c 0
 685 421 693 416 699 402 c 0
 703 392 703 393 703 388 c 0
 703 385 703 382 702 380 c 1
 690 359 l 1
 667 347 646 333 616 304 c 0
 608 297 597 287 583 276 c 1
 621 279 621 279 633 279 c 0
 663 279 699 279 722 252 c 0
 733 240 736 226 736 212 c 0
 736 194 730 168 699 128 c 0
 670 91 622 43 563 -1 c 0
 526 -28 484 -56 450 -75 c 0
 425 -89 409 -96 387 -104 c 0
 381 -106 318 -127 296 -127 c 0
 278 -127 264 -115 264 -101 c 0
 264 -81 287 -73 297 -69 c 0
 306 -66 349 -52 355 -50 c 0
 387 -39 412 -26 441 -8 c 0
 493 24 546 64 591 106 c 0
 619 133 642 157 656 175 c 0
 669 191 675 201 675 213 c 0
 675 214 675 213 675 214 c 0
 669 217 663 219 634 219 c 0
 582 219 567 215 515 215 c 0
 491 215 481 216 473 222 c 0
 470 225 462 232 462 247 c 0
 462 269 478 280 496 292 c 0
 512 303 533 318 554 336 c 1
 553 336 451 317 436 314 c 0
 412 308 400 307 389 307 c 0
 325 307 313 337 313 347 c 0
 313 355 320 360 324 362 c 0
 330 364 336 365 341 365 c 0
 342 365 342 365 343 365 c 0
106 514 m 0
 106 526 114 536 126 536 c 0
 142 536 151 527 202 527 c 0
 252 527 260 535 285 535 c 0
 296 535 306 534 316 526 c 0
 319 503 l 1
 318 499 317 495 317 491 c 0
 317 490 317 488 317 486 c 0
 317 477 307 474 299 471 c 0
 286 465 276 463 267 463 c 0
 261 463 257 464 251 464 c 0
 250 464 249 464 247 464 c 1
 249 461 250 456 251 452 c 1
 254 453 257 454 260 454 c 0
 270 454 273 450 284 450 c 0
 289 450 310 452 359 464 c 0
 388 471 392 472 472 488 c 1
 476 530 484 572 505 634 c 1
 479 631 453 629 435 629 c 0
 359 629 321 666 321 691 c 0
 321 704 331 711 339 711 c 0
 342 711 344 710 346 710 c 0
 347 710 347 710 349 710 c 0
 354 710 360 709 370 704 c 0
 383 698 405 692 428 692 c 0
 430 692 507 694 589 719 c 0
 609 725 619 728 631 730 c 2
 661 730 l 1
 660 717 661 716 661 716 c 0
 661 714 662 713 662 713 c 0
 666 707 668 700 668 695 c 0
 668 692 667 688 665 685 c 0
 664 683 664 683 663 681 c 0
 656 668 651 667 633 663 c 0
 625 661 625 661 570 646 c 1
 569 630 565 615 555 576 c 0
 547 546 542 524 539 494 c 1
 582 497 593 503 610 503 c 0
 620 503 628 502 638 501 c 0
 645 502 659 503 659 503 c 0
 676 503 718 496 737 490 c 0
 767 459 l 1
 768 457 768 454 768 452 c 0
 768 446 766 442 766 442 c 0
 766 442 l 0
 766 430 751 423 736 423 c 0
 725 423 725 426 706 429 c 0
 679 433 667 435 648 435 c 0
 648 435 613 437 609 437 c 0
 609 437 l 0
 601 437 574 430 520 426 c 1
 510 416 498 410 486 410 c 0
 473 410 466 417 465 417 c 0
 465 417 463 417 462 417 c 0
 454 417 442 415 391 406 c 0
 378 402 342 390 307 390 c 0
 281 390 263 396 250 410 c 1
 243 363 225 278 224 197 c 1
 235 200 246 202 257 202 c 0
 260 202 263 201 266 201 c 0
 268 202 270 204 272 205 c 0
 298 200 318 194 323 173 c 0
 325 166 324 166 324 163 c 0
 324 153 320 147 317 142 c 0
 315 141 314 141 312 140 c 0
 310 137 304 130 294 130 c 0
 284 130 277 136 259 136 c 0
 259 136 l 0
 253 136 253 136 214 123 c 0
 176 111 148 100 147 100 c 0
 134 96 121 93 109 93 c 0
 96 93 76 96 67 118 c 0
 65 123 63 127 63 133 c 0
 63 141 69 152 85 152 c 1
 85 156 l 1
 105 154 l 0
 115 154 136 163 145 168 c 0
 151 171 156 174 160 175 c 0
 161 257 170 337 184 399 c 0
 184 399 195 447 195 448 c 0
 196 450 197 457 201 464 c 1
 190 465 178 466 166 468 c 0
 146 471 130 478 119 488 c 0
 111 496 106 504 106 514 c 0
772 548 m 0
 802 548 862 576 896 576 c 0
 920 576 936 564 936 547 c 0
 936 538 933 529 927 517 c 0
 904 472 867 426 867 415 c 0
 867 414 l 0
 870 411 887 403 901 386 c 0
 914 370 915 357 915 346 c 0
 915 303 906 262 882 211 c 0
 847 136 809 86 784 39 c 0
 763 0 743 -24 720 -41 c 0
 719 -41 685 -66 662 -66 c 0
 653 -66 642 -59 642 -47 c 0
 642 -35 650 -27 684 6 c 0
 709 31 709 31 728 66 c 0
 767 139 811 202 836 264 c 0
 836 265 855 313 855 342 c 0
 855 346 855 346 852 349 c 0
 848 353 845 355 832 364 c 0
 814 377 804 393 804 412 c 0
 804 435 816 457 829 477 c 2
 829 477 838 490 847 504 c 1
 801 491 789 489 779 489 c 0
 744 489 706 521 705 522 c 0
 703 523 703 524 701 525 c 0
 697 528 694 533 694 539 c 0
 694 550 703 562 719 562 c 0
 739 562 758 548 772 548 c 0
EndSplineSet
Validated: 517
EndChar

StartChar: hpt
Encoding: 983283 983283 7
Width: 1000
GlyphClass: 1
Flags: HMW
LayerCount: 2
Fore
SplineSet
686 317 m 1
 670 316 l 1
 670 314 l 1
 676 306 l 1
 686 317 l 1
205 28 m 1
 234 36 279 49 314 49 c 0
 318 49 320 49 323 49 c 1
 324 71 324 92 324 114 c 0
 324 188 323 209 316 286 c 0
 316 291 315 295 315 299 c 0
 315 306 316 311 318 315 c 0
 323 325 322 330 328 336 c 0
 331 339 336 341 340 341 c 0
 373 341 384 285 387 222 c 0
 389 186 389 148 389 109 c 0
 389 89 389 68 389 48 c 0
 389 23 389 -14 391 -17 c 0
 393 -20 397 -28 397 -41 c 0
 397 -41 395 -73 390 -83 c 0
 387 -88 384 -92 379 -94 c 1
 386 -102 l 1
 351 -100 350 -101 344 -97 c 1
 337 -112 l 1
 333 -86 l 1
 320 -70 l 1
 330 -69 l 1
 327 -51 326 -33 324 -15 c 1
 320 -16 316 -17 312 -17 c 0
 309 -17 306 -17 303 -16 c 0
 273 -21 266 -23 208 -39 c 0
 208 -39 176 -48 174 -48 c 2
 175 -61 l 1
 146 -42 145 -41 140 -37 c 1
 135 -43 l 1
 133 -26 132 -22 132 -22 c 0
 132 -21 133 -20 133 -19 c 0
 132 -8 131 -8 131 -5 c 0
 131 3 133 12 137 28 c 0
 139 34 144 55 149 75 c 0
 152 102 152 101 152 102 c 0
 161 145 163 169 163 208 c 0
 163 236 162 254 158 268 c 0
 157 271 157 272 155 279 c 0
 153 282 152 283 150 286 c 0
 149 288 148 292 148 295 c 0
 148 306 159 317 173 317 c 0
 184 317 214 307 222 259 c 0
 225 240 226 226 226 196 c 0
 226 190 226.0625 184.4375 226.0625 178.84375 c 0
 226.0625 162.0625 225.5 145 221 115 c 0
 220 106 218 96 217 84 c 0
 215 70 211 50 205 28 c 1
446 297 m 0
 446 307 442 314 442 343 c 2
 442 347 l 1
 451 360 l 1
 460 361 460 361 462 361 c 0
 484 361 507 343 510 303 c 0
 510 297 510 290 510 283 c 0
 510 267 510 267 507 214 c 0
 506 195 506 195 504 104 c 0
 503 56 500 -27 500 -28 c 0
 500 -29 500 -30 500 -31 c 1
 501 -30 503 -30 504 -30 c 0
 506 -29 515 -24 525 -11 c 0
 533 0 543 19 551 36 c 0
 564 63 574 89 582 116 c 0
 627 275 627 275 629 282 c 0
 637 319 638 323 655 337 c 1
 670 337 700 335 700 306 c 0
 700 296 697 287 688 255 c 0
 675 209 662 168 650 132 c 1
 651 132 653 133 655 133 c 0
 661 133 666 130 675 124 c 0
 677 123 677 123 710 102 c 0
 746 80 773 55 805 25 c 0
 890 -68 l 1
 890 -69 l 0
 890 -72 889 -76 888 -79 c 1
 907 -85 l 1
 865 -101 865 -101 856 -101 c 0
 849 -101 834 -99 831 -87 c 0
 827 -82 815 -75 800 -61 c 0
 784 -47 770 -32 746 -5 c 0
 694 52 657 78 643 104 c 0
 642 105 642 107 641 108 c 1
 621 52 600 8 578 -27 c 0
 569 -41 549 -73 519 -73 c 0
 513 -73 507 -71 502 -68 c 1
 502 -76 499 -83 484 -118 c 1
 479 -105 l 1
 475 -107 472 -108 467 -108 c 0
 465 -108 451 -108 442 -97 c 1
 432 -98 l 1
 432 -95 438 160 443 239 c 0
 444 262 446 279 446 296 c 0
 446 297 l 0
282 671 m 0
 306 671 335 660 353 660 c 0
 361 660 371 662 391 665 c 0
 393 665 520 686 548 691 c 0
 571 695 575 695 579 695 c 0
 595 695 614 695 628 681 c 0
 629 680 634 676 634 669 c 0
 634 663 632 660 628 655 c 1
 688 651 l 1
 611 632 l 2
 592 627 584 632 524 621 c 0
 524 619 524 618 524 615 c 0
 524 606 524 602 516 539 c 0
 510 491 509 483 508 477 c 1
 523 479 545 481 575 481 c 0
 576 481 608 481 671 478 c 0
 719 476 754 467 795 456 c 0
 808 452 815 450 830 441 c 1
 835 422 835 421 835 415 c 0
 835 404 831 399 827 395 c 0
 824 391 814 380 786 380 c 0
 769 380 760 387 755 392 c 0
 752 394 752 396 741 400 c 0
 713 411 660 413 590 415 c 0
 585 415 580 415 576 415 c 0
 554 415 536 413 492 407 c 0
 460 403 258 374 213 374 c 0
 191 374 169 376 155 379 c 0
 134 383 122 390 114 402 c 0
 110 408 108 414 108 420 c 0
 108 429 111 440 130 440 c 0
 131 440 131 440 132 440 c 0
 133 440 183 438 198 438 c 0
 256 438 426 464 441 466 c 1
 451 515 460 564 469 614 c 1
 443 611 417 605 359 600 c 1
 296 603 253 633 253 653 c 0
 253 659 257 671 282 671 c 0
EndSplineSet
Validated: 524289
EndChar

StartChar: h`kf
Encoding: 983284 983284 8
Width: 1000
GlyphClass: 1
Flags: HMW
LayerCount: 2
Fore
SplineSet
543 273 m 0
 559 273 578 258 578 230 c 0
 578 214 552 -55 552 -58 c 1
 616 -28 641 -4 681 41 c 0
 696 58 729 94 746 114 c 0
 770 142 779 153 790 170 c 0
 818 212 829 228 847 228 c 0
 857 228 865 220 865 203 c 0
 865 155 813 95 783 61 c 0
 769 45 741 14 728 -1 c 0
 680 -57 659 -73 633 -89 c 0
 614 -100 558 -131 533 -131 c 0
 513 -131 493 -120 488 -91 c 0
 486 -82 486 -74 486 -68 c 0
 486 -56 486 -43 490 -13 c 0
 490 -11 505 146 515 213 c 0
 517 227 519 239 523 249 c 0
 524 252 524 257 526 261 c 0
 527 265 532 273 543 273 c 0
386 124 m 1
 372 106 l 1
 375 104 l 1
 391 119 l 1
 386 124 l 1
387 97 m 0
 384 97 382 98 381 98 c 0
 375 98 343 87 273 63 c 0
 226 47 204 43 185 43 c 0
 152 43 135 58 135 71 c 0
 135 87 157 97 183 103 c 0
 191 105 207 109 222 114 c 0
 222 115 222 115 222 116 c 0
 222 119 222 131 230 142 c 0
 235 148 236 149 240 183 c 0
 256 311 266 356 276 392 c 0
 276 393 277 394 277 395 c 1
 275 395 244 390 222 390 c 0
 206 390 193 392 181 398 c 0
 162 407 151 424 151 443 c 0
 151 449 152 455 156 462 c 0
 160 470 167 473 174 473 c 0
 175 473 176 473 190 472 c 1
 188 463 l 1
 201 448 202 447 214 447 c 0
 237 447 310 465 338 465 c 0
 348 465 353 463 361 460 c 1
 364 451 367 444 367 434 c 0
 367 409 351 406 344 405 c 0
 343 405 339 404 335 403 c 0
 332 384 329 367 325 344 c 0
 320 316 318 303 310 223 c 0
 305 179 303 160 298 141 c 1
 312 145 323 149 339 154 c 0
 360 161 370 163 379 163 c 0
 405 163 410 152 420 123 c 1
 410 110 402 97 387 97 c 0
802 380 m 1
 802 380 l 1
 797 370 l 1
 808 358 l 1
 808 358 l 1
 802 380 l 1
654 740 m 0
 665 740 689 731 689 701 c 0
 689 653 657 604 609 533 c 0
 601 522 593 510 585 498 c 0
 542 433 519 398 488 364 c 1
 489 364 489 364 490 364 c 0
 525 364 524 372 590 378 c 0
 592 378 693 387 748 387 c 0
 768 387 789 386 802 385 c 0
 815 384 824 383 830 357 c 0
 830 355 831 352 831 350 c 0
 831 336 815 325 814 324 c 0
 808 320 801 320 794 320 c 0
 794 320 775 320 763 320 c 0
 709 320 617 315 578 312 c 0
 569 310 529 299 491 299 c 0
 484 299 476 300 466 301 c 0
 461 302 450 303 444 303 c 0
 420 305 409 308 404 312 c 0
 394 315 378 320 351 328 c 1
 368 329 381 330 390 331 c 1
 389 334 388 337 388 340 c 0
 388 354 399 367 418 385 c 0
 456 422 489 472 532 536 c 0
 596 631 596 631 603 643 c 0
 621 672 628 690 630 699 c 0
 633 713 633 709 634 717 c 0
 635 724 636 740 654 740 c 0
EndSplineSet
Validated: 517
EndChar

StartChar: h`kfa
Encoding: 983285 983285 9
Width: 1000
GlyphClass: 1
Flags: HMW
LayerCount: 2
Fore
SplineSet
615 -60 m 0
 664 -60 713 -52 767 -52 c 0
 768 -52 820 -53 853 -55 c 0
 875 -57 911 -63 911 -91 c 0
 911 -108 897 -127 874 -127 c 0
 863 -127 871 -125 844 -122 c 0
 822 -120 784 -119 747 -119 c 0
 732 -119 717 -119 684 -122 c 0
 671 -123 641 -126 605 -129 c 0
 553 -133 497 -140 476 -142 c 0
 438 -146 435 -146 432 -146 c 0
 369 -146 326 -117 326 -95 c 0
 326 -82 340 -72 362 -72 c 0
 384 -72 393 -80 433 -80 c 0
 444 -80 445 -80 534 -69 c 0
 600.666666667 -60.6666666667 611.777777778 -59.9722222222 614.208333333 -59.9722222222 c 0
 614.694444444 -59.9722222222 614.833333333 -60 615 -60 c 0
431 181 m 1
 430 197 l 1
 427 197 l 1
 425 197 l 1
 426 178 l 1
 431 181 l 1
130 100 m 0
 118 100 89 106 89 125 c 0
 89 130 89 143 122 155 c 0
 142 162 169 169 179 171 c 0
 190 173 199 174 208 176 c 0
 218 178 229 180 242 182 c 1
 236 185 229 191 226 200 c 0
 223 208 224 209 224 212 c 0
 224 218 226 225 232 230 c 0
 233 233 233 243 234 264 c 0
 235 302 244 381 256 440 c 1
 256 440 219 435 209 435 c 0
 175 435 148 452 148 471 c 0
 148 472 149 494 185 494 c 0
 189 494 192 494 197 494 c 0
 205 494 205 494 266 506 c 0
 312 515 339 521 361 527 c 0
 365 528 370 529 375 529 c 0
 384 529 412 527 412 496 c 0
 412 468 390 464 368 460 c 0
 361 459 333 454 317 451 c 0
 317 449 317 447 317 445 c 0
 317 424 305 370 301 281 c 0
 298 215 295 201 286 190 c 0
 285 189 l 1
 321 196 363 208 384 208 c 0
 432 208 443 200 450 188 c 0
 451 187 451 186 452 185 c 0
 455 181 457 175 457 170 c 0
 457 158 451 152 444 146 c 0
 442 142 437 137 427 137 c 0
 418 137 406 142 392 142 c 0
 381 142 369 139 348 135 c 0
 317 129 306 127 274 122 c 0
 273 122 212 111 180 107 c 0
 134 101 135 100 130 100 c 0
506 235 m 0
 506 274 502 290 502 305 c 0
 502 314 502 338 524 338 c 0
 547 338 570 301 570 230 c 0
 570 205 568 175 565 134 c 0
 564 118 563 106 563 96 c 0
 563 90 564 87 564 84 c 1
 583 87 615 109 683 158 c 0
 752 207 767 218 782 218 c 0
 793 218 807 210 807 193 c 0
 807 169 786 153 703 92 c 0
 644 49 597 15 553 15 c 0
 526 15 513 29 506 47 c 0
 500 61 498 78 498 96 c 0
 498 107 506 173 506 235 c 0
627 729 m 0
 627 741 634 750 645 750 c 0
 648 750 650 750 652 749 c 0
 660 749 690 747 697 709 c 2
 698 707 l 1
 692 679 682 662 636 604 c 0
 592 548 533 481 503 450 c 0
 476 422 460 404 450 393 c 1
 480 398 579 422 682 438 c 0
 730 445 758 447 785 447 c 0
 803 447 812 446 823 441 c 2
 857 423 l 1
 838 420 l 1
 839 417 839 415 839 412 c 0
 839 412 838 379 811 379 c 0
 804 379 795 381 780 381 c 0
 688 381 470 328 459 327 c 0
 429 325 400 322 391 321 c 0
 380 320 373 319 368 319 c 0
 346 319 345 334 344 340 c 1
 335 333 l 1
 338 361 l 2
 339 373 347 380 351 384 c 0
 358 391 362 394 386 420 c 0
 402 437 426 464 466 506 c 0
 485 526 586 638 633 710 c 1
 629 716 627 722 627 729 c 0
EndSplineSet
Validated: 524801
EndChar

StartChar: h`kfo
Encoding: 983286 983286 10
Width: 1000
GlyphClass: 1
Flags: HMW
LayerCount: 2
Fore
SplineSet
883 334 m 0
 883 343 889 354 909 354 c 0
 926 354 944 342 944 314 c 0
 944 308 943 301 937 284 c 0
 920 234 887 182 885 180 c 0
 859 148 832 115 804 82 c 0
 778 52 685 -60 684 -61 c 0
 671 -73 659 -86 646 -98 c 0
 635 -106 607 -126 592 -126 c 0
 580 -126 572 -116 572 -107 c 0
 572 -97 580 -83 606 -54 c 0
 615 -44 634 -23 684 38 c 0
 710 70 770 143 832 216 c 1
 852 250 872 284 889 320 c 0
 889 321 883 326 883 334 c 0
169 489 m 0
 185 489 197 478 222 478 c 0
 252 478 291 492 331 507 c 1
 351 502 359 497 371 486 c 1
 372 479 372 479 372 476 c 0
 372 461 361 452 346 446 c 0
 340 444 330 440 318 436 c 1
 316 411 313 391 311 374 c 1
 368 362 l 1
 368 366 369 376 381 390 c 0
 382 391 392 405 418 435 c 0
 437 457 484 508 527 563 c 0
 561 607 593 652 609 673 c 0
 620 686 624 693 626 696 c 0
 623 704 623 704 623 708 c 0
 623 728 652 728 652 728 c 0
 672 728 684 710 684 689 c 0
 684 678 680 667 669 649 c 0
 645 612 577 526 568 514 c 0
 567 513 515 447 479 406 c 1
 493 410 511 415 534 423 c 0
 536 424 705 479 768 479 c 0
 785 479 794 477 814 473 c 1
 812 461 812 462 812 462 c 0
 812 460 819 452 819 441 c 0
 819 433 816 428 811 424 c 1
 820 413 l 1
 783 414 782 414 773 414 c 0
 738 414 677 397 588 370 c 0
 562 362 520 350 485 340 c 1
 490 338 496 334 504 327 c 0
 527 307 529 273 529 257 c 0
 529 251 529 246 528 223 c 0
 527 203 525 170 523 107 c 0
 522 72 516 10 516 6 c 1
 586 71 l 2
 600 84 613 96 628 113 c 0
 634 116 641 119 649 119 c 0
 653 119 674 118 674 90 c 0
 674 76 664 66 641 42 c 0
 610 9 573 -28 490 -104 c 1
 491 -88 l 1
 490 -88 489 -88 487 -88 c 0
 484 -88 462 -87 462 -87 c 0
 457 -78 453 -70 453 -54 c 0
 453 -50 453 -46 454 -43 c 0
 453 -40 453 -38 453 -36 c 0
 453 -35 453 -35 453 -35 c 0
 451 -20 450 -21 450 -8 c 0
 450 12 457 58 460 137 c 0
 461 154 461 169 462 182 c 1
 456 173 445 166 432 165 c 0
 425 164 419 166 404 165 c 0
 349 162 227 125 183 107 c 0
 159 97 143 93 126 93 c 0
 111 93 97 96 84 102 c 0
 65 111 57 118 57 127 c 0
 57 140 74 154 98 154 c 0
 102 154 105 153 112 153 c 0
 126 153 136 156 174 171 c 0
 201 181 218 188 243 196 c 1
 242 198 241 201 241 203 c 0
 237 208 237 217 237 239 c 0
 237 292 244 330 261 423 c 1
 251 422 240 421 230 421 c 0
 218 421 188 421 164 441 c 0
 155 448 149 457 149 467 c 0
 149 476 154 489 169 489 c 0
464 230 m 1
 465 245 466 254 466 263 c 0
 466 302 454 296 454 312 c 0
 451 315 449 319 449 324 c 0
 449 327 449 329 450 331 c 1
 435 328 424 326 418 326 c 0
 414 326 404 325 389 333 c 0
 388 333 388 334 381 334 c 1
 376 339 376 339 375 341 c 2
 311 374 l 1
 304 302 303 282 300 240 c 0
 299 223 299 217 298 212 c 1
 308 214 366 229 410 231 c 0
 412 233 414 237 419 239 c 0
 423 244 430 247 438 247 c 0
 451 247 460 239 464 230 c 1
EndSplineSet
Validated: 517
EndChar

StartChar: h`kf`d
Encoding: 983287 983287 11
Width: 1000
GlyphClass: 1
Flags: HMW
LayerCount: 2
Fore
SplineSet
390 274 m 0
 430 274 436 236 436 200 c 0
 436 162 417 23 417 -41 c 0
 417 -42 417 -43 417 -44 c 1
 420 -42 518 20 670 145 c 0
 687 162 687 162 688 163 c 0
 694 167 700 170 707 170 c 0
 719 170 735 162 735 142 c 0
 735 120 717 104 678 71 c 0
 620 22 541 -38 482 -79 c 0
 445 -104 431 -113 410 -113 c 0
 391 -113 372 -107 361 -86 c 0
 355 -75 352 -61 352 -39 c 0
 352 18 376 186 376 226 c 0
 376 241 368 244 368 256 c 0
 368 257 368 256 370 273 c 1
 382 272 l 2
 385 273 389 274 390 274 c 0
164 443 m 0
 173 443 193 440 206 440 c 0
 223 440 303 464 313 464 c 0
 323 464 327 458 330 455 c 0
 331 454 331 453 332 452 c 0
 337 447 340 441 340 434 c 0
 340 424 335 418 331 414 c 0
 325 402 322 401 278 391 c 1
 279 385 280 378 280 369 c 0
 280 359 279 287 259 173 c 1
 275 176 280 177 284 177 c 0
 288 177 289 177 326 163 c 1
 312 159 l 1
 314 155 315 150 315 145 c 0
 315 125 302 121 291 117 c 0
 290 117 204 92 183 87 c 0
 166 83 155 81 144 81 c 0
 135 81 128 81 104 86 c 1
 100 100 99 105 99 113 c 0
 99 120 100 128 107 134 c 1
 103 142 l 1
 128 141 128 141 131 141 c 0
 163 141 193 157 194 157 c 0
 194 157 l 0
 194 158 196 178 201 210 c 0
 203 225 207 255 212 297 c 0
 216 335 219 364 222 380 c 1
 219 380 213 380 213 380 c 2
 200 380 165 382 151 400 c 0
 148 404 140 415 140 424 c 0
 140 432 146 443 164 443 c 0
615 266 m 0
 590 266 575 283 575 295 c 0
 575 308 586 312 608 317 c 0
 613 318 613 318 674 335 c 1
 678 344 682 353 686 361 c 1
 684 361 682 361 680 361 c 0
 679 361 677 361 676 361 c 0
 656 361 656 361 569 341 c 0
 444 312 382 271 348 271 c 0
 344 271 343 271 323 281 c 1
 324 281 l 1
 319 285 315 292 315 299 c 0
 315 300 315 300 315 301 c 0
 313 302 310 306 310 311 c 0
 310 322 315 318 344 373 c 0
 350 384 366 412 376 429 c 0
 410 485 428 520 464 588 c 0
 493 643 501 658 506 683 c 0
 505 685 503 688 503 692 c 0
 503 705 517 713 530 713 c 0
 540 713 564 707 564 672 c 0
 564 662 562 648 554 627 c 0
 548 611 547 608 493 502 c 0
 486 489 450 422 424 379 c 0
 419 371 416 365 413 360 c 1
 470 383 478 385 573 409 c 0
 607 417 641 426 670 426 c 0
 681 426 697 425 707 414 c 0
 707 414 708 413 708 412 c 1
 739 485 750 514 756 540 c 0
 758 548 760 553 764 558 c 0
 764 559 765 562 769 576 c 1
 798 576 l 1
 798 569 l 1
 808 562 809 548 809 540 c 0
 809 501 796 467 750 356 c 1
 751 356 808 374 814 374 c 0
 817 374 818 374 819 374 c 0
 820 374 825 375 829 375 c 0
 849 375 863 357 863 346 c 0
 863 342 861 339 859 336 c 1
 865 335 l 1
 843 316 l 2
 834 309 826 312 784 301 c 0
 776 299 769 297 763 295 c 1
 770 292 777 288 784 283 c 0
 800 272 823 254 846 229 c 0
 856 218 865 207 874 191 c 0
 874 190 900 139 901 127 c 0
 902 124 903 121 903 118 c 0
 903 106 891 93 874 91 c 2
 799 83 l 1
 844 104 l 1
 824 127 826 182 742 247 c 0
 725 260 717 268 714 276 c 1
 695 239 672 204 646 169 c 0
 628 145 608 120 585 100 c 0
 576 93 569 88 559 88 c 0
 550 88 539 94 539 106 c 0
 539 120 553 144 579 178 c 0
 595 199 619 233 641 270 c 1
 621 266 620 266 615 266 c 0
EndSplineSet
Validated: 513
EndChar

StartChar: h`gr
Encoding: 983288 983288 12
Width: 1000
GlyphClass: 1
Flags: HMW
LayerCount: 2
Fore
SplineSet
180 177 m 0
 193 177 202 176 218 176 c 0
 237 176 273 178 333 188 c 1
 332 191 331 194 331 197 c 0
 331 200 331 202 332 204 c 0
 332 206 332 207 332 208 c 0
 332 215 335 212 337 233 c 0
 338 241 339 255 345 292 c 2
 345 292 359 373 364 406 c 1
 334 407 305 412 283 420 c 0
 274 423 245 433 245 459 c 0
 245 462 246 476 266 476 c 0
 289 476 325 465 359 465 c 0
 373 465 402 472 434 472 c 0
 454 472 458 469 465 462 c 0
 470 457 472 451 472 445 c 0
 472 442 471 424 451 416 c 0
 446 414 445 414 419 407 c 1
 409 291 408 284 401 239 c 0
 398 220 397 211 391 199 c 1
 395 200 399 200 403 201 c 0
 425 205 436 208 444 208 c 0
 451 208 476 208 486 201 c 0
 487 200 490 199 491 196 c 0
 495 195 507 189 507 171 c 0
 507 170 507 168 507 166 c 2
 518 163 l 1
 505 149 l 2
 499 142 489 137 479 137 c 0
 467 137 458 143 451 143 c 0
 440 143 417 137 370 129 c 0
 291 116 267 114 247 114 c 0
 223 114 212 116 172 123 c 0
 144 128 126 136 126 151 c 0
 126 155 127 174 158 176 c 0
 163 176 171 177 180 177 c 0
657 222 m 1
 656 222 608 216 577 216 c 0
 560 216 512 218 488 239 c 0
 482 244 471 255 471 266 c 0
 471 273 471 274 485 290 c 1
 494 281 l 2
 497 280 513 280 533 276 c 0
 553 272 564 271 574 271 c 0
 575 271 652 279 717 298 c 0
 731 302 739 305 747 305 c 0
 773 305 774 272 774 266 c 0
 774 263 774 262 773 253 c 1
 745 233 726 216 697 170 c 1
 731 175 732 176 752 178 c 0
 769 180 770 179 780 182 c 0
 788 184 795 185 801 185 c 0
 804 185 807 185 809 185 c 0
 809 185 842 181 846 180 c 0
 857 178 876 169 876 141 c 0
 876 132 873 100 828 46 c 0
 806 19 774 -13 743 -38 c 0
 703 -71 663 -93 608 -113 c 0
 559 -131 496 -147 453 -155 c 0
 439 -157 429 -159 421 -159 c 0
 397 -159 387 -146 387 -135 c 0
 387 -130 390 -125 392 -121 c 0
 399 -111 410 -107 446 -99 c 0
 466 -95 516 -81 555 -68 c 0
 644 -38 682 -7 704 12 c 0
 713 20 776 75 804 121 c 1
 802 121 799 122 797 122 c 0
 796 122 739 117 716 113 c 0
 698 110 691 110 688 110 c 0
 683 110 666 110 661 111 c 0
 641 113 622 130 622 151 c 0
 622 164 628 179 657 222 c 1
806 625 m 0
 833 625 844 608 844 596 c 0
 844 591 842 569 806 562 c 0
 805 562 776 558 678 537 c 0
 673 536 668 535 663 534 c 1
 654 514 645 495 640 483 c 0
 626 451 614 429 609 421 c 0
 598 403 590 390 584 379 c 1
 630 382 654 384 690 389 c 0
 705 391 713 392 730 392 c 0
 735 392 740 392 745 392 c 0
 779 405 817 402 833 405 c 0
 835 405 838 406 841 406 c 0
 851 406 859 404 867 398 c 0
 873 373 l 1
 873 372 872 370 872 369 c 0
 873 367 873 365 873 363 c 0
 873 349 854 341 840 339 c 0
 816 336 812 341 772 331 c 0
 760 328 752 326 741 326 c 0
 732 326 724 327 715 328 c 0
 686 322 662 319 618 316 c 0
 577 313 577 313 540 308 c 0
 535 307 531 307 528 307 c 0
 526 307 525 307 522 307 c 0
 522 307 l 0
 521 307 l 0
 513 307 510 312 504 319 c 0
 499 323 493 330 493 341 c 0
 493 342 493 344 493 345 c 1
 491 345 l 1
 503 367 512 385 512 385 c 0
 519 398 520 398 558 465 c 0
 572 490 581 508 589 526 c 1
 586 526 584 526 581 526 c 0
 511 526 443 552 443 584 c 0
 443 588 444 604 465 604 c 0
 484 604 514 590 573 590 c 0
 588 590 603 591 618 593 c 0
 618 594 638 643 643 654 c 0
 643 655 665 704 669 714 c 0
 673 725 674 728 674 731 c 0
 674 743 666 747 666 759 c 0
 666 774 679 786 690 786 c 0
 691 786 696 785 701 781 c 1
 714 780 720 769 723 763 c 0
 726 755 731 741 731 723 c 0
 731 706 726 688 713 661 c 0
 707 648 697 623 691 606 c 1
 713 611 779 625 806 625 c 0
EndSplineSet
Validated: 513
EndChar

StartChar: h`gr`k
Encoding: 983289 983289 13
Width: 1000
GlyphClass: 1
Flags: HMW
LayerCount: 2
Fore
SplineSet
90 178 m 0
 109 178 114 169 134 169 c 0
 143 169 154 170 165 172 c 1
 159 176 155 184 152 196 c 1
 173 253 172 253 176 282 c 0
 179 307 184 345 188 385 c 1
 128 393 98 436 98 454 c 0
 98 466 108 472 117 472 c 0
 126 472 133 468 141 461 c 0
 155 449 177 440 202 440 c 0
 211 440 213 441 228 447 c 0
 228 447 259 461 278 461 c 0
 286 461 291 458 299 455 c 1
 302 446 305 440 305 430 c 0
 305 406 287 399 275 396 c 0
 266 394 253 390 239 388 c 1
 235 293 l 2
 233 241 231 228 213 191 c 0
 212 188 209 186 206 182 c 1
 236 189 266 197 287 199 c 0
 294 200 327 203 331 205 c 0
 335 206 339 208 345 208 c 0
 350 208 362 208 377 194 c 0
 381 192 385 188 389 181 c 2
 393 178 l 1
 391 177 l 1
 393 173 393 170 394 166 c 0
 392 158 387 132 357 132 c 0
 346 132 336 139 331 139 c 0
 330 139 327 138 322 137 c 0
 296 130 268 131 214 116 c 0
 186 108 167 106 147 106 c 0
 136 106 123 107 112 110 c 0
 75 118 61 145 61 158 c 0
 61 173 77 178 90 178 c 0
301 317 m 0
 319 317 341 310 381 310 c 0
 426 310 480 324 492 328 c 0
 495 329 607 364 639 364 c 0
 651 364 657 360 662 355 c 0
 663 354 664 353 666 352 c 0
 671 349 675 342 675 334 c 0
 675 329 674 324 671 320 c 1
 679 316 l 1
 596 240 570 214 562 200 c 1
 563 200 565 200 566 200 c 0
 567 200 l 0
 609 200 634 196 651 181 c 0
 660 173 664 163 666 152 c 1
 668 157 673 167 680 183 c 0
 717 268 754 349 795 426 c 0
 804 442 805 445 807 451 c 0
 809 457 810 463 814 470 c 0
 814 471 l 0
 814 481 822 491 837 491 c 0
 844 491 862 488 862 460 c 0
 862 450 862 438 851 415 c 0
 848 408 841 396 830 370 c 0
 829 368 751 193 743 174 c 1
 756 175 757 175 790 181 c 0
 800 183 808 184 818 187 c 0
 831 190 845 193 859 193 c 0
 872 193 884 190 895 187 c 0
 897 187 900 188 902 188 c 0
 910 188 926 186 934 169 c 1
 954 159 l 1
 947 156 l 1
 939 143 l 2
 927 123 908 122 893 122 c 0
 892 122 889 123 888 123 c 0
 885 123 864 129 860 129 c 0
 852 129 846 125 811 120 c 0
 810 120 736 110 728 108 c 0
 721 107 713 105 704 105 c 0
 694 105 677 107 666 125 c 1
 655 92 635 64 593 24 c 0
 557 -10 471 -84 365 -127 c 0
 329 -142 302 -147 275 -147 c 0
 261 -147 251 -147 243 -139 c 0
 241 -137 238 -132 238 -126 c 0
 238 -120 238 -106 297 -88 c 0
 434 -46 576 83 604 138 c 1
 602 138 600 138 597 138 c 0
 596 138 573 138 573 138 c 0
 568 138 563 138 559 138 c 0
 509 140 493 177 493 193 c 0
 493 206 496 223 526 259 c 0
 532 265 537 270 543 276 c 1
 524 271 495 263 471 258 c 0
 446 252 424 250 403 250 c 0
 323 250 280 279 280 301 c 0
 280 309 286 317 301 317 c 0
913 156 m 1
 913 157 l 1
 913 156 l 1
 913 156 l 1
492 754 m 0
 492 764 500 773 514 773 c 0
 519 773 548 771 548 734 c 0
 548 733 547 673 516 600 c 1
 541 608 589 617 601 617 c 0
 622 617 631 600 631 588 c 0
 631 584 630 563 597 553 c 0
 564 543 578 553 506 529 c 0
 494 525 486 523 478 522 c 1
 472 511 472 510 457 481 c 0
 446 460 431 435 431 435 c 1
 434 436 437 437 441 439 c 0
 470 451 512 465 556 475 c 1
 560 480 564 483 568 485 c 0
 571 486 573 489 577 490 c 0
 581 491 584 491 587 491 c 0
 588 491 590 491 591 491 c 0
 623 491 632 488 639 482 c 0
 647 476 651 466 651 457 c 0
 651 432 624 425 589 418 c 0
 567 414 507 396 471 382 c 0
 432 367 413 363 403 361 c 0
 386 358 383 355 375 355 c 0
 372 355 369 356 368 356 c 0
 367 356 366 356 365 356 c 0
 355 356 348 363 342 369 c 0
 340 371 339 373 338 374 c 0
 335 377 330 382 330 389 c 0
 330 389 l 0
 329 391 328 393 328 395 c 2
 315 396 l 1
 337 416 l 2
 343 421 350 425 358 426 c 1
 362 439 368 453 377 469 c 0
 384 481 394 500 405 521 c 1
 335 527 299 566 297 569 c 0
 295 571 293 574 293 579 c 0
 293 589 303 600 323 600 c 0
 348 600 378 585 396 583 c 0
 401 583 406 582 411 582 c 0
 419 582 428 582 436 583 c 1
 450 610 462 638 472 670 c 0
 474 676 492 732 492 747 c 0
 492 749 492 751 492 754 c 0
EndSplineSet
Validated: 513
EndChar

StartChar: hs
Encoding: 983290 983290 14
Width: 1000
GlyphClass: 1
Flags: HMW
LayerCount: 2
Fore
SplineSet
233 249 m 0
 243 249 259 249 273 249 c 0
 346 249 484 271 550 285 c 0
 574 290 596 295 637 306 c 0
 649 309 694 320 718 320 c 0
 725 320 743 320 767 307 c 1
 778 296 788 282 788 264 c 0
 788 256 785 206 752 118 c 0
 735 74 705 3 677 -52 c 0
 636 -134 609 -173 583 -173 c 0
 576 -173 564 -170 564 -151 c 0
 564 -135 572 -117 589 -88 c 0
 622 -31 675 93 703 173 c 0
 714 203 722 231 722 254 c 0
 721 254 720 254 719 254 c 0
 675 254 629 226 445 200 c 0
 385 191 342 188 308 188 c 0
 291 188 246 188 222 203 c 0
 217 206 203 216 203 231 c 0
 203 249 224 249 233 249 c 0
822 330 m 0
 805 330 776 348 711 351 c 1
 457 333 428 327 399 320 c 0
 377 315 333 302 332 302 c 0
 297 299 263 295 228 290 c 1
 191 296 170 304 146 312 c 1
 146 338 l 1
 172 349 179 350 204 351 c 0
 222 351 235 353 308 365 c 0
 358 373 367 384 437 394 c 1
 440 422 445 442 462 503 c 0
 466 516 468 527 470 533 c 0
 474 549 479 567 487 578 c 1
 483 577 478 577 474 576 c 0
 440 571 420 570 400 570 c 0
 377 570 333 570 302 600 c 0
 294 608 289 615 289 624 c 0
 289 634 296 646 309 646 c 0
 325 646 343 630 385 630 c 0
 402 630 497 645 540 651 c 1
 614 671 634 675 642 675 c 0
 661 675 675 653 675 640 c 0
 675 623 658 616 638 610 c 0
 618 604 581 594 523 584 c 1
 530 575 533 559 533 548 c 0
 533 519 509 449 502 402 c 1
 567 406 629 411 655 413 c 0
 701 417 704 417 709 417 c 0
 721 417 778 416 834 392 c 2
 864 379 l 1
 850 374 l 1
 851 373 851 372 857 364 c 1
 852 356 852 357 852 356 c 1
 860 356 l 1
 839 336 l 2
 838 335 832 330 822 330 c 0
EndSplineSet
Validated: 1
EndChar

StartChar: hsa
Encoding: 983291 983291 15
Width: 1000
GlyphClass: 1
Flags: HMW
LayerCount: 2
Fore
SplineSet
571 486 m 0
 571 484 571 482 571 480 c 0
 571 475 570 471 570 467 c 1
 620 471 670 474 720 474 c 0
 756 474 790 472 810 471 c 0
 835 469 847 468 852 449 c 0
 855 439 855 439 855 436 c 0
 855 425 848 416 838 411 c 0
 832 408 833 408 828 406 c 0
 826 405 825 405 823 405 c 0
 821 405 821 405 820 405 c 0
 819 405 l 0
 809 405 777 408 720 408 c 0
 532 408 421 368 305 368 c 0
 305 368 284 368 281 369 c 0
 252 374 224 380 208 384 c 0
 186 390 173 398 166 410 c 0
 164 414 161 418 161 424 c 0
 161 441 179 443 189 443 c 0
 197 443 204 442 218 440 c 0
 234 438 262 435 290 432 c 0
 337 433 371 435 512 459 c 1
 507 477 506 488 506 499 c 0
 506 523 517 579 528 608 c 1
 501 605 475 603 454 603 c 0
 424 603 388 607 359 625 c 0
 337 639 333 653 333 662 c 0
 333 668 335 681 356 681 c 0
 379 681 398 664 446 664 c 0
 524 664 641 701 674 701 c 0
 694 701 706 687 706 673 c 0
 706 667 703 661 700 656 c 0
 697 644 679 639 658 634 c 0
 642 630 615 623 586 617 c 0
 586 615 586 613 586 610 c 0
 586 588 571 527 571 486 c 0
817 431 m 1
 809 421 l 1
 812 413 l 1
 816 411 l 1
 818 412 l 1
 826 429 l 1
 819 432 l 1
 817 431 l 1
666 360 m 0
 706 360 696 365 713 365 c 0
 719 365 729 363 741 359 c 0
 753 356 783 343 783 305 c 0
 783 269 746 181 722 138 c 0
 712 120 690 82 669 82 c 0
 663 82 650 85 650 106 c 0
 650 125 659 145 672 171 c 0
 673 172 703 237 718 297 c 0
 717 297 715 297 713 298 c 0
 703 295 696 294 680 294 c 0
 671 294 650 295 650 295 c 0
 638 295 632 293 606 286 c 0
 575 277 567 275 534 268 c 0
 494 259 454 248 453 248 c 0
 432 243 416 241 400 241 c 0
 342 241 281 265 269 296 c 0
 268 298 267 300 267 304 c 0
 267 305 266 307 268 310 c 0
 268 312 271 325 286 325 c 0
 294 325 301 322 313 316 c 0
 326 309 357 301 388 301 c 0
 415 301 436 308 452 313 c 0
 516 334 521 330 594 351 c 0
 622 359 626 360 663 360 c 0
 664 360 665 360 666 360 c 0
318 -12 m 0
 322 -12 324 -12 326 -12 c 0
 335 -12 385 1 439 11 c 0
 484 20 524 23 575 23 c 0
 600 23 795 23 855 -11 c 0
 858 -13 869 -19 869 -29 c 0
 869 -30 868 -30 868 -31 c 0
 871 -35 873 -41 873 -46 c 0
 873 -61 858 -74 844 -74 c 0
 844 -74 l 0
 843 -74 841 -74 839 -74 c 0
 829 -74 829 -70 807 -64 c 0
 785 -58 763 -54 736 -51 c 0
 724 -50 712 -49 706 -48 c 0
 691 -46 688 -45 685 -45 c 0
 684 -45 l 0
 684 -45 678 -45 677 -45 c 0
 656 -45 629 -43 585 -43 c 0
 512 -43 468 -50 422 -60 c 0
 363 -73 346 -75 316 -78 c 0
 270 -82 260 -90 240 -90 c 0
 235 -90 231 -90 214 -85 c 0
 190 -78 184 -76 169 -65 c 0
 158 -58 147 -48 142 -43 c 0
 139 -40 137 -38 136 -37 c 0
 133 -34 128 -30 128 -22 c 0
 128 -12 137 1 154 1 c 0
 164 1 172 -2 181 -6 c 0
 199 -13 204 -15 223 -20 c 0
 229 -22 235 -24 241 -26 c 0
 279 -16 303 -12 318 -12 c 0
EndSplineSet
Validated: 5
EndChar

StartChar: |hf
Encoding: 983292 983292 16
Width: 1000
GlyphClass: 1
Flags: HMW
LayerCount: 2
Fore
SplineSet
501 443 m 1
 510 454 l 1
 498 467 l 1
 497 467 l 2
 488 455 l 1
 500 443 l 1
 501 443 l 1
316 676 m 0
 316 685 321 695 332 695 c 0
 340 695 347 692 362 685 c 0
 367 683 397 672 425 666 c 0
 445 662 463 660 489 660 c 0
 494 660 549 661 603 669 c 0
 620 672 630 672 638 672 c 0
 642 672 642 672 658 671 c 1
 658 664 l 2
 662 662 670 656 670 642 c 0
 670 630 664 621 657 617 c 0
 642 609 642 608 574 601 c 0
 574 600 l 0
 574 582 562 543 554 489 c 0
 552 474 550 463 548 455 c 1
 619 466 679 476 741 476 c 0
 742 476 754 476 754 476 c 0
 754 476 770 476 771 476 c 0
 787 476 801 475 813 471 c 0
 820 469 832 465 832 449 c 0
 832 445 l 0
 832 440 833 439 833 436 c 0
 833 433 832 431 831 428 c 1
 805 405 l 0
 797 405 786 406 730 411 c 1
 687 408 659 406 564 391 c 0
 527 385 498 380 477 377 c 1
 483 372 489 366 495 359 c 1
 502 332 504 311 504 289 c 0
 504 246 502 228 493 160 c 0
 483 82 474 17 471 -19 c 1
 506 -6 599 60 674 129 c 0
 687 141 746 197 748 199 c 0
 764 214 774 221 786 221 c 0
 797 221 813 213 813 194 c 0
 813 183 809 176 784 147 c 0
 707 59 579 -37 515 -71 c 0
 489 -85 469 -91 448 -91 c 0
 448 -91 434 -91 422 -81 c 1
 410 -63 l 1
 407 -56 405 -47 405 -36 c 0
 405 -1 417 99 428 171 c 0
 436 224 438 254 438 285 c 0
 438 319 436 328 436 343 c 0
 436 352 437 364 441 373 c 1
 434 372 429 372 426 372 c 0
 417 372 374 374 362 375 c 0
 340 376 313 377 270 392 c 0
 266 393 263 394 259 396 c 1
 259 385 259 375 259 364 c 0
 259 269 255 241 248 189 c 0
 245 168 235 91 236 80 c 0
 236 76 234 60 231 50 c 0
 216 23 l 1
 212 20 207 17 201 17 c 0
 190 17 180 24 175 32 c 0
 169 38 167 45 167 54 c 0
 167 67 167 76 184 216 c 0
 191 279 194 319 194 360 c 0
 194 412 192 436 188 449 c 0
 186 457 182 464 181 470 c 0
 181 472 180 475 180 477 c 0
 180 479 181 498 207 498 c 0
 239 498 249 464 253 450 c 0
 256 450 258 451 261 451 c 0
 287 451 323 440 385 438 c 0
 412 437 412 438 413 438 c 0
 426 438 440 438 473 443 c 0
 473 444 l 0
 473 450 476 456 480 460 c 0
 485 464 485 465 488 488 c 0
 492 516 501 557 513 598 c 1
 507 598 502 597 496 597 c 0
 444 597 395 609 357 629 c 0
 336 640 316 656 316 676 c 0
EndSplineSet
Validated: 545
EndChar

StartChar: |hfo
Encoding: 983293 983293 17
Width: 1000
GlyphClass: 1
Flags: HMW
LayerCount: 2
Fore
SplineSet
352 -43 m 1
 349 -42 l 1
 338 -50 l 2
 338 -51 l 1
 347 -60 l 2
 348 -60 349 -59 350 -59 c 2
 352 -43 l 1
303 277 m 0
 303 281 303 298 303 298 c 0
 303 316 303 331 311 342 c 0
 314 346 319 351 327 351 c 0
 337 351 350 345 357 324 c 0
 361 312 364 297 365 258 c 0
 366 236 366 201 366 166 c 0
 366 135 366 103 362 36 c 0
 361 16 361 8 361 2 c 1
 399 32 433 63 448 77 c 0
 484 110 505 130 524 130 c 0
 534 130 543 123 543 112 c 0
 543 90 516 61 500 44 c 0
 483 26 436 -22 355 -85 c 0
 350 -86 346 -86 341 -86 c 0
 335 -86 325 -86 308 -73 c 1
 297 -47 297 -34 297 -10 c 0
 297 78 303 91 303 277 c 0
757 361 m 1
 759 362 764 365 770 365 c 0
 781 365 786 360 794 353 c 0
 796 351 802 344 802 330 c 0
 802 310 782 257 743 195 c 0
 720 158 690 118 646 69 c 0
 591 7 537 -50 512 -63 c 0
 508 -65 504 -67 498 -67 c 0
 489 -67 480 -60 480 -49 c 0
 480 -29 518 18 535 38 c 0
 549 54 601 114 602 115 c 0
 667 190 710 259 735 316 c 0
 738 323 741 331 744 335 c 0
 744 336 745 337 746 341 c 0
 746 341 l 0
 746 345 747 351 750 355 c 2
 754 367 l 1
 757 361 l 1
154 525 m 0
 154 525 154 541 172 541 c 0
 179 541 191 539 205 525 c 0
 215 515 222 503 227 484 c 0
 232 465 234 442 234 425 c 0
 234 424 234 344 233 329 c 0
 231 300 227 271 224 242 c 0
 221 145 221 144 221 130 c 0
 221 119 221 111 221 104 c 1
 234 98 235 83 235 76 c 0
 235 60 232 45 226 30 c 0
 226 28 226 26 226 24 c 0
 226 1 202 -6 189 -6 c 0
 179 -6 167 -2 160 18 c 1
 160 21 l 2
 160 22 160 23 160 24 c 0
 160 78 155 92 155 132 c 0
 155 177 156 214 163 287 c 0
 166 323 170 378 170 429 c 0
 170 451 170 462 162 489 c 0
 162 489 156 512 156 514 c 0
 155 518 154 522 154 525 c 0
292 470 m 0
 308 470 309 466 349 466 c 0
 378 466 407 467 445 473 c 0
 470 477 505 483 523 487 c 0
 533 490 533 491 533 491 c 1
 536 496 540 531 541 545 c 0
 543 585 546 619 561 639 c 1
 523 632 484 627 429 625 c 0
 425 625 423 625 422 625 c 0
 397 625 373 628 354 634 c 0
 345 637 339 640 329 646 c 0
 324 649 315 655 300 664 c 1
 295 673 290 681 290 691 c 0
 290 693 291 712 315 712 c 0
 331 712 359 699 371 693 c 0
 385 691 400 689 420 689 c 0
 429 689 477 690 538 702 c 0
 545 703 633 720 689 720 c 0
 698 720 701 720 716 716 c 1
 718 707 718 706 720 701 c 0
 722 695 724 691 724 685 c 0
 724 662 702 657 673 655 c 0
 644 653 620 649 598 645 c 1
 605 638 609 626 609 609 c 0
 609 607 601 498 601 497 c 1
 661 506 721 511 781 511 c 0
 781 511 799 510 816 509 c 0
 823 508 837 507 840 493 c 0
 842 485 847 482 847 472 c 0
 847 468 846 458 833 452 c 1
 828 443 821 442 817 442 c 0
 817 442 l 0
 817 442 794 444 769 444 c 0
 637 444 453 402 369 402 c 0
 322 402 298 405 280 417 c 0
 273 422 260 433 260 449 c 0
 260 458 266 470 292 470 c 0
EndSplineSet
Validated: 517
EndChar

StartChar: hem
Encoding: 983294 983294 18
Width: 1000
GlyphClass: 1
Flags: HMW
LayerCount: 2
Fore
SplineSet
669 287 m 1
 675 299 l 1
 669 301 l 1
 665 300 l 1
 669 287 l 1
195 270 m 0
 195 285 212 289 222 289 c 0
 229 289 235 287 248 283 c 0
 279 274 320 269 364 266 c 1
 358 279 352 289 337 313 c 0
 283 399 266 419 204 484 c 0
 157 534 147 544 147 557 c 0
 147 565 152 574 163 574 c 0
 164 574 l 0
 172 574 179 570 192 560 c 0
 247 520 301 466 350 399 c 0
 353 395 352 396 398 331 c 0
 406 320 407 318 414 310 c 0
 420 303 425 293 426 290 c 0
 427 287 427 283 428 280 c 0
 428 277 426 275 425 272 c 1
 441 276 451 278 468 282 c 0
 482 285 551 303 552 303 c 0
 564 306 617 319 648 319 c 0
 655 319 669 319 689 299 c 0
 696 292 699 284 699 277 c 0
 699 274 699 272 698 269 c 0
 696 264 696 262 692 250 c 0
 681 219 650 153 572 78 c 1
 602 56 623 40 659 12 c 0
 689 -11 703 -20 717 -28 c 0
 717 -28 744 -45 747 -47 c 0
 755 -51 765 -56 773 -60 c 0
 783 -66 785 -67 816 -91 c 1
 802 -95 l 1
 803 -97 803 -99 803 -101 c 0
 803 -115 792 -124 785 -129 c 0
 780 -130 777 -130 772 -130 c 0
 761 -130 750 -126 742 -118 c 1
 722 -111 706 -103 698 -97 c 0
 675 -81 634 -56 584 -15 c 0
 583 -14 535 24 520 34 c 1
 422 -38 317 -73 204 -73 c 0
 174 -73 154 -71 141 -57 c 0
 137 -53 134 -47 134 -40 c 0
 134 -34 136 -28 140 -24 c 0
 150 -13 166 -13 206 -10 c 0
 273 -6 354 0 457 71 c 1
 428 87 401 103 384 113 c 0
 334 143 317 149 280 162 c 0
 279 162 239 177 229 180 c 0
 213 185 203 193 197 202 c 0
 196 204 193 207 193 212 c 0
 193 217 198 226 209 226 c 0
 215 226 221 223 230 223 c 0
 233 223 238 223 243 223 c 0
 266 223 331 201 332 201 c 0
 366 189 392 177 453 145 c 0
 472 135 493 124 514 113 c 1
 562 156 597 201 622 251 c 1
 549 240 436 203 392 203 c 0
 384 203 376 204 366 205 c 0
 327 210 285 217 259 224 c 0
 232 231 219 239 211 248 c 0
 209 250 209 250 202 256 c 0
 198 259 195 264 195 270 c 0
410 419 m 0
 418 419 420 416 425 416 c 0
 433 416 466 423 505 428 c 0
 533 432 548 435 560 437 c 0
 560 439 567 592 584 645 c 1
 519 647 509 647 492 648 c 0
 435 650 400 663 373 683 c 0
 368 686 363 691 363 698 c 0
 363 702 364 704 364 706 c 2
 366 719 l 1
 397 713 414 710 433 706 c 0
 459 700 470 699 482 699 c 0
 483 699 544 700 576 702 c 0
 604 704 651 709 659 714 c 0
 667 719 675 720 684 720 c 0
 691 720 703 720 722 708 c 1
 725 701 729 694 729 685 c 0
 729 669 717 656 701 654 c 0
 692 653 687 655 671 653 c 0
 663 652 649 650 633 649 c 1
 635 640 635 630 635 617 c 0
 635 576 626 486 625 448 c 1
 646 450 701 456 702 456 c 0
 720 458 734 459 747 459 c 0
 756 459 787 458 815 453 c 0
 820 455 824 456 829 456 c 0
 848 456 867 442 867 422 c 0
 867 406 855 385 821 385 c 0
 810 385 802 388 784 390 c 0
 769 392 747 394 725 395 c 1
 702 391 679 388 657 385 c 0
 656 385 522 366 518 365 c 0
 517 365 441 356 432 356 c 0
 423 356 404 357 379 378 c 0
 377 384 377 386 377 391 c 0
 377 397 379 404 383 409 c 1
 375 415 l 1
 393 418 400 418 400 418 c 0
 401 418 400 418 401 418 c 0
 408 419 408 419 410 419 c 0
EndSplineSet
Validated: 1
EndChar

StartChar: hmi
Encoding: 983295 983295 19
Width: 1000
GlyphClass: 1
Flags: HMW
LayerCount: 2
Fore
SplineSet
123 -43 m 1
 136 -30 l 1
 126 -21 l 1
 123 -22 l 1
 117 -39 l 1
 123 -43 l 1
150 -30 m 1
 159 -22 l 1
 150 -14 l 1
 142 -22 l 1
 150 -30 l 1
142 -19 m 1
 158 -7 l 1
 147 3 l 1
 143 3 l 1
 138 -17 l 1
 142 -19 l 1
111 24 m 0
 119 24 126 20 131 17 c 1
 135 22 175 67 201 95 c 0
 220 115 314 212 376 231 c 0
 381 233 385 234 390 234 c 0
 404 234 407 221 407 217 c 0
 407 195 354 147 336 133 c 0
 281 88 254 58 184 -22 c 1
 152 -53 l 1
 149 -50 l 2
 145 -51 141 -52 137 -52 c 0
 131 -52 125 -50 120 -47 c 1
 112 -54 l 1
 107 -28 104 -18 98 -5 c 0
 96 -1 94 3 94 8 c 0
 94 11 96 24 111 24 c 0
763 273 m 1
 700 257 610 233 537 233 c 0
 500 233 485 240 475 245 c 0
 473 246 470 247 468 248 c 0
 462 250 445 259 445 275 c 0
 445 278 446 288 458 292 c 0
 459 292 460 292 461 293 c 0
 465 295 472 297 481 297 c 0
 488 297 495 295 501 292 c 0
 511 291 530 291 530 291 c 0
 531 291 573 295 634 307 c 0
 663 313 697 321 766 338 c 0
 790 344 803 347 812 347 c 0
 834 347 842 325 846 314 c 1
 840 287 830 250 790 200 c 0
 765 169 730 133 692 98 c 1
 738 63 750 54 829 2 c 0
 845 -9 847 -11 860 -18 c 0
 896 -39 899 -41 911 -58 c 1
 907 -66 906 -66 906 -73 c 0
 906 -77 905 -81 903 -85 c 1
 945 -101 l 1
 876 -100 l 2
 868 -100 866 -99 845 -86 c 0
 831 -77 710 -3 643 56 c 1
 608 26 510 -46 395 -46 c 0
 394 -46 348 -45 321 -40 c 0
 304 -37 289 -28 289 -12 c 0
 289 -2 294 8 304 13 c 0
 312 17 320 17 339 17 c 0
 351 17 388 16 388 16 c 0
 412 16 490 16 596 100 c 1
 572 123 545 143 517 161 c 1
 493 166 474 176 464 184 c 0
 462 185 460 187 459 188 c 0
 452 193 444 198 444 209 c 0
 444 210 444 227 464 227 c 0
 468 227 470 227 490 222 c 0
 497 220 505 218 515 216 c 0
 533 212 552 204 606 166 c 0
 620 156 631 148 641 139 c 1
 653 150 729 217 763 273 c 1
171 384 m 0
 187 384 176 374 239 374 c 0
 251 374 403 393 508 406 c 1
 494 417 493 438 493 438 c 0
 493 443 495 453 508 459 c 0
 508 460 509 463 509 466 c 0
 512 489 520 522 525 543 c 0
 530 561 536 592 536 592 c 0
 537 594 537 596 538 598 c 1
 469 581 454 573 421 573 c 0
 421 573 400 573 393 573 c 0
 392 573 375 573 375 573 c 0
 346 573 328 583 307 601 c 0
 302 605 297 612 297 620 c 0
 297 631 306 637 307 639 c 2
 314 651 l 1
 332 640 331 640 331 640 c 0
 344 639 343 631 386 631 c 0
 389.5 631 392.890625 630.984375 396.220703125 630.984375 c 0
 419.53125 630.984375 439.875 631.75 474 644 c 0
 513 658 565 672 602 679 c 0
 623 683 630 685 654 691 c 0
 661 693 695 699 703 699 c 0
 717 699 727 692 734 680 c 2
 736 677 l 1
 736 673 l 0
 736 662 732 637 702 631 c 0
 683 627 676 620 663 620 c 0
 658 620 654 621 650 623 c 0
 627 618 607 614 589 610 c 1
 589 608 l 2
 590 604 592 598 592 589 c 0
 592 565 586 529 578 498 c 0
 576 476 570 430 553 411 c 1
 584 415 605 418 606 418 c 0
 627 421 641 422 657 424 c 0
 677 426 705 429 717 431 c 0
 739 434 755 437 767 438 c 0
 794 441 816 445 835 449 c 0
 841 450 844 451 850 451 c 0
 854 451 860 450 872 445 c 1
 892 425 l 1
 891 425 l 1
 891 425 892 425 897 418 c 1
 890 407 887 402 881 395 c 0
 880 391 878 388 877 386 c 0
 874 382 865 369 840 359 c 0
 837 359 835 358 833 358 c 0
 826 358 813 361 809 376 c 1
 793 373 769 371 745 370 c 0
 692 360 700 365 619 354 c 0
 617 354 357 320 256 320 c 0
 236 320 180 320 159 347 c 0
 155 352 153 358 153 365 c 0
 153 377 163 384 171 384 c 0
EndSplineSet
Validated: 524289
EndChar

StartChar: |gr
Encoding: 983296 983296 20
Width: 1000
GlyphClass: 1
Flags: HMW
LayerCount: 2
Fore
SplineSet
314 624 m 0
 314 637 323 643 330 643 c 0
 335 643 340 641 351 632 c 0
 358 627 382 611 409 611 c 0
 429 611 490 626 523 635 c 1
 560 690 560 690 566 698 c 0
 576 712 592 735 616 743 c 0
 618 744 621 745 624 745 c 0
 625 745 640 744 640 724 c 0
 640 710 635 692 622 669 c 1
 634 673 646 677 659 680 c 1
 662 689 672 699 700 699 c 0
 705 699 723 699 736 693 c 0
 742 690 747 686 749 683 c 0
 750 682 751 681 752 680 c 0
 756 676 759 670 759 664 c 0
 759 656 754 650 752 647 c 0
 747 635 737 633 712 627 c 0
 670 617 657 615 569 586 c 1
 538 533 517 502 470 435 c 0
 460 416 450 396 439 378 c 1
 476 385 521 400 578 422 c 0
 619 437 658 451 690 457 c 0
 698 459 702 460 704 460 c 0
 706 462 711 466 723 466 c 0
 731 466 734 466 757 461 c 1
 756 459 l 1
 766 456 774 448 775 439 c 0
 776 435 777 432 777 428 c 0
 777 405 748 400 726 397 c 0
 697 393 659 380 606 362 c 0
 557 345 458 310 401 310 c 0
 358 310 352 341 352 348 c 0
 352 363 378 406 384 416 c 0
 388 423 392 430 396 437 c 0
 438 509 450 517 482 566 c 1
 431 558 424 557 415 557 c 0
 356 557 314 592 314 624 c 0
207 550 m 0
 207 566 221 573 234 573 c 0
 244 573 267 569 272 534 c 0
 273 530 273 525 273 516 c 0
 273 447 259 347 257 181 c 0
 259 170 260 158 260 147 c 0
 260 139 260 130 258 117 c 0
 257 113 256 109 254 91 c 1
 234 82 225 77 212 77 c 0
 206 77 193 80 191 103 c 0
 191 107 190 113 190 118 c 0
 190 118 l 0
 190 244 198 327 209 421 c 0
 217 490 219 511 219 519 c 0
 219 525 218 529 218 532 c 0
 211 535 207 543 207 550 c 0
349 279 m 0
 371 279 399 270 420 270 c 0
 444 270 500 277 561 296 c 0
 580 302 601 309 619 315 c 0
 644 324 696 342 719 342 c 0
 742 342 745 319 745 307 c 0
 745 300 744 296 742 288 c 1
 713 268 697 256 624 178 c 1
 690 182 700 182 715 182 c 0
 741 182 759 180 774 174 c 0
 796 166 810 152 810 133 c 0
 810 98 757 60 721 36 c 0
 710 28 675 4 661 -6 c 0
 575 -68 484 -114 381 -114 c 0
 348 -114 341 -112 335 -107 c 0
 333 -105 329 -101 329 -94 c 0
 329 -79 347 -67 413 -54 c 0
 484 -40 558 -4 636 53 c 0
 717 112 717 112 729 122 c 1
 723 123 717 123 711 123 c 0
 696 123 600 115 584 115 c 0
 578 115 573 115 569 115 c 0
 540 117 527 136 527 152 c 0
 527 165 537 176 562 203 c 0
 571 213 584 227 599 243 c 1
 564 232 499 215 430 215 c 0
 400 215 381 219 366 224 c 0
 348 231 335 240 330 254 c 0
 329 256 328 259 328 262 c 0
 328 266 330 279 349 279 c 0
EndSplineSet
Validated: 517
EndChar

StartChar: h`mk
Encoding: 983297 983297 21
Width: 1000
GlyphClass: 1
Flags: HMW
LayerCount: 2
Fore
SplineSet
831 13 m 1
 842 -2 l 1
 842 -2 l 1
 850 5 l 1
 839 19 l 1
 838 19 l 1
 831 13 l 1
613 371 m 0
 627 371 643 356 643 339 c 0
 643 325 637 312 615 276 c 0
 582 221 559 184 459 36 c 1
 460 36 462 36 464 36 c 0
 466 36 575 38 643 47 c 0
 662 49 672 51 704 51 c 0
 760 51 763 46 785 46 c 0
 794 46 801 47 807 47 c 0
 807 47 807 47 824 46 c 0
 834 45 845 40 852 30 c 0
 858 22 859 20 859 13 c 0
 859 12 859 12 858 -3 c 1
 853 -3 l 1
 849 -11 839 -21 816 -21 c 0
 809 -21 806 -20 799 -20 c 0
 799 -20 785 -20 784 -20 c 0
 755 -20 751 -15 704 -15 c 0
 679 -15 673 -16 647 -20 c 0
 617 -25 616 -25 580 -26 c 0
 579 -26 503 -29 485 -29 c 0
 471 -29 439 -29 404 -19 c 0
 382 -13 374 3 374 15 c 0
 374 26 380 38 401 67 c 0
 414 86 428 105 442 126 c 1
 395 130 394 130 378 130 c 0
 343 130 219 112 180 112 c 0
 107 112 98 159 98 169 c 0
 98 178 104 185 115 185 c 0
 120 185 131 182 151 172 c 1
 168 172 185 174 224 180 c 0
 227 181 243 183 263 186 c 0
 263 187 263 189 263 191 c 0
 263 206 268 251 281 369 c 1
 242 369 208 374 182 412 c 0
 177 420 174 428 174 436 c 0
 174 440 173 453 189 459 c 2
 202 464 l 1
 206 451 l 2
 208 445 222 434 231 429 c 0
 241 423 252 421 264 421 c 0
 274 421 297 428 328 431 c 0
 342 432 341 432 350 437 c 0
 350 437 366 447 378 447 c 0
 394 447 408 431 408 415 c 0
 408 388 364 376 336 374 c 1
 336 370 336 365 336 360 c 0
 336 356 336 354 336 350 c 1
 395 351 432 377 486 420 c 0
 510 439 578 494 607 523 c 1
 569 546 510 569 474 580 c 0
 451 587 445 590 439 596 c 0
 437 599 433 602 433 608 c 0
 433 610 434 630 468 630 c 0
 515 630 610 591 647 570 c 1
 656 582 671 603 690 632 c 1
 658 627 648 625 637 625 c 0
 608 625 523 628 503 656 c 0
 502 658 500 660 500 665 c 0
 500 667 501 680 518 680 c 0
 519 680 558 677 620 677 c 0
 627 677 633 677 640 677 c 0
 711 691 712 692 722 692 c 0
 747 692 763 677 763 657 c 0
 763 650 761 643 753 626 c 0
 741 602 722 570 700 538 c 1
 737 515 772 494 790 483 c 0
 815 468 826 462 853 442 c 0
 882 421 904 404 904 382 c 0
 904 365 890 357 882 353 c 0
 880 352 861 342 861 342 c 0
 853 338 843 338 838 338 c 0
 825 338 815 347 815 362 c 0
 815 367 815 371 817 376 c 0
 817 377 818 381 820 384 c 0
 813 389 812 389 785 409 c 0
 744 439 705 458 660 488 c 1
 629 452 584 417 528 372 c 0
 470 326 424 293 355 293 c 0
 346 293 340 294 333 296 c 1
 331 276 331 255 327 215 c 0
 326 203 325 195 324 191 c 1
 325 191 385 195 388 195 c 0
 443 195 446 175 446 165 c 0
 446 164 l 0
 446 164 l 0
 446 162 447 160 447 156 c 0
 447 147 441 139 434 135 c 1
 443 127 l 1
 477 176 515 234 570 321 c 0
 579 336 585 344 588 349 c 0
 591 354 592 355 593 358 c 0
 596 365 603 371 613 371 c 0
EndSplineSet
Validated: 517
EndChar

StartChar: hp
Encoding: 983298 983298 22
Width: 1000
GlyphClass: 1
Flags: HMW
LayerCount: 2
Fore
SplineSet
234 624 m 0
 252 624 285 614 347 614 c 0
 383 614 405 617 440 623 c 0
 468 628 524 636 525 636 c 0
 543 639 561 643 569 647 c 0
 577 651 576 653 583 658 c 0
 597 669 618 669 623 669 c 0
 658 669 683 653 683 631 c 0
 683 615 669 595 646 595 c 0
 645 595 643 595 642 595 c 0
 641 595 570 574 523 569 c 1
 526 549 526 515 531 487 c 0
 532 481 532 476 532 473 c 0
 532 463 532 455 532 446 c 0
 532 441 532 422 532 422 c 0
 532 417 532 412 531 409 c 0
 532 405 533 402 533 398 c 0
 533 398 533 390 532 385 c 1
 594 388 634 390 699 390 c 0
 753 390 818 386 877 373 c 0
 893 370 901 368 903 359 c 1
 908 354 911 347 911 339 c 0
 911 330 908 319 900 314 c 0
 893 310 895 310 890 307 c 0
 887 305 884 305 883 305 c 0
 882 305 880 304 878 304 c 0
 875 303 870 303 865 303 c 0
 853 303 848 306 841 310 c 0
 836 313 834 314 809 317 c 0
 775 321 731 323 675 323 c 0
 611 323 545 320 452 313 c 0
 422 311 280 299 206 299 c 0
 179 299 123 301 99 319 c 0
 95 322 89 327 89 335 c 0
 89 352 117 364 139 364 c 0
 139 364 179 363 183 363 c 0
 260 363 440 378 460 380 c 1
 461 393 468 395 469 400 c 0
 466 405 466 412 466 415 c 0
 466 417 l 0
 466 417 466 426 466 428 c 0
 466 439 468 454 468 467 c 0
 468 471 467 474 466 487 c 0
 463 514 463 539 462 562 c 1
 434 557 405 555 377 555 c 0
 353 555 300 556 257 571 c 0
 239 577 226 586 218 595 c 0
 216 598 213 601 213 608 c 0
 213 612 214 624 234 624 c 0
503 431 m 1
 502 430 502 429 502 427 c 1
 514 415 l 1
 516 415 l 1
 518 427 l 1
 503 431 l 1
713 206 m 0
 713 274 716 309 737 309 c 0
 746 309 754 301 761 291 c 0
 774 272 776 250 779 154 c 0
 781 90 782 65 785 11 c 0
 786 -8 787 -18 787 -29 c 0
 787 -30 l 0
 787 -33 789 -37 789 -50 c 0
 789 -55 789 -61 788 -66 c 2
 769 -157 l 1
 765 -94 l 1
 765 -94 765 -94 764 -94 c 0
 762 -94 752 -92 752 -92 c 2
 747 -107 l 1
 732 -85 l 2
 726 -77 724 -66 722 -33 c 1
 714 -32 711 -29 706 -29 c 0
 706 -29 706 -29 705 -29 c 0
 695 -29 684 -30 676 -31 c 0
 674 -31 556 -44 505 -48 c 0
 438 -53 410 -59 382 -67 c 1
 349 -72 317 -74 285 -74 c 0
 268 -74 251 -74 239 -72 c 0
 233 -71 217 -69 217 -55 c 0
 217 -55 l 0
 214 -53 206 -48 206 -36 c 0
 206 -35 206 -34 206 -33 c 0
 206 0 227 50 227 159 c 0
 227 176 226 194 226 209 c 0
 226 229 227 243 228 260 c 0
 229 267 230 280 247 280 c 0
 254 280 261 278 267 273 c 0
 274 267 276 265 284 211 c 0
 287 187 289 162 289 137 c 0
 289 101 286 50 274 -11 c 1
 338 -9 365 -4 387 2 c 0
 432 14 485 22 529 23 c 0
 569 24 598 27 612 29 c 0
 628 31 631 31 634 31 c 0
 634 31 l 0
 672 31 687 37 705 37 c 0
 709 37 712 37 716 37 c 1
 714 101 713 163 713 206 c 0
763 -54 m 1
 764 -48 l 1
 752 -37 l 1
 742 -42 l 1
 741 -48 l 1
 753 -60 l 1
 763 -54 l 1
EndSplineSet
Validated: 1
EndChar

StartChar: hpe
Encoding: 983299 983299 23
Width: 1000
GlyphClass: 1
Flags: HMW
LayerCount: 2
Fore
SplineSet
132 199 m 0
 141 199 149 195 160 187 c 0
 171 179 186 167 198 154 c 0
 220 131 237 97 268 56 c 0
 283 37 292 28 302 19 c 0
 309 12 316 6 323 -1 c 0
 331 -11 339 -22 343 -26 c 0
 349 -33 354 -40 354 -49 c 0
 354 -49 352 -67 346 -74 c 0
 342 -79 335 -83 326 -83 c 0
 323 -83 321 -83 318 -82 c 2
 314 -91 l 1
 294 -69 294 -69 281 -54 c 0
 265 -36 235 -4 235 -3 c 0
 225 8 219 17 206 41 c 0
 203 47 164 118 141 139 c 0
 125 154 113 167 113 179 c 0
 113 182 115 185 117 188 c 2
 113 198 l 1
 132 199 131 199 132 199 c 0
765 -59 m 1
 765 -59 l 1
 783 -59 l 1
 782 -58 l 1
 765 -59 l 1
738 247 m 0
 738 265 750 279 766 279 c 0
 772 279 777 277 783 274 c 1
 788 292 l 1
 804 240 804 241 805 227 c 0
 805 221 805 212 805 204 c 0
 805 179 804 152 804 129 c 0
 804 106 805 83 806 56 c 0
 807 31 807 27 814 -0 c 0
 815 -5 821 -34 821 -55 c 0
 821 -65 820 -75 816 -82 c 0
 811 -92 800 -96 791 -96 c 0
 788 -96 785 -95 775 -93 c 0
 771 -90 769 -88 766 -84 c 1
 758 -101 l 1
 755 -44 755 -43 753 -34 c 0
 752 -29 752 -27 750 -19 c 1
 748 -24 745 -28 742 -33 c 1
 717 -38 682 -45 635 -53 c 0
 621 -58 622 -58 566 -80 c 0
 534 -93 518 -97 501 -97 c 0
 479 -97 451 -90 440 -76 c 0
 430 -63 428 -45 428 39 c 0
 428 40 428 116 428 118 c 0
 428 176 427 200 423 239 c 0
 422 244 422 247 422 250 c 0
 422 251 422 251 422 252 c 0
 422 253 422 254 422 255 c 0
 422 256 422 259 422 260 c 0
 422 260 l 2
 408 273 l 1
 432 276 l 2
 434 278 440 284 453 284 c 0
 470 284 477 270 482 251 c 0
 489 227 494 191 494 135 c 0
 494 112 492 50 492 17 c 0
 492 -8 493 -21 495 -32 c 0
 497 -32 498 -33 500 -33 c 0
 510 -33 522 -29 549 -17 c 0
 550 -17 611 8 616 9 c 0
 648 15 680 21 690 23 c 0
 706 26 716 28 724 28 c 0
 731 28 736 26 741 24 c 1
 741 30 741 37 740 49 c 0
 739 66 738 99 738 131 c 0
 738 157 740 218 740 219 c 0
 740 230 738 247 738 247 c 0
461 271 m 1
 447 271 l 1
 445 266 l 1
 445 263 l 1
 456 256 l 1
 461 257 l 1
 461 271 l 1
333 644 m 1
 371 651 428 659 462 659 c 0
 471 659 482 659 493 659 c 0
 511 659 530 660 538 661 c 0
 538 661 572 664 578 665 c 0
 582 666 586 666 591 666 c 0
 599 666 610 665 621 661 c 0
 628 663 635 663 644 663 c 0
 651 663 685 663 710 649 c 2
 741 632 l 1
 729 629 l 1
 730 627 730 625 730 622 c 0
 730 613 726 606 726 603 c 0
 725 596 721 588 703 586 c 0
 691 585 684 583 678 583 c 0
 671 583 665 586 661 590 c 0
 655 597 652 597 648 597 c 0
 643 597 634 596 622 596 c 0
 610 596 600 598 586 598 c 0
 574 598 548 596 535 594 c 1
 531 549 531 426 531 420 c 0
 531 413 532 407 532 403 c 0
 538 403 544 404 555 404 c 0
 688 404 750 393 812 379 c 0
 824 376 837 373 844 372 c 0
 863 368 875 363 885 356 c 2
 924 326 l 1
 926 326 l 1
 925 325 l 5
 909 318 l 5
 877 303 l 2
 872 301 868 299 862 299 c 0
 850 299 853 303 828 308 c 0
 828 308 828 308 779 319 c 0
 709 334 630 338 554 338 c 0
 517 338 510 332 499 332 c 0
 498 332 419 333 416 333 c 0
 381 333 345 332 307 332 c 0
 224 332 189 334 162 343 c 0
 145 349 137 350 129 356 c 0
 126 359 125 361 124 361 c 0
 116 363 111 372 111 380 c 0
 111 381 112 402 139 402 c 0
 167 402 150 397 230 397 c 0
 284 397 387 399 434 399 c 0
 447 399 457 398 466 398 c 1
 466 416 l 2
 466 527 469 566 473 594 c 1
 418 594 373 582 341 582 c 0
 321 582 313 589 302 597 c 0
 295 603 293 603 288 605 c 0
 283 607 277 609 275 615 c 0
 266 622 267 635 267 635 c 0
 267 639 268 655 294 655 c 0
 308 655 319 651 333 644 c 1
EndSplineSet
Validated: 5
EndChar

StartChar: |htu
Encoding: 983300 983300 24
Width: 1000
GlyphClass: 1
Flags: HMW
LayerCount: 2
Fore
SplineSet
875 -66 m 1
 884 -54 l 1
 873 -42 l 1
 871 -42 l 1
 861 -54 l 1
 873 -66 l 1
 875 -66 l 1
594 279 m 0
 594 291 604 299 615 299 c 0
 623 299 629 296 635 293 c 0
 658 282 664 282 681 271 c 0
 689 266 770 201 775 195 c 0
 797 168 893 44 919 -32 c 0
 921 -37 922 -40 922 -45 c 0
 922 -46 922 -46 922 -47 c 2
 932 -58 l 1
 914 -65 914 -64 914 -64 c 0
 907 -75 905 -80 894 -80 c 0
 890 -80 881 -79 872 -72 c 1
 863 -71 859 -64 851 -44 c 0
 842 -23 837 -11 810 33 c 0
 790 65 760 111 730 156 c 1
 704 182 684 196 682 198 c 2
 650 230 l 1
 621 246 610 253 604 262 c 0
 600 268 601 264 598 268 c 0
 595 272 594 276 594 279 c 0
505 349 m 0
 505 348 505 347 505 346 c 0
 505 337 503 329 495 308 c 0
 488 287 474 251 463 225 c 0
 451 197 439 177 426 159 c 1
 452 147 472 130 504 95 c 0
 504 95 526 71 534 62 c 0
 558 35 l 2
 583 5 594 -19 603 -53 c 1
 595 -54 l 1
 594 -71 582 -79 570 -79 c 0
 569 -79 l 0
 566 -81 563 -82 562 -82 c 0
 561 -81 l 2
 543 -81 532 -51 529 -41 c 0
 524 -27 522 -25 485 18 c 0
 477 27 470 37 462 46 c 0
 439 74 414 103 391 112 c 0
 390 111 389 109 388 107 c 0
 375 87 354 59 337 39 c 0
 312 10 287 -8 254 -22 c 0
 250 -24 192 -48 148 -48 c 0
 136 -48 127 -46 120 -42 c 0
 116 -39 108 -34 108 -25 c 0
 108 -19 112 -15 114 -12 c 0
 122 -2 135 4 158 9 c 0
 184 14 220 28 246 44 c 0
 263 54 272 61 288 80 c 0
 308 103 333 138 335 141 c 0
 366 186 388 216 389 217 c 0
 397 228 400 233 407 250 c 0
 414 268 426 296 427 299 c 0
 439 330 446 350 456 363 c 1
 433 360 410 356 379 356 c 0
 369 356 360 356 351 356 c 0
 319 356 304 353 280 353 c 0
 278 353 277 353 275 353 c 0
 267 353 262 353 262 353 c 0
 257 353 249 354 241 360 c 1
 223 363 205 369 190 383 c 0
 187 386 185 387 182 390 c 0
 180 393 178 396 178 397 c 0
 176 403 176 403 176 405 c 0
 176 416 185 419 191 421 c 0
 201 425 201 426 205 426 c 0
 212 426 217 422 221 419 c 0
 225 417 242 416 249 416 c 0
 253 416 337 422 353 422 c 0
 367 422 381 421 395 420 c 0
 418 424 442 427 465 431 c 1
 467 456 472 555 485 626 c 0
 488 640 490 650 492 658 c 1
 483 656 473 653 460 650 c 0
 432 644 407 642 382 642 c 0
 326 642 297 652 267 678 c 0
 259 685 244 699 244 713 c 0
 244 722 250 731 266 731 c 0
 296 731 313 703 357 703 c 0
 407 703 443 712 485 723 c 0
 538 737 565 741 590 745 c 0
 598 746 603 747 607 747 c 0
 619 747 623 740 626 736 c 0
 627 734 628 733 630 731 c 0
 634 726 636 721 636 715 c 0
 636 701 624 691 624 691 c 0
 616 685 608 683 582 678 c 0
 564 675 550 671 539 669 c 1
 543 661 545 652 545 636 c 0
 545 598 535 508 533 435 c 1
 587 443 616 445 639 445 c 0
 645 445 649 445 655 445 c 0
 679 445 706 447 721 447 c 0
 731 447 736 446 742 445 c 0
 742 445 763 444 788 440 c 0
 795 439 802 438 802 438 c 0
 819 436 829 433 835 424 c 0
 837 421 840 416 840 411 c 0
 840 406 838 402 836 399 c 0
 836 398 835 397 835 396 c 1
 844 394 l 1
 829 385 l 2
 828 384 826 382 825 381 c 1
 835 372 l 1
 795 370 795 370 784 370 c 0
 738 370 748 380 713 380 c 0
 712 380 658 379 653 379 c 0
 652 379 638 379 638 379 c 0
 586 379 543 367 505 367 c 0
 504 367 l 1
 505 364 506 362 506 359 c 0
 506 357 505 354 505 349 c 0
102 543 m 0
 102 566 102 582 123 582 c 0
 154 582 165 537 165 498 c 0
 165 405 145 296 145 217 c 0
 145 196 147 180 147 159 c 0
 147 142 145 96 145 95 c 0
 144 81 145 79 143 74 c 2
 134 57 l 1
 128 65 l 2
 125 63 120 60 113 60 c 0
 108 60 103 61 100 63 c 1
 86 36 l 1
 78 101 78 103 78 156 c 0
 78 307 102 420 102 501 c 0
 102 513 102 535 102 543 c 0
EndSplineSet
Validated: 513
EndChar

StartChar: |hk
Encoding: 983301 983301 25
Width: 1000
GlyphClass: 1
Flags: HMW
LayerCount: 2
Fore
SplineSet
271 -92 m 5
 266 -88 260 -82 260 -68 c 0
 260 -54 267 -42 286 -16 c 0
 338 55 348 72 377 121 c 0
 378 122 444 225 451 237 c 0
 463 256 474 270 488 294 c 0
 497 308 508 327 526 338 c 0
 529 340 533 343 539 343 c 0
 550 343 560 333 560 308 c 0
 560 284 538 243 509 207 c 1
 490 171 468 137 445 104 c 1
 421 61 394 20 366 -19 c 1
 374 -17 384 -15 395 -12 c 0
 444 2 539 18 606 23 c 0
 614 24 623 24 633 25 c 0
 644 26 665 28 687 28 c 0
 726 28 752 24 770 17 c 0
 775 15 786 13 794 10 c 0
 798 9 827 -1 827 -31 c 0
 827 -49 812 -62 797 -62 c 0
 785 -62 782 -56 768 -52 c 0
 733 -42 722 -38 686 -38 c 0
 668 -38 650 -40 639 -41 c 0
 617 -43 605 -43 580 -46 c 0
 461 -59 401 -83 305 -98 c 4
 271 -92 l 5
413 680 m 0
 417 680 419 679 424 677 c 0
 425 677 425 678 427 678 c 0
 435 678 440 674 446 669 c 0
 452 664 454 663 468 663 c 0
 469 663 539 665 609 682 c 0
 632 688 640 688 649 688 c 0
 679 688 686 687 695 680 c 0
 706 671 711 659 715 647 c 1
 709 638 696 622 676 622 c 0
 671 622 664 623 654 623 c 0
 642 623 629 621 618 618 c 1
 618 601 615 589 608 556 c 0
 601 526 595 498 592 464 c 1
 605 466 712 479 777 479 c 0
 809 479 828 477 839 462 c 2
 848 448 l 1
 843 447 l 2
 843 446 844 444 844 443 c 0
 844 430 829 412 808 412 c 0
 808 412 792 413 766 413 c 0
 741 413 716 410 636 402 c 0
 592 397 580 395 569 391 c 0
 559 388 556 387 545 387 c 0
 464 385 434 355 365 355 c 0
 343 355 286 363 265 376 c 1
 259 310 248 238 229 125 c 1
 235 120 241 113 241 79 c 0
 241 41 227 -4 221 -16 c 0
 217 -25 214 -27 203 -33 c 0
 200 -35 197 -36 193 -36 c 0
 181 -36 177 -27 170 -27 c 2
 157 -27 l 1
 157 -8 157 -6 157 3 c 0
 157 20 157 34 157 51 c 0
 157 82 160 115 172 180 c 0
 183 243 200 350 203 474 c 0
 203 477 204 502 204 502 c 0
 204 503 203 515 203 515 c 0
 203 523 206 539 226 539 c 0
 237 539 252 534 260 512 c 0
 263 504 262 504 267 429 c 1
 281 429 329 420 355 420 c 0
 370 420 384 422 415 432 c 0
 441 441 482 449 525 453 c 1
 528 497 536 551 555 604 c 1
 554 604 486 600 472 600 c 0
 448 600 433 604 420 612 c 0
 398 626 391 646 391 654 c 0
 391 659 398 680 413 680 c 0
EndSplineSet
Validated: 513
EndChar

StartChar: hc
Encoding: 983302 983302 26
Width: 1000
GlyphClass: 1
Flags: HMW
LayerCount: 2
Fore
SplineSet
196 183 m 0
 196 193 204 201 215 201 c 0
 230 201 256 184 266 177 c 0
 287 163 390 77 491 8 c 0
 532 -20 542 -24 550 -26 c 1
 552 0 555 98 563 200 c 0
 565 227 567 248 572 292 c 1
 584 309 592 320 604 320 c 0
 609 320 626 318 637 284 c 1
 632 242 626 191 622 103 c 0
 622 101 614 -45 614 -57 c 0
 614 -71 613 -77 602 -83 c 0
 600 -84 599 -84 597 -85 c 0
 592 -89 586 -91 580 -91 c 0
 573 -91 567 -93 557 -93 c 0
 515 -93 480 -67 439 -37 c 0
 388 0 318 55 273 93 c 0
 229 131 196 162 196 183 c 0
109 394 m 0
 109 411 119 422 130 422 c 0
 138 422 143 417 149 417 c 0
 157 416 163 415 174 415 c 0
 176 415 178 416 336 423 c 0
 380 425 410 428 438 433 c 0
 440 437 446 446 459 446 c 0
 460 446 462 446 463 446 c 0
 466 447 468 448 471 449 c 0
 476 482 480 513 482 531 c 0
 487 568 491 594 501 610 c 1
 471 607 443 604 419 604 c 0
 406 604 352 604 329 634 c 0
 323 642 319 652 319 661 c 0
 319 677 328 686 338 686 c 0
 348 686 369 674 384 671 c 0
 390 670 397 669 412 669 c 0
 467 669 628 693 637 693 c 0
 653 693 663 686 671 679 c 1
 672 671 672 671 672 669 c 0
 672 648 663 636 656 625 c 1
 621 624 584 619 547 615 c 1
 551 609 554 601 554 589 c 0
 554 576 550 560 545 515 c 0
 544 501 541 475 537 449 c 1
 575 454 612 458 654 458 c 0
 728 458 837 446 880 426 c 2
 887 423 l 1
 888 407 890 400 890 395 c 0
 890 383 883 375 875 371 c 0
 872 369 870 368 866 366 c 0
 863 365 859 364 856 364 c 0
 850 364 845 366 840 368 c 0
 822 377 731 393 634 393 c 0
 633 393 l 0
 632 393 555 390 508 374 c 0
 499 371 497 370 485 370 c 0
 426 368 429 359 257 354 c 0
 241 354 231 354 224 354 c 0
 222 354 211 354 211 354 c 0
 199 354 184 353 184 353 c 0
 166 353 148 356 134 362 c 0
 119 369 109 379 109 394 c 0
EndSplineSet
Validated: 1
EndChar

StartChar: hci
Encoding: 983303 983303 27
Width: 1000
GlyphClass: 1
Flags: HMW
LayerCount: 2
Fore
SplineSet
166 -68 m 1
 174 -76 l 2
 175 -76 176 -75 177 -75 c 2
 179 -71 l 1
 178 -68 l 1
 166 -68 l 1
419 306 m 2
 438 326 446 333 460 333 c 0
 474 333 485 323 485 307 c 0
 485 285 476 276 442 240 c 0
 347 137 332 113 268 -5 c 0
 222 -90 209 -113 183 -113 c 0
 165 -113 154 -99 151 -88 c 0
 148 -79 141 -65 141 -57 c 0
 141 -48 149 -39 163 -39 c 0
 167 -39 170 -40 174 -41 c 0
 194 -6 211 25 235 69 c 0
 276 143 311 192 364 248 c 0
 419 306 l 2
668 195 m 0
 668 201 l 0
 668 204 668 235 677 327 c 0
 679 349 680 359 684 370 c 0
 687 379 699 406 716 406 c 0
 731 406 739 387 746 360 c 1
 739 299 737 274 734 192 c 0
 731 128 728 53 721 -12 c 0
 714 -83 713 -109 713 -136 c 0
 713 -145 710 -155 693 -159 c 1
 703 -169 l 1
 666 -164 l 2
 616 -157 577 -136 513 -75 c 0
 480 -44 455 -26 437 -14 c 0
 409 4 389 19 378 30 c 0
 368 40 362 48 362 58 c 0
 362 60 362 75 380 75 c 0
 398 75 438 59 475 38 c 0
 554 -7 597 -77 647 -92 c 1
 651 -17 668 101 668 195 c 0
145 428 m 0
 164 428 202 411 235 411 c 0
 272 411 328 437 485 462 c 1
 489 521 493 557 504 579 c 1
 484 577 457 575 437 575 c 0
 406 575 335 579 319 621 c 0
 318 625 315 630 315 636 c 0
 315 638 316 653 335 653 c 0
 357 653 397 639 426 639 c 0
 472 639 593 656 624 656 c 0
 634 656 643 654 656 643 c 0
 661 638 665 631 665 624 c 0
 665 622 665 615 662 608 c 0
 656 594 643 592 601 588 c 0
 587 587 568 585 544 582 c 1
 551 568 554 548 554 529 c 0
 554 522 551 470 551 469 c 1
 594 473 709 477 772 477 c 0
 796 477 835 476 851 473 c 2
 886 466 l 1
 870 458 l 1
 873 453 875 447 875 441 c 0
 875 429 869 422 864 416 c 0
 860 411 854 407 846 407 c 0
 844 407 831 411 764 411 c 0
 708 411 634 407 623 407 c 0
 547 404 495 397 436 386 c 0
 326 365 282 347 237 347 c 0
 199 347 143 361 130 394 c 0
 128 399 126 405 126 411 c 0
 126 413 127 428 145 428 c 0
EndSplineSet
Validated: 1
EndChar

StartChar: kh
Encoding: 983304 983304 28
Width: 1000
GlyphClass: 1
Flags: HMW
LayerCount: 2
Fore
SplineSet
260 248 m 0
 277 248 291 242 323 242 c 0
 357 242 403 251 447 262 c 0
 508 278 548 288 640 302 c 0
 656 304 660 305 673 308 c 0
 674 308 675 309 677 309 c 0
 678 309 686 308 690 301 c 0
 690 301 691 301 692 301 c 0
 703 298 711 288 711 277 c 0
 711 250 698 246 678 239 c 0
 668 236 659 231 651 228 c 0
 646 226 641 225 636 225 c 0
 624 225 624 229 610 229 c 0
 609 229 578 227 542 219 c 1
 546 209 547 200 547 190 c 0
 547 157 538 121 533 40 c 1
 682 38 716 33 794 2 c 0
 801 -1 809 -3 815 -5 c 0
 822 -7 829 -11 836 -15 c 0
 840 -15 851 -16 862 -24 c 0
 865 -23 870 -21 875 -21 c 0
 879 -21 886 -21 898 -38 c 0
 901 -42 903 -47 903 -53 c 0
 903 -56 902 -59 901 -62 c 2
 904 -63 l 1
 891 -83 890 -85 876 -91 c 0
 871 -93 865 -96 858 -96 c 0
 852 -96 846 -95 826 -81 c 0
 818 -80 811 -78 805 -73 c 0
 779 -70 759 -47 692 -36 c 0
 691 -36 638 -27 613 -27 c 0
 613 -27 594 -27 592 -27 c 0
 574 -27 553 -26 528 -26 c 0
 473 -26 419 -36 351 -49 c 0
 348 -50 312 -56 248 -76 c 0
 231 -81 225 -81 211 -84 c 0
 197 -87 186 -88 173 -88 c 0
 173 -88 156 -87 134 -80 c 0
 119 -75 98 -53 98 -40 c 0
 98 -30 107 -20 126 -20 c 0
 134 -20 142 -22 149 -26 c 0
 153 -26 160 -26 160 -26 c 0
 183 -26 187 -20 223 -14 c 0
 239 -11 240 -9 276 -0 c 0
 277 0 316 11 334 15 c 0
 404 31 465 37 466 37 c 0
 466 39 480 172 489 206 c 1
 415 189 384 183 348 183 c 0
 309 183 275 188 255 202 c 0
 249 206 233 218 233 230 c 0
 233 237 239 248 260 248 c 0
536 759 m 0
 539 760 541 760 544 760 c 0
 567 760 592 729 592 702 c 0
 592 672 556 618 512 562 c 0
 465 502 396 424 344 371 c 0
 330 356 319 347 312 339 c 1
 323 339 329 339 356 344 c 0
 403 352 443 360 444 360 c 0
 487 367 524 374 645 385 c 0
 666 387 684 389 697 390 c 0
 722 393 728 393 733 393 c 0
 775 393 788 387 797 375 c 2
 816 351 l 1
 802 353 l 1
 802 352 803 350 803 349 c 0
 803 338 794 332 787 330 c 0
 784 329 783 329 767 325 c 0
 760 320 752 317 744 317 c 0
 733 317 727 321 722 325 c 0
 721 325 721 325 718 325 c 0
 712 325 699 325 669 321 c 0
 634 317 563 313 458 295 c 0
 457 295 358 277 334 272 c 0
 326 272 313 273 295 273 c 0
 288 273 282 273 276 273 c 0
 253 273 253 273 221 280 c 1
 223 281 l 1
 211 286 203 298 203 311 c 0
 203 314 204 334 222 341 c 0
 225 342 226 343 243 361 c 0
 253 372 267 388 293 414 c 0
 351 474 431 563 483 631 c 0
 514 671 525 690 534 708 c 1
 525 728 515 727 515 740 c 0
 515 751 525 759 534 759 c 0
 535 759 535 759 536 759 c 0
EndSplineSet
Validated: 1
EndChar

StartChar: |fp
Encoding: 983305 983305 29
Width: 1000
GlyphClass: 1
Flags: HMW
LayerCount: 2
Fore
SplineSet
746 -94 m 1
 749 -89 l 1
 748 -85 l 1
 738 -79 l 1
 733 -81 l 1
 738 -97 l 1
 740 -97 l 1
 746 -94 l 1
731 298 m 0
 731 315 l 0
 731 339 731 370 755 370 c 0
 761 370 774 368 784 350 c 0
 795 331 796 306 796 268 c 0
 796 173 782 92 782 -17 c 0
 782 -71 788 -71 788 -90 c 0
 788 -116 755 -119 751 -119 c 0
 742 -119 735 -115 731 -108 c 0
 731 -107 730 -107 730 -107 c 0
 723 -103 723 -100 721 -90 c 0
 716 -61 715 -55 715 -5 c 0
 715 -4 l 0
 712 -4 707 -4 707 -4 c 0
 681 -4 656 -5 616 -13 c 0
 549 -26 488 -39 416 -61 c 0
 381 -72 370 -74 359 -74 c 0
 354 -74 339 -73 325 -57 c 0
 321 -53 319 -46 319 -38 c 0
 319 -19 328 24 338 91 c 0
 354 201 355 289 364 314 c 0
 366 318 370 328 381 328 c 0
 387 328 394 325 402 314 c 0
 414 299 415 280 415 243 c 0
 415 144 405 72 389 -2 c 1
 470 24 541 40 599 51 c 0
 643 60 669 62 696 62 c 0
 703 62 710 61 717 61 c 1
 719 101 722 140 724 163 c 0
 730 221 731 260 731 298 c 0
206 63 m 0
 206 63 206 67 206 68 c 0
 206 100 220 261 233 388 c 0
 237 423 236 424 243 473 c 0
 246 493 247 508 247 511 c 0
 248 528 250 540 261 546 c 0
 264 547 267 549 271 549 c 0
 285 549 297 532 299 529 c 0
 306 518 308 504 308 492 c 0
 308 477 307 469 301 411 c 0
 286 274 278 165 274 96 c 1
 280 92 284 85 284 74 c 0
 284 50 271 31 262 19 c 1
 253 21 253 22 253 22 c 0
 253 22 252 21 249 17 c 0
 242 15 241 15 236 15 c 0
 225 15 215 20 213 30 c 0
 211 38 206 36 206 52 c 0
 206 56 206 59 206 63 c 0
469 753 m 0
 516 753 523 677 523 639 c 0
 523 590 512 534 507 431 c 0
 507 424 507 424 506 416 c 1
 532 434 551 450 586 482 c 0
 616 509 638 530 697 581 c 0
 715 597 739 616 759 616 c 0
 772 616 779 607 779 596 c 0
 779 573 754 547 746 539 c 0
 732 525 712 507 689 486 c 0
 596 402 596 402 578 387 c 0
 534 351 505 338 482 329 c 1
 439 336 438 349 438 386 c 0
 438 393 441 448 443 484 c 0
 447 540 457 584 457 646 c 0
 457 692 450 707 450 729 c 0
 450 736 450 753 469 753 c 0
EndSplineSet
Validated: 513
EndChar

StartChar: hce
Encoding: 983306 983306 30
Width: 1000
GlyphClass: 1
Flags: HMW
LayerCount: 2
Fore
SplineSet
429 671 m 0
 506 671 623 688 644 688 c 0
 652 688 694 688 703 685 c 2
 721 679 l 1
 716 673 l 1
 720 669 723 663 723 656 c 0
 723 645 716 633 704 629 c 0
 700 624 694 621 681 621 c 0
 672 621 669 623 655 623 c 0
 643 623 620 621 582 617 c 1
 582 615 583 611 583 608 c 0
 583 592 572 518 570 456 c 1
 602 459 646 459 658 459 c 0
 751 459 815 450 874 434 c 1
 879 430 893 420 893 402 c 0
 893 384 878 367 859 367 c 0
 852 367 847 370 841 372 c 0
 803 387 724 393 659 393 c 0
 648 393 603 393 562 388 c 1
 561 383 556 372 549 367 c 0
 547 366 541 363 528 363 c 0
 521 363 508 364 503 378 c 1
 447 369 322 328 268 328 c 0
 262 328 226 328 172 341 c 0
 170 341 166 341 164 341 c 0
 151 341 130 345 116 366 c 0
 115 367 115 367 115 367 c 0
 114 368 109 373 109 382 c 0
 109 393 118 401 132 401 c 0
 144 401 148 396 162 396 c 0
 185 395 209 390 255 390 c 0
 276 390 292 393 340 406 c 0
 417 428 469 440 504 446 c 1
 504 457 507 554 524 611 c 1
 521 611 474 607 433 607 c 0
 386 607 341 615 309 628 c 0
 286 637 275 647 270 660 c 0
 269 663 268 665 268 669 c 0
 268 669 268 687 287 687 c 0
 287 687 303 686 335 679 c 0
 353 675 389 671 429 671 c 0
679 -51 m 1
 679 -48 679 -47 679 -45 c 0
 679 -44 682 7 686 99 c 0
 690 205 693 267 710 302 c 0
 712 306 717 317 728 317 c 0
 736 317 741 311 744 308 c 0
 754 296 759 279 759 253 c 0
 759 251 753 146 751 93 c 0
 749 37 749 18 746 -26 c 0
 745 -42 744 -51 744 -59 c 0
 744 -63 744 -68 744 -72 c 0
 744 -87 745 -129 707 -129 c 0
 681 -129 647 -110 621 -94 c 0
 577 -67 513 -23 470 14 c 0
 459 23 436 44 436 60 c 0
 436 64 439 76 453 76 c 0
 494 76 626 -24 679 -51 c 1
531 -95 m 0
 531 -111 514 -127 501 -127 c 0
 482 -127 464 -122 453 -116 c 0
 449 -114 445 -113 442 -111 c 0
 422 -102 415 -96 398 -73 c 0
 387 -59 390 -65 374 -41 c 0
 352 -8 330 20 305 48 c 0
 300 53 295 60 289 67 c 0
 267 92 249 111 206 147 c 0
 202 150 200 153 197 155 c 0
 188 162 172 175 172 189 c 0
 172 194 175 200 179 203 c 0
 184 207 190 207 196 207 c 0
 196 207 l 0
 207 207 225 206 288 153 c 0
 296 146 386 69 434 -13 c 1
 454 -28 460 -43 462 -44 c 0
 464 -45 474 -48 486 -56 c 0
 496 -63 500 -63 511 -65 c 1
 528 -81 l 1
 530 -85 531 -89 531 -95 c 0
EndSplineSet
Validated: 37
EndChar

StartChar: hca
Encoding: 983307 983307 31
Width: 1000
GlyphClass: 1
Flags: HMW
LayerCount: 2
Fore
SplineSet
556 -51 m 0
 575 -51 612 -49 613 -49 c 0
 642 -49 655 -52 665 -52 c 0
 666 -52 l 0
 666 -52 l 0
 696 -52 720 -57 757 -59 c 0
 773 -60 776 -60 790 -62 c 0
 801 -63 809 -65 818 -65 c 0
 821 -65 831 -68 846 -73 c 0
 854 -76 862 -80 862 -90 c 0
 862 -91 l 0
 863 -92 l 0
 867 -98 867 -103 867 -107 c 0
 868 -109 870 -112 870 -116 c 0
 870 -125 863 -129 860 -131 c 0
 859 -132 851 -137 851 -137 c 0
 848 -139 843 -142 837 -142 c 0
 829 -142 823 -137 818 -133 c 0
 812 -130 801 -131 782 -127 c 0
 771 -125 767 -125 761 -125 c 0
 757 -125 752 -125 748 -125 c 0
 732 -125 729 -124 693 -120 c 0
 686 -119 684 -120 683 -120 c 0
 682 -120 l 0
 662 -120 643 -118 623 -115 c 0
 538 -118 538 -119 506 -122 c 0
 505 -122 421 -129 395 -132 c 0
 380 -134 369 -134 315 -142 c 0
 293 -145 287 -146 281 -146 c 0
 254 -146 228 -140 207 -125 c 0
 199 -120 185 -109 185 -97 c 0
 185 -89 190 -78 218 -78 c 0
 236 -78 250 -82 262 -82 c 0
 281 -82 329 -72 396 -65 c 0
 397 -65 483 -57 512 -54 c 0
 535 -52 543 -51 555 -51 c 0
 556 -51 l 0
657 376 m 1
 659 379 664 382 672 382 c 0
 678 382 682 381 685 379 c 0
 685 379 l 0
 693 379 711 370 711 340 c 0
 711 340 711 337 711 336 c 0
 711 331 711 325 711 319 c 0
 711 298 709 258 709 257 c 0
 709 256 l 0
 709 233 708 220 708 199 c 0
 708 198 708 184 708 184 c 0
 708 136 702 88 691 55 c 0
 681 24 667 9 649 -1 c 0
 635 -9 618 -13 602 -13 c 0
 589 -13 577 -10 559 -4 c 0
 480 25 411 82 333 157 c 0
 313 177 309 181 291 194 c 0
 271 209 259 216 259 232 c 0
 259 254 283 255 290 255 c 0
 307 255 322 248 347 229 c 0
 366 214 395 187 407 176 c 0
 462 123 504 94 544 74 c 0
 567 63 584 57 596 54 c 0
 600 53 602 53 602 53 c 0
 602 53 l 0
 613 53 621 57 628 65 c 1
 636 97 643 137 643 180 c 0
 643 184 642 211 642 211 c 0
 642 219 643 218 650 389 c 1
 657 376 l 1
120 418 m 0
 130 418 150 405 171 405 c 0
 206 405 315 423 338 427 c 0
 402 438 441 445 515 452 c 0
 516 455 518 458 521 461 c 0
 533 537 539 570 549 589 c 1
 541 588 535 586 527 585 c 0
 483 578 473 577 442 575 c 0
 427 574 418 574 403 570 c 0
 393 567 387 566 382 566 c 0
 352 566 327 585 327 603 c 0
 327 612 333 622 342 625 c 1
 341 627 l 1
 357 627 l 2
 395 627 393 638 444 638 c 0
 447 638 456 639 475 643 c 0
 497 647 649 670 651 670 c 0
 681 675 689 677 695 677 c 0
 697 677 698 676 717 673 c 1
 712 665 l 1
 717 661 720 654 720 647 c 0
 720 643 720 636 714 628 c 0
 714 627 l 0
 714 613 703 611 639 602 c 0
 619 599 602 597 589 595 c 1
 595 580 597 559 597 547 c 0
 597 533 596 520 591 493 c 0
 590 488 587 470 585 458 c 1
 586 458 633 464 645 465 c 0
 675 468 702 469 728 469 c 0
 753 469 831 468 868 454 c 0
 876 451 899 441 899 422 c 0
 899 419 899 416 898 411 c 0
 896 400 895 399 892 394 c 0
 886 385 875 381 867 381 c 0
 857 381 848 386 842 393 c 1
 806 402 746 402 726 402 c 0
 694 402 671 400 601 393 c 0
 565 389 522 385 499 383 c 0
 334 368 337 357 257 348 c 0
 256 348 207 342 182 342 c 0
 148 342 126 353 111 370 c 0
 104 378 100 386 100 395 c 0
 100 408 109 418 120 418 c 0
EndSplineSet
Validated: 5
EndChar

StartChar: hco
Encoding: 983308 983308 32
Width: 1000
GlyphClass: 1
Flags: HMW
LayerCount: 2
Fore
SplineSet
135 432 m 0
 164 432 183 424 202 424 c 0
 224 424 267 433 282 437 c 0
 304 442 313 443 413 452 c 0
 438 454 448 455 456 455 c 1
 456 491 460 526 466 557 c 0
 468 568 469 577 472 585 c 1
 462 584 452 584 441 584 c 0
 427 584 401 584 380 591 c 0
 377 592 305 617 305 656 c 0
 305 657 307 674 307 674 c 1
 330 671 336 671 361 663 c 0
 405 649 421 648 445 648 c 0
 446 648 l 0
 456 648 531 662 633 664 c 0
 656 665 669 665 669 665 c 0
 689 665 699 655 707 647 c 1
 705 623 700 607 652 602 c 0
 619 599 557 597 529 594 c 1
 529 591 530 588 530 585 c 0
 530 562 523 531 521 455 c 1
 530 455 538 455 547 455 c 0
 592 455 608 458 639 458 c 0
 681 458 725 454 832 436 c 0
 839 435 845 433 847 433 c 0
 868 430 879 425 887 416 c 0
 891 411 895 405 895 398 c 0
 895 393 893 386 885 378 c 1
 903 369 l 1
 858 365 858 364 856 364 c 0
 851 364 847 365 838 367 c 0
 819 371 789 376 720 386 c 0
 689 390 669 392 645 392 c 0
 611 392 585 390 541 390 c 0
 536 390 l 0
 492 390 443 389 344 380 c 0
 279 374 255 362 210 362 c 0
 195 362 183 364 169 369 c 0
 125 383 113 394 108 405 c 0
 107 407 106 410 106 414 c 0
 106 431 127 432 135 432 c 0
190 107 m 0
 190 118 197 123 206 123 c 0
 234 123 286 70 338 16 c 0
 351 2 361 -6 369 -13 c 1
 370 28 372 67 375 93 c 0
 380 146 385 236 392 293 c 0
 396 326 400 348 421 348 c 0
 440 348 455 326 455 297 c 0
 455 295 447 169 442 108 c 0
 436 33 434 -52 434 -54 c 0
 432 -85 429 -99 399 -99 c 0
 393 -99 383 -99 373 -95 c 0
 335 -78 302 -41 277 -13 c 0
 277 -13 241 26 236 31 c 0
 218 51 190 87 190 107 c 0
761 322 m 0
 775 322 794 311 794 290 c 0
 794 279 788 270 764 237 c 0
 729 189 672 117 628 67 c 0
 596 31 560 -8 518 -15 c 0
 515 -16 512 -16 509 -16 c 0
 491 -16 488 -2 488 3 c 0
 488 12 489 25 530 61 c 0
 548 76 560 88 588 121 c 0
 626 166 679 233 710 275 c 0
 725 296 724 295 756 345 c 1
 757 322 l 1
 758 322 760 322 761 322 c 0
EndSplineSet
Validated: 1
EndChar

StartChar: hc`v
Encoding: 983309 983309 33
Width: 1000
GlyphClass: 1
Flags: HMW
LayerCount: 2
Fore
SplineSet
446 325 m 0
 446 339 445 353 445 353 c 0
 445 362 448 364 449 371 c 0
 450 376 453 390 471 390 c 0
 494 390 509 363 509 316 c 0
 509 309 509 272 501 182 c 0
 499 158 498 134 497 124 c 0
 495 95 493 77 489 45 c 0
 489 44 481 -38 480 -58 c 0
 479 -75 475 -125 431 -125 c 0
 391 -125 344 -86 316 -62 c 0
 301 -49 276 -28 266 -19 c 0
 244 0 231 15 231 33 c 0
 231 42 237 55 254 55 c 0
 274 55 289 43 346 -3 c 0
 381 -31 399 -44 415 -53 c 1
 415 -52 420 27 424 58 c 0
 426 71 428 86 431 128 c 0
 432 145 439 212 444 291 c 0
 445 314 446 319 446 325 c 0
557 362 m 0
 560 362 566 362 573 362 c 0
 588 362 603 366 613 371 c 0
 614 371 695 408 701 410 c 0
 703 411 705 412 708 412 c 0
 711 412 713 411 722 406 c 1
 742 397 l 6
 742 392 l 5
 743 384 744 380 744 372 c 0
 744 351 721 274 718 175 c 1
 748 193 799 251 826 316 c 0
 837 342 844 354 852 367 c 2
 862 377 l 2
 866 379 868 381 873 381 c 0
 876 381 893 379 893 355 c 0
 893 304 852 199 771 134 c 0
 755 121 746 116 733 111 c 0
 730 110 724 108 722 107 c 0
 714 103 698 100 696 100 c 0
 687 100 683 103 674 107 c 0
 670 108 667 110 664 112 c 2
 639 125 l 1
 654 126 l 1
 651 134 652 141 652 154 c 0
 652 218 659 270 671 328 c 1
 665 326 628 313 628 313 c 0
 608 306 594 303 581 303 c 0
 542 303 524 320 524 333 c 0
 523 335 522 338 522 341 c 0
 522 346 524 350 527 353 c 0
 527 353 l 1
 527 353 l 0
 532 359 540 362 548 362 c 0
 550 362 550 362 551 362 c 0
 556 362 556 362 557 362 c 0
203 663 m 0
 214 663 241 656 285 656 c 0
 327 656 365 664 400 671 c 0
 402 671 561 704 604 704 c 0
 620 704 627 700 637 694 c 1
 638 685 637 685 637 682 c 0
 637 680 638 653 625 643 c 0
 618 638 598 636 581 629 c 0
 563 622 552 619 543 619 c 0
 538 619 526 620 519 628 c 1
 513 627 508 626 502 625 c 1
 505 618 506 609 506 594 c 0
 506 566 498 495 497 483 c 1
 508 485 508 486 540 493 c 0
 573 500 611 506 641 506 c 0
 649 506 650 506 673 504 c 1
 671 491 672 491 672 491 c 0
 676 487 678 481 678 474 c 0
 678 463 671 452 661 449 c 1
 654 440 645 441 618 425 c 0
 605 417 593 409 576 409 c 0
 571 409 553 409 549 427 c 1
 536 424 416 396 291 360 c 0
 208 336 192 334 175 334 c 0
 166 334 146 335 128 348 c 0
 125 350 107 364 107 378 c 0
 107 390 117 394 130 394 c 0
 137 394 146 394 157 394 c 0
 180 394 197 397 247 413 c 0
 286 426 428 466 430 467 c 0
 445 598 445 598 448 616 c 1
 379 604 330 598 297 598 c 0
 242 598 209 608 193 623 c 0
 187 629 183 636 183 644 c 0
 183 647 184 663 203 663 c 0
EndSplineSet
Validated: 545
EndChar

StartChar: h'st
Encoding: 983310 983310 34
Width: 1000
GlyphClass: 1
Flags: HMW
LayerCount: 2
Fore
SplineSet
189 264 m 0
 196 264 210 263 222 263 c 0
 244 263 265 265 308 277 c 0
 327 282 366 293 384 297 c 0
 403 302 435 310 458 326 c 0
 463 326 464 326 467 326 c 0
 482 326 512 325 512 275 c 0
 512 239 500 204 479 169 c 0
 478 167 429 86 369 12 c 0
 335 -31 323 -48 322 -49 c 0
 294 -77 294 -78 294 -78 c 0
 290 -81 282 -87 271 -87 c 0
 263 -87 252 -82 252 -67 c 0
 252 -36 291 15 312 42 c 0
 314 45 368 114 418 193 c 0
 432 216 439 232 443 247 c 1
 415 237 377 230 334 218 c 0
 290 206 264 202 238 202 c 0
 204 202 160 207 153 234 c 0
 153 236 152 238 152 240 c 0
 152 241 153 264 189 264 c 0
340 -157 m 0
 333 -157 311 -154 311 -123 c 0
 311 -115 318 -107 368 -61 c 0
 425 -8 472 34 545 133 c 0
 623 239 647 283 668 326 c 0
 678 347 686 364 707 364 c 0
 709 364 723 363 727 351 c 0
 731 348 734 344 734 337 c 0
 734 335 733 295 675 204 c 0
 665 189 654 173 642 155 c 1
 654 152 673 144 695 125 c 0
 720 103 776 44 813 -17 c 0
 822 -32 822 -32 824 -37 c 0
 840 -71 846 -70 848 -86 c 4
 850 -108 l 1
 848 -109 846 -116 843 -120 c 0
 843 -121 832 -127 831 -127 c 0
 828 -129 824 -130 820 -130 c 0
 817 -130 814 -130 812 -129 c 2
 801 -125 l 1
 801 -125 783 -100 782 -99 c 0
 770 -80 769 -69 760 -57 c 0
 753 -47 747 -37 715 5 c 0
 696 30 658 80 636 96 c 0
 625 104 619 111 616 117 c 0
 616 117 l 1
 598 93 580 69 563 48 c 0
 504 -26 453 -77 356 -154 c 0
 351 -155 346 -157 340 -157 c 0
501 464 m 1
 509 449 l 1
 514 453 l 1
 501 464 l 1
400 672 m 0
 419 672 441 662 482 662 c 0
 511 662 582 672 614 680 c 0
 614 680 636 686 637 686 c 0
 638 686 639 686 640 686 c 0
 660 686 677 666 677 650 c 0
 677 644 674 637 671 634 c 0
 667 630 664 626 660 622 c 0
 625 615 578 606 577 606 c 0
 577 605 577 603 577 602 c 0
 577 578 567 550 554 461 c 1
 571 462 587 464 599 465 c 0
 640 469 673 471 706 471 c 0
 758 471 787 468 805 464 c 0
 811 463 823 461 824 461 c 0
 839 459 845 456 850 453 c 2
 874 439 l 1
 861 434 l 1
 863 431 862 428 862 425 c 0
 862 419 861 403 844 398 c 0
 842 395 838 392 834 392 c 0
 833 392 832 392 832 392 c 0
 814 392 798 404 706 404 c 0
 596 404 494 388 369 362 c 0
 322 352 303 348 280 348 c 0
 274 348 249 348 222 354 c 0
 162 367 138 411 138 433 c 0
 138 449 147 456 156 456 c 0
 165 456 174 450 191 435 c 0
 207 421 217 412 252 412 c 0
 282 412 326 419 400 435 c 0
 422 440 434 442 487 451 c 1
 489 468 497 547 520 599 c 1
 510 598 499 598 489 598 c 0
 462 598 425 600 398 619 c 0
 386 628 379 638 379 650 c 0
 379 657 381 672 400 672 c 0
EndSplineSet
Validated: 517
EndChar

StartChar: hf
Encoding: 983311 983311 35
Width: 1000
GlyphClass: 1
Flags: HMW
LayerCount: 2
Fore
SplineSet
752 221 m 0
 762 221 770 215 770 203 c 0
 770 188 756 161 737 136 c 0
 721 115 698 92 642 42 c 0
 556 -35 l 2
 535 -54 489 -95 458 -95 c 0
 449 -95 440 -91 434 -85 c 1
 416 -82 413 -66 413 -18 c 0
 413 -5 414 9 417 38 c 0
 417 40 431 170 435 199 c 0
 439 231 440 247 440 264 c 0
 440 278 439 283 437 300 c 0
 435 303 434 306 434 314 c 0
 434 318 434 319 437 330 c 1
 442 331 l 1
 442 337 l 1
 375 323 345 319 296 314 c 0
 266 311 266 311 260 311 c 0
 224 311 206 319 190 335 c 0
 184 341 162 363 162 380 c 0
 162 389 167 398 180 398 c 0
 192 398 203 391 213 385 c 0
 233 372 236 371 245 371 c 0
 247 371 307 375 353 385 c 0
 371 389 404 396 417 398 c 0
 450 404 468 408 484 412 c 1
 488 457 491 510 492 546 c 1
 442 548 403 557 371 579 c 0
 362 585 345 599 345 616 c 0
 345 626 351 636 362 636 c 0
 378 636 418 608 454 606 c 0
 460 606 468 606 471 606 c 0
 476 606 502 607 506 607 c 0
 522 608 572 622 624 628 c 0
 636 630 637 630 640 633 c 0
 653 644 671 651 690 651 c 0
 691 651 692 651 692 651 c 0
 709 651 721 648 735 645 c 1
 741 639 l 2
 743 633 745 626 745 615 c 0
 745 590 737 587 718 581 c 0
 689 572 645 564 616 561 c 0
 588 558 570 555 554 552 c 0
 554 548 554 544 554 538 c 0
 554 519 553 481 550 427 c 1
 601 438 652 443 704 443 c 0
 705.142857143 443 708.571428571 443.081632653 714.239067055 443.081632653 c 0
 728.408163265 443.081632653 756.571428571 442.571428571 798 439 c 0
 825 437 829 433 837 417 c 0
 839 413 839 410 839 406 c 0
 839 388 824 373 799 373 c 0
 779 373 764 376 714 376 c 0
 625 376 600 371 498 349 c 0
 486 346 474 343 464 341 c 1
 466 341 467 341 468 340 c 0
 473 340 474 340 474 340 c 0
 500 340 505 285 505 263 c 0
 505 242 503 223 497 171 c 0
 493 139 480 10 480 8 c 0
 479 1 479 -7 479 -16 c 1
 495 -4 495 -4 610 100 c 0
 655 141 680 166 682 168 c 0
 719 207 733 221 752 221 c 0
EndSplineSet
Validated: 524289
EndChar

StartChar: h`fs
Encoding: 983312 983312 36
Width: 1000
GlyphClass: 1
Flags: HMW
LayerCount: 2
Fore
SplineSet
143 49 m 0
 143 61 154 76 172 76 c 0
 176 76 179 75 183 74 c 0
 193 77 194 75 216 84 c 0
 224 87 237 92 262 101 c 0
 272 105 285 109 299 114 c 1
 286 115 276 124 276 137 c 0
 276 141 277 148 280 157 c 0
 281 160 283 164 290 223 c 0
 290 225 309 372 323 429 c 1
 318 429 283 431 236 440 c 0
 228 442 200 446 200 470 c 0
 200 485 210 497 221 497 c 0
 225 497 228 496 231 494 c 0
 236 496 240 496 245 496 c 0
 263 496 292 492 315 492 c 0
 367 492 400 510 435 510 c 0
 439 510 439 510 475 505 c 1
 462 496 l 1
 467 491 469 485 469 478 c 0
 469 476 469 474 469 473 c 0
 469 472 469 473 469 473 c 2
 469 472 470 470 470 467 c 0
 470 456 463 449 436 437 c 0
 429 434 422 432 416 432 c 0
 405 432 399 437 398 437 c 0
 398 437 398 437 397 437 c 0
 394 437 388 436 379 434 c 0
 379 433 379 431 379 430 c 0
 379 415 369 328 367 310 c 0
 362 265 355 211 351 185 c 0
 348 163 343 140 331 127 c 1
 347 133 363 140 376 145 c 0
 402 156 426 165 426 165 c 0
 428 166 429 166 431 167 c 0
 437 170 442 172 451 172 c 0
 471 172 478 165 481 159 c 0
 484 154 486 147 486 139 c 0
 486 134 485 135 479 106 c 1
 455 103 444 102 396 82 c 0
 370 71 370 70 257 28 c 0
 227 17 217 13 186 13 c 0
 166 13 156 18 151 34 c 0
 147 37 143 43 143 49 c 0
454 285 m 0
 455 285 511 282 535 280 c 0
 536 280 591 286 636 293 c 0
 652 295 669 299 688 301 c 0
 734 307 749 313 772 316 c 2
 772 316 l 2
 779 317 783 317 786 317 c 0
 794 317 816 317 843 302 c 1
 854 291 853 291 853 286 c 0
 853 284 852 281 851 279 c 0
 856 271 856 265 856 262 c 0
 856 250 851 238 838 210 c 0
 826 184 802 140 789 115 c 0
 760 62 737 31 701 -3 c 0
 682 -21 655 -46 641 -58 c 0
 589 -104 544 -130 508 -142 c 0
 496 -146 487 -148 479 -148 c 0
 462 -148 446 -136 446 -122 c 0
 446 -106 460 -99 485 -86 c 0
 543 -56 548 -54 644 33 c 0
 679 65 694 82 716 120 c 0
 717 121 757 192 784 251 c 1
 779 251 776 251 753 247 c 0
 744 245 732 243 718 241 c 0
 652 230 610 221 609 221 c 0
 608 221 556 217 541 217 c 0
 537 217 534 217 531 217 c 0
 521 217 518 217 497 218 c 0
 465 220 450 226 439 232 c 1
 424 246 l 2
 424 246 418 258 417 260 c 0
 416 262 416 264 416 267 c 0
 416 279 426 285 454 285 c 0
540 732 m 0
 540 738 541 753 557 753 c 0
 585 753 608 713 608 654 c 0
 608 654 609 635 609 630 c 0
 609 582 591 440 591 394 c 0
 591 393 591 393 591 392 c 1
 618 405 666 430 721 509 c 0
 733 526 747 544 763 544 c 0
 779 544 783 529 783 516 c 0
 783 497 776 480 759 457 c 0
 697 371 605 319 567 319 c 0
 560 319 550 319 532 333 c 1
 529 344 525 354 525 381 c 0
 525 446 546 610 546 675 c 0
 546 676 l 0
 546 694 540 713 540 732 c 0
EndSplineSet
Validated: 517
EndChar

StartChar: hf`la
Encoding: 983313 983313 37
Width: 1000
GlyphClass: 1
Flags: HMW
LayerCount: 2
Fore
SplineSet
810 81 m 0
 810 96 821 112 842 112 c 0
 854 112 865 107 875 99 c 0
 878 97 888 88 896 78 c 0
 898 76 897 77 901 74 c 0
 910 68 918 55 918 45 c 0
 918 33 905 13 868 13 c 0
 859 13 826 14 826 14 c 0
 813 14 804 13 799 13 c 2
 799 13 l 2
 799 13 785 13 781 12 c 0
 770 10 759 6 746 6 c 0
 740 6 735 7 730 8 c 0
 715 2 707 2 703 2 c 0
 698 2 691 3 691 3 c 0
 686 3 664 0 658 0 c 0
 645 0 636 6 625 14 c 0
 617 20 610 27 610 37 c 0
 610 38 l 0
 608 41 608 43 608 47 c 0
 608 58 618 67 635 67 c 0
 635 67 l 0
 643 67 651 66 659 64 c 0
 687 70 687 70 698 71 c 0
 712 72 718 74 731 74 c 0
 736 74 742 73 747 72 c 0
 765 77 775 78 786 78 c 0
 795 78 801 79 810 80 c 0
 810 81 l 0
328 340 m 0
 328 356 347 363 357 363 c 0
 369 363 388 357 391 314 c 0
 391 306 392 295 392 285 c 0
 392 248 385 201 385 96 c 0
 385 75 385 50 385 29 c 0
 385 4 385 -23 384 -50 c 1
 423 -40 458 -21 491 10 c 0
 547 63 566 116 594 116 c 0
 595 116 611 116 611 96 c 0
 611 37 522 -75 406 -109 c 0
 387 -115 371 -117 356 -117 c 4
 326 -102 l 5
 318 -92 318 -82 318 -71 c 0
 318 -68 320 116 325 246 c 0
 326 271 327 288 327 303 c 0
 327 313 326 322 326 322 c 0
 326 324 326 330 329 334 c 0
 329 336 328 337 328 340 c 0
704 574 m 0
 704 592 707 610 727 610 c 0
 760 610 765 550 765 507 c 0
 765 464 759 432 754 406 c 1
 779 417 828 431 844 431 c 0
 860 431 887 424 887 380 c 0
 887 380 l 0
 887 378 885 345 878 326 c 0
 867 293 842 251 806 194 c 0
 741 91 709 88 691 88 c 0
 670 88 652 100 652 115 c 0
 652 130 666 136 684 144 c 0
 696 149 696 150 704 159 c 0
 742 201 794 298 801 312 c 0
 814 337 819 350 822 363 c 1
 790 353 768 344 751 334 c 0
 729 321 715 312 701 312 c 0
 696 312 685 313 678 324 c 0
 676 325 671 331 671 342 c 0
 671 349 673 355 677 365 c 0
 680 373 684 385 689 402 c 1
 682 395 671 390 661 390 c 0
 658 390 657 391 651 391 c 0
 647 391 643 391 638 391 c 0
 632 391 625 391 618 391 c 0
 586 391 537 379 479 379 c 0
 470 379 461 378 452 379 c 0
 428 374 211 344 163 344 c 0
 161 344 118 344 101 356 c 0
 101 356 83 370 83 385 c 0
 83 395 89 399 96 404 c 0
 103 409 112 410 120 410 c 0
 130 410 148 409 162 409 c 0
 190 409 220 416 298 424 c 0
 325 427 434 444 435 444 c 0
 436 448 436 450 437 452 c 0
 438 453 439 510 444 587 c 0
 445 600 445 602 445 604 c 0
 445 621 442 628 437 640 c 1
 416 638 396 636 386 634 c 0
 372 632 369 631 366 631 c 0
 324 631 295 645 283 651 c 0
 275 659 265 668 265 680 c 0
 265 690 271 701 300 701 c 0
 308 701 345 693 356 693 c 0
 369 693 373 697 429 703 c 0
 478 708 518 717 557 727 c 0
 564 729 568 730 574 730 c 0
 589 730 603 720 603 697 c 0
 603 690 600 683 595 678 c 1
 600 674 l 1
 571 662 572 662 533 654 c 0
 523 652 511 649 498 646 c 1
 506 623 507 601 507 575 c 0
 507 560 505 469 505 468 c 0
 505 461 504 461 505 446 c 1
 506 446 572 452 597 459 c 0
 606 462 620 465 634 465 c 0
 654 465 662 461 681 450 c 0
 688 446 694 441 697 434 c 1
 702 459 705 490 705 526 c 0
 705 545 704 564 704 574 c 0
EndSplineSet
Validated: 517
EndChar

StartChar: hfi
Encoding: 983314 983314 38
Width: 1000
GlyphClass: 1
Flags: HMW
LayerCount: 2
Fore
SplineSet
194 -91 m 0
 176 -91 158 -77 158 -59 c 0
 158 -57 158 -38 174 -34 c 0
 177 -33 180 -33 180 -33 c 0
 181 -32 195 -14 235 51 c 0
 322 191 368 262 435 328 c 0
 443 336 452 345 468 353 c 1
 490 353 l 1
 492 340 491 339 491 337 c 0
 491 320 477 295 431 235 c 0
 388 179 314 52 260 -29 c 0
 233 -69 219 -91 194 -91 c 0
802 192 m 0
 811 192 829 186 829 165 c 0
 829 149 822 139 786 103 c 0
 768 85 736 52 698 14 c 0
 650 -35 600 -82 571 -82 c 0
 558 -82 545 -75 538 -63 c 0
 532 -53 528 -43 528 15 c 0
 528 23 528 31 531 68 c 0
 536 132 545 226 553 280 c 0
 561 333 566 348 574 358 c 0
 576 361 580 367 589 367 c 0
 598 367 604 360 606 357 c 0
 613 348 616 335 616 308 c 0
 616 254 594 57 594 8 c 0
 594 7 594 6 594 5 c 1
 638 42 749 163 783 185 c 0
 789 189 796 192 802 192 c 0
498 444 m 2
 489 437 l 1
 500 425 l 1
 498 444 l 2
519 430 m 1
 521 429 l 1
 521 429 l 1
 520 436 l 1
 519 430 l 1
630 711 m 0
 650 711 653 716 669 716 c 0
 671 716 704 716 720 697 c 2
 728 688 l 1
 723 684 l 2
 724 681 725 678 725 675 c 0
 725 661 712 645 695 645 c 0
 694 645 692 645 691 645 c 0
 681 640 670 635 658 635 c 0
 655 635 647 635 637 641 c 0
 635 642 637 643 628 644 c 0
 627 644 601 647 571 647 c 0
 565 647 559 646 552 646 c 1
 560 638 566 625 566 608 c 0
 566 608 563 519 549 448 c 1
 555 448 561 449 567 449 c 0
 631 449 695 442 754 432 c 0
 781 427 804 422 819 417 c 0
 830 413 845 407 845 387 c 0
 845 375 836 345 815 345 c 0
 815 345 800 347 791 353 c 0
 780 360 703 381 577 381 c 0
 426 381 305 345 222 345 c 0
 205 345 194 347 185 350 c 0
 178 353 157 362 157 384 c 0
 157 397 165 405 189 408 c 0
 194 409 199 409 204 409 c 0
 205 409 218 409 218 409 c 0
 267 409 399 438 483 443 c 0
 483 444 496 516 503 588 c 0
 505 611 507 628 510 640 c 1
 508 640 505 639 503 639 c 0
 487 636 483 634 467 632 c 0
 458 631 448 629 432 626 c 0
 411 622 349 615 338 615 c 0
 299 615 277 644 277 664 c 0
 277 676 285 686 295 686 c 0
 302 686 306 682 308 678 c 0
 317 676 325 675 333 672 c 1
 345 676 354 678 376 682 c 0
 385 684 397 686 416 691 c 0
 431 695 454 697 493 705 c 0
 514 709 532 712 567 712 c 0
 568 712 619 711 630 711 c 0
EndSplineSet
Validated: 5
EndChar

StartChar: rs
Encoding: 983315 983315 39
Width: 1000
GlyphClass: 1
Flags: HMW
LayerCount: 2
Fore
SplineSet
778 316 m 1
 778 316 l 1
 779 313 l 1
 797 318 l 1
 799 317 l 1
 801 319 l 1
 801 319 l 1
 801 319 l 2
 801 319 l 2
 798 323 l 1
 804 322 l 1
 806 325 l 1
 804 329 l 1
 809 324 l 1
 809 324 l 1
 814 330 l 1
 803 329 l 1
 794 342 l 1
 789 336 l 1
 780 328 l 1
 796 319 l 1
 789 318 778 316 778 316 c 1
355 699 m 0
 356 699 399 693 423 693 c 0
 461 693 507 699 567 708 c 0
 587 711 587 711 635 716 c 0
 654 718 666 720 688 723 c 0
 693 724 736 729 740 729 c 0
 754 729 765 721 772 716 c 0
 774 710 775 706 775 699 c 0
 775 679 760 671 754 668 c 0
 740 661 716 643 701 635 c 0
 683 626 672 620 665 615 c 1
 678 610 692 609 749 604 c 0
 780 601 793 596 804 592 c 0
 809 587 823 575 823 554 c 0
 823 538 808 507 774 484 c 1
 734 444 690 410 628 372 c 0
 579 342 520 311 454 282 c 1
 457 280 459 278 461 278 c 0
 462 278 l 0
 474 278 496 291 531 294 c 1
 556 304 574 312 655 330 c 0
 681 336 688 337 712 343 c 0
 739 350 755 353 771 353 c 0
 788 353 804 353 816 348 c 1
 825 401 l 1
 837 305 837 305 837 292 c 0
 837 274 819 214 753 135 c 0
 729 106 696 69 661 35 c 0
 611 -14 556 -58 491 -103 c 0
 466 -120 434 -143 413 -156 c 0
 392 -169 363 -185 346 -185 c 0
 330 -185 327 -172 327 -167 c 0
 327 -147 356 -125 377 -110 c 0
 381 -107 382 -107 453 -56 c 0
 543 8 604 61 696 167 c 0
 721 196 734 216 747 240 c 0
 748 243 764 270 770 287 c 1
 750 285 732 276 699 271 c 0
 642 262 607 252 568 239 c 0
 555 235 551 233 540 230 c 0
 532 228 524 225 513 221 c 0
 507 218 495 216 482 215 c 0
 476 212 463 209 461 209 c 0
 448 209 440 215 430 222 c 0
 408 238 404 251 404 260 c 1
 395 256 387 254 378 250 c 0
 340 235 230 193 189 193 c 0
 174 193 164 197 164 209 c 0
 164 221 179 233 224 253 c 0
 249 264 290 282 312 290 c 0
 432 336 527 383 608 435 c 0
 659 467 678 484 734 533 c 0
 738 537 741 540 744 543 c 1
 736 544 713 545 697 547 c 0
 654 552 627 562 608 579 c 0
 595 590 589 601 589 613 c 0
 589 628 599 640 607 649 c 1
 578 646 545 639 503 636 c 0
 476 634 450 633 425 633 c 0
 393 633 337 648 337 681 c 0
 337 690 343 699 355 699 c 0
801 319 m 1
 801 319 l 2
 800 319 798 319 796 319 c 1
 797 318 l 1
 801 319 l 1
798 323 m 1
 784 327 l 1
 784 331 l 1
 789 336 l 1
 789 336 l 1
 798 323 l 1
803 329 m 2
 803 329 l 1
 804 329 l 1
 803 329 l 2
EndSplineSet
Validated: 5
EndChar

StartChar: hfa
Encoding: 983316 983316 40
Width: 1000
GlyphClass: 1
Flags: HMW
LayerCount: 2
Fore
SplineSet
286 -53 m 0
 286 -42 298 -32 317 -32 c 0
 321 -32 326 -33 330 -34 c 0
 374 -25 418 -19 462 -9 c 0
 511 2 560 11 609 11 c 0
 702 11 717 4 739 -11 c 0
 742 -17 744 -25 744 -34 c 0
 744 -53 729 -67 715 -67 c 0
 709 -67 709 -66 690 -60 c 0
 677 -56 626 -56 625 -56 c 0
 513 -56 464 -78 366 -91 c 0
 353 -93 346 -93 339 -93 c 0
 305 -93 286 -68 286 -53 c 0
438 304 m 0
 438 306 438 309 438 311 c 0
 438 328 440 354 449 363 c 0
 451 365 455 368 461 368 c 0
 467 368 471 366 475 363 c 0
 493 351 501 329 501 282 c 0
 501 281 500 228 496 180 c 0
 494 153 493 136 492 123 c 1
 499 128 499 128 611 208 c 0
 661 244 678 257 700 277 c 0
 721 296 732 305 745 305 c 0
 756 305 763 299 767 294 c 0
 768 288 769 283 769 276 c 0
 769 251 753 235 698 192 c 0
 650 154 579 104 537 76 c 0
 497 50 484 45 470 45 c 0
 465 45 429 46 426 68 c 0
 425 75 425 77 425 83 c 0
 425 96 438 252 438 304 c 0
219 358 m 0
 142 358 142 394 142 405 c 0
 142 414 148 417 162 424 c 1
 172 417 171 417 175 417 c 0
 185 417 192 415 206 415 c 0
 249 415 319 439 431 453 c 0
 456 456 478 458 499 460 c 1
 500 482 508 572 527 610 c 1
 496 608 457 606 442 605 c 0
 420 607 396 609 384 609 c 0
 362 610 347 611 334 628 c 0
 330 633 328 639 328 646 c 0
 328 650 329 654 331 658 c 1
 318 668 l 1
 343 667 l 2
 344 667 345 667 346 667 c 0
 352 667 344 666 355 666 c 0
 361 666 367 665 375 665 c 0
 375 665 396 666 401 666 c 0
 401 666 426 665 431 665 c 0
 446 665 524 678 570 678 c 0
 588 678 606 677 615 677 c 0
 638 677 656 680 675 686 c 1
 677 686 l 2
 701 685 717 669 717 649 c 0
 717 633 699 620 686 617 c 0
 685 617 647 612 616 612 c 0
 603 612 585 613 569 613 c 0
 568 613 567 613 565 613 c 1
 571 602 575 585 575 566 c 0
 575 555 568 526 565 463 c 1
 612 464 659 466 696 466 c 0
 733 466 819 466 847 444 c 0
 855 438 858 428 858 420 c 0
 858 418 858 404 848 395 c 0
 841 389 833 386 813 380 c 0
 795 374 790 373 783 370 c 0
 777 370 769 371 760 377 c 0
 752 383 748 391 747 400 c 1
 742 400 736 400 727 400 c 0
 720 400 712 400 702 400 c 0
 608 398 l 2
 531 397 470 392 410 383 c 0
 400 381 296 365 295 365 c 0
 283 363 248 358 219 358 c 0
EndSplineSet
Validated: 1
EndChar

StartChar: hf`va
Encoding: 983317 983317 41
Width: 1000
GlyphClass: 1
Flags: HMW
LayerCount: 2
Fore
SplineSet
341 37 m 1
 348 28 l 1
 353 35 l 1
 353 36 l 1
 341 37 l 1
645 109 m 0
 622 109 598 110 598 110 c 2
 596 110 l 1
 592 105 587 92 548 49 c 0
 535 35 507 3 495 -10 c 0
 462 -47 442 -65 421 -78 c 0
 405 -88 379 -100 370 -100 c 0
 367 -100 363 -98 362 -98 c 0
 361 -98 l 0
 358 -98 355 -97 352 -96 c 0
 349 -98 347 -98 345 -98 c 0
 340 -98 338 -97 337 -96 c 0
 320 -87 317 -48 316 -38 c 0
 316 -30 314 -22 314 -6 c 0
 314 14 316 21 317 38 c 0
 317 38 319 71 319 82 c 0
 319 87 319 92 319 96 c 0
 319 113 322 116 325 165 c 0
 327 197 335 225 338 247 c 0
 342 280 342 325 347 338 c 0
 348 342 351 346 355 350 c 1
 343 348 332 346 323 345 c 0
 308 344 262 338 261 338 c 0
 247 337 236 337 232 337 c 0
 227 337 193 337 193 337 c 0
 193 337 192 337 191 337 c 0
 169 337 147 343 129 354 c 0
 122 358 111 364 111 375 c 0
 111 388 122 393 162 396 c 0
 169 396 176 396 182 396 c 0
 195 396 l 0
 216 396 238 397 280 405 c 0
 293 407 326 413 342 415 c 0
 371 419 390 423 406 428 c 0
 406 430 405 431 405 433 c 0
 405 439 407 444 410 448 c 0
 410 450 410 451 410 453 c 0
 410 471 414 501 420 545 c 0
 423 564 426 586 429 609 c 1
 419 608 401 607 382 607 c 0
 364 607 303 609 276 628 c 0
 270 632 258 644 258 660 c 0
 258 673 267 678 279 678 c 0
 299 678 323 666 369 666 c 0
 421 666 514 688 536 688 c 0
 572 670 l 1
 572 666 l 2
 572 649 566 628 540 623 c 0
 526 620 525 619 517 616 c 0
 505 611 497 608 486 607 c 0
 486 604 486 599 486 596 c 0
 486 567 478 524 474 460 c 0
 474 456 473 453 473 450 c 1
 485 453 498 456 515 460 c 0
 589 476 589 476 601 478 c 0
 623 482 625 485 638 485 c 0
 659 485 667 470 667 458 c 0
 667 435 643 421 634 416 c 0
 623 410 623 410 560 378 c 0
 556 377 554 377 551 377 c 0
 545 377 528 379 522 395 c 1
 495 388 470 380 457 376 c 0
 425 365 398 358 375 353 c 1
 379 352 384 349 390 343 c 0
 394 339 403 331 403 284 c 0
 403 252 400 233 396 211 c 0
 387 165 392 163 386 115 c 0
 384 97 383 92 383 76 c 0
 383 53 382 47 378 28 c 0
 380 24 380 21 380 18 c 0
 380 13 379 1 379 -11 c 0
 379 -17 379 -23 380 -29 c 1
 397 -21 400 -19 447 31 c 0
 492 79 512 100 531 116 c 1
 516 120 493 130 481 153 c 2
 478 158 l 1
 487 176 l 1
 500 178 504 179 512 179 c 0
 525 179 544 175 570 175 c 0
 570 175 580 176 581 176 c 0
 595 176 611 175 632 175 c 0
 642 175 658 176 685 176 c 1
 687 177 l 1
 676 184 669 194 669 249 c 0
 669 285 672 280 678 366 c 0
 678 371 682 429 692 498 c 1
 685 496 655 487 607 487 c 0
 553 487 541 495 534 502 c 0
 531 504 527 509 527 517 c 0
 527 535 552 539 589 542 c 0
 645 547 683 559 725 575 c 1
 748 575 l 5
 759 573 l 5
 762 542 762 541 762 540 c 0
 762 533 751 480 742 358 c 0
 742 357 734 264 734 252 c 1
 735 253 773 286 842 360 c 0
 849 362 856 365 864 365 c 0
 869 365 890 363 890 334 c 0
 890 330 890 327 889 321 c 0
 865 293 825 246 782 210 c 0
 761 192 746 182 732 176 c 1
 752 176 775 177 801 177 c 1
 812 176 l 2
 862 176 876 166 883 155 c 2
 891 143 l 1
 884 140 l 2
 885 138 885 135 885 133 c 0
 885 119 873 108 857 108 c 0
 851 108 850 108 850 108 c 0
 841 108 824 111 795 111 c 0
 784 111 771 110 741 110 c 0
 741 110 716 110 715 110 c 0
 688 110 671 109 645 109 c 0
EndSplineSet
Validated: 513
EndChar

StartChar: h'nh
Encoding: 983318 983318 42
Width: 1000
GlyphClass: 1
Flags: HMW
LayerCount: 2
Fore
SplineSet
301 658 m 0
 318 658 338 655 365 655 c 0
 404 655 426 665 495 672 c 0
 513 674 531 676 582 679 c 0
 600 680 600 680 647 684 c 0
 659 685 663 685 667 685 c 0
 669 685 671 685 673 685 c 0
 699 685 707 681 714 666 c 0
 715 664 716 661 716 656 c 0
 716 649 713 642 712 637 c 0
 710 622 694 622 672 620 c 0
 650 618 609 616 565 613 c 1
 567 607 568 602 568 595 c 0
 568 568 554 510 550 453 c 1
 561 453 574 454 591 454 c 0
 637 454 711 453 817 445 c 0
 855 442 868 438 871 410 c 0
 871 409 871 407 871 406 c 0
 871 393 863 388 852 380 c 0
 849 378 845 375 839 375 c 0
 835 375 832 376 830 377 c 0
 829 377 815 379 742 384 c 0
 693 387 644 388 596 388 c 0
 556 388 525 388 468 385 c 0
 448 384 424 382 388 381 c 0
 369 380 322 377 292 374 c 0
 274 372 271 373 268 373 c 0
 267 373 l 0
 228 373 212 367 194 367 c 0
 175 367 121 368 121 405 c 0
 121 410 121 425 144 425 c 0
 155 425 167 422 182 422 c 0
 199 422 204 427 252 432 c 0
 253 432 301 438 327 440 c 0
 345 441 346 442 414 446 c 0
 454 449 465 451 475 453 c 0
 479 454 482 454 485 455 c 0
 485 460 486 495 498 553 c 0
 498 554 508 608 509 610 c 1
 466 606 414 595 378 595 c 0
 343 595 287 599 270 627 c 0
 268 630 266 634 266 640 c 0
 266 657.19047619 287.283446712 658.009070295 298.003131411 658.009070295 c 0
 299.131519274 658.009070295 300.142857143 658 301 658 c 0
493 328 m 0
 493 348 509 349 510 349 c 0
 517 349 517 345 523 344 c 0
 549 339 556 329 606 328 c 0
 609 328 611 328 613 328 c 0
 650 328 707 342 729 342 c 0
 747 342 753 335 759 328 c 1
 760 323 760 321 760 317 c 0
 760 292 739 284 732 281 c 0
 701 269 696 268 687 268 c 0
 680 268 677 269 672 269 c 0
 671 269 671 269 670 269 c 1
 671 265 671 260 671 255 c 0
 671 253 671 263 657 14 c 1
 670 15 679 17 698 17 c 0
 719 17 732 15 770 15 c 0
 777 15 783 15 790 15 c 0
 800 15 833 14 860 -4 c 0
 874 -13 881 -29 881 -46 c 2
 881 -50 l 1
 865 -70 l 1
 859 -72 856 -74 850 -74 c 0
 840 -74 831 -68 827 -60 c 1
 814 -56 804 -52 791 -52 c 0
 789 -52 l 0
 780 -52 774 -51 765 -51 c 0
 765 -51 751 -51 746 -51 c 0
 729 -51 710 -49 697 -49 c 0
 676 -49 671 -53 600 -53 c 0
 592 -53 584 -53 576 -53 c 0
 531 -63 521 -64 507 -64 c 0
 495 -64 483 -63 471 -62 c 0
 464 -64 458 -65 451 -65 c 0
 433 -65 431 -61 406 -59 c 0
 398 -58 381 -57 370 -44 c 0
 366 -39 l 0
 361 -36 359 -30 359 -25 c 0
 359 -21 360 -7 378 -4 c 0
 388 -2 389 -4 415 -2 c 0
 416 -2 416 -2 429 -1 c 0
 432 -1 446 -2 446 -2 c 0
 451 -2 457 -1 470 0 c 0
 481 1 499 1 517 1 c 1
 549 9 572 14 590 14 c 0
 591 14 591 14 592 14 c 1
 592 26 593 39 596 83 c 0
 597 99 600 150 602 175 c 0
 605 229 608 252 612 265 c 1
 568 267 527 277 505 300 c 0
 497 309 493 317 493 328 c 0
140 146 m 0
 140 148 141 150 142 153 c 1
 135 158 l 1
 154 166 l 1
 162 171 l 1
 164 168 l 1
 171 168 175 165 187 160 c 0
 197 155 197 156 200 156 c 2
 200 156 l 2
 211 156 251 162 304 178 c 1
 308 260 310 292 319 317 c 0
 321 323 325 333 336 333 c 0
 345 333 348 329 358 315 c 0
 362 310 371 298 371 272 c 0
 371 245 370 219 369 192 c 1
 385 195 397 195 409 195 c 0
 411 195 424 195 424 195 c 0
 429 195 438 196 438 196 c 0
 445 196 467 194 467 164 c 0
 467 156 465 138 450 132 c 0
 446 131 442 130 435 130 c 0
 429 130 421 131 410 131 c 0
 398 131 388 130 365 126 c 1
 358 47 362 34 356 -55 c 0
 355 -70 353 -85 344 -93 c 1
 341 -102 334 -111 322 -111 c 0
 315 -111 308 -107 302 -103 c 0
 294 -96 291 -94 291 -81 c 0
 291 -79 296 68 299 112 c 1
 267 104 236 100 212 100 c 0
 186 100 162 106 150 124 c 0
 148 126 146 128 145 132 c 0
 142 136 140 140 140 146 c 0
EndSplineSet
Validated: 524833
EndChar

StartChar: hb
Encoding: 983319 983319 43
Width: 1000
GlyphClass: 1
Flags: HMW
LayerCount: 2
Fore
SplineSet
404 -23 m 1
 406 -39 l 1
 410 -40 l 1
 412 -40 l 1
 414 -33 l 1
 404 -23 l 1
616 206 m 1
 551 202 481 197 454 192 c 1
 455 175 455 159 455 142 c 0
 455 133 455 123 453 91 c 0
 452 74 450 40 449 4 c 1
 452 5 452 6 493 23 c 0
 535 41 569 47 605 47 c 0
 609 47 614 47 618 47 c 0
 620 48 623 49 626 49 c 0
 626 62 626 75 626 88 c 0
 626 127 627 167 630 206 c 1
 616 206 l 1
375 338 m 0
 375 361 390 363 394 363 c 0
 404 363 441 356 449 258 c 1
 511 265 573 270 635 272 c 1
 639 344 640 374 655 394 c 0
 658 399 663 405 672 405 c 0
 683 405 688 395 694 384 c 0
 701 370 703 353 703 336 c 0
 703 324 702 292 701 273 c 1
 750 272 802 268 844 256 c 0
 844 256 844 256 872 248 c 0
 883 245 890 241 893 234 c 0
 895 228 897 222 897 216 c 0
 897 205 892 185 868 185 c 0
 840 185 798 206 696 207 c 1
 693 165 691 123 691 81 c 0
 691 80 692 0 702 -46 c 0
 703 -50 704 -53 704 -58 c 0
 704 -79.0540935294 686.269005826 -95.852748457 667.531305914 -95.852748457 c 0
 664.019532242 -95.852748457 660.472397694 -95.2626900706 657 -94 c 1
 654 -105 l 1
 639 -81 l 2
 635 -75 635 -67 633 -44 c 0
 632 -36 631 -26 630 -15 c 1
 626 -16 622 -16 618 -16 c 0
 617 -16 l 0
 583 -16 551 -23 500 -45 c 0
 490 -50 438 -72 421 -72 c 0
 419 -72 409 -72 399 -65 c 0
 394 -63 386 -60 374 -56 c 1
 379 -54 383 -52 387 -50 c 0
 384 -43 382 -33 382 -18 c 0
 382 26 390 114 390 148 c 0
 390 159 390 171 390 182 c 1
 356 177 324 172 308 169 c 0
 277 163 266 162 255 162 c 0
 240 162 207 167 193 169 c 0
 169 173 153 180 141 189 c 0
 132 195 125 203 125 214 c 0
 125 223 131 234 143 234 c 0
 146 234 148 234 150 233 c 0
 179 232 189 223 249 223 c 0
 252 223 254 223 257 223 c 0
 300 232 343 240 386 247 c 1
 384 289 375 319 375 338 c 0
320 692 m 0
 335 692 356 688 398 688 c 0
 422 688 446 689 498 698 c 0
 555 708 642 716 681 716 c 0
 683.545454545 716 685.925619835 716.033057851 688.200601052 716.033057851 c 0
 698.438016529 716.033057851 706.545454545 715.363636364 718 708 c 1
 721 701 724 695 724 686 c 0
 724 679 723 672 719 666 c 0
 712 654 699 652 675 651 c 0
 648 650 604 647 560 641 c 0
 560 637 561 633 561 628 c 0
 561 608 554 511 553 504 c 1
 571 505 590 505 608 505 c 0
 692 505 774 493 844 473 c 0
 868 466 870 465 895 453 c 1
 884 441 l 1
 886 436 888 432 888 428 c 0
 888 423 887 419 883 415 c 0
 882 414 880 412 879 411 c 0
 873 405 863 392 818 392 c 0
 802 392 766 394 766 417 c 0
 766 419 766 421 767 423 c 1
 706 435 662 438 615 438 c 0
 520 438 437 429 341 414 c 0
 269 403 248 399 229 399 c 0
 189 399 122 409 107 437 c 0
 105 441 103 446 103 451 c 0
 103 460 110 470 125 470 c 0
 138 470 172 460 225 460 c 0
 227 460 229 460 231 460 c 0
 386 491 467 496 490 500 c 0
 490 502 490 505 490 507 c 0
 490 515 492 573 503 632 c 1
 478 629 427 626 426 626 c 0
 400 626 374 628 361 629 c 0
 327 632 306 642 295 660 c 0
 293 664 291 667 291 673 c 0
 291 679 294 692 320 692 c 0
EndSplineSet
Validated: 524289
EndChar

StartChar: hd
Encoding: 983320 983320 44
Width: 1000
GlyphClass: 1
Flags: HMW
LayerCount: 2
Fore
SplineSet
336 668 m 0
 345 668 357 668 369 668 c 0
 450 668 550 688 560 689 c 0
 602 691 644 696 659 698 c 0
 669 699 676 700 683 700 c 0
 691 700 718 700 718 672 c 0
 718 644 695 640 676 637 c 0
 649 632 645 630 637 630 c 0
 634 630 631 630 625 630 c 0
 614 630 568 626 551 624 c 1
 554 617 555 610 555 598 c 0
 555 584 553 569 551 527 c 0
 550 507 548 477 546 459 c 0
 545 442 544 433 544 426 c 1
 587 431 630 433 672 434 c 2
 673 434 l 2
 682 434 689 434 696 434 c 0
 756 434 790 429 823 421 c 0
 823 421 855 414 857 413 c 0
 883 406 890 404 896 397 c 0
 901 391 903 383 903 376 c 0
 903 357 891 342 868 342 c 0
 863 342 857 344 848 347 c 0
 827 353 834 350 808 356 c 0
 770 365 733 368 688 368 c 0
 687 368 593 367 538 358 c 1
 536 355 527 340 507 340 c 0
 504 340 496 340 487 351 c 1
 485 351 404 342 321 338 c 0
 320 338 267 334 257 334 c 0
 239 334 214 336 181 340 c 0
 150 344 134 348 121 357 c 0
 116 361 112 363 109 365 c 0
 103 369 96 375 96 384 c 0
 96 393 99 395 115 406 c 1
 117 404 l 1
 120 404 122 405 126 405 c 0
 138 405 149 400 175 400 c 0
 180 401 l 0
 194 401 242 397 252 397 c 0
 263 397 269 399 293 401 c 0
 294 401 344 405 372 407 c 0
 392 409 420 411 435 412 c 0
 455 414 469 415 480 416 c 1
 480 430 480 446 483 476 c 0
 484 486 484 493 488 542 c 0
 491 583 494 594 500 617 c 1
 468 613 403 611 401 611 c 0
 354 611 320 613 302 633 c 0
 299 636 294 640 294 648 c 0
 294 668 325 668 336 668 c 0
239 245 m 0
 245 245 257 245 270 245 c 0
 339 245 372 268 529 287 c 1
 538 304 541 336 551 347 c 0
 555 351 559 352 562 354 c 0
 564 356 568 360 575 360 c 0
 585 360 601 348 601 333 c 0
 601 330 600 318 594 291 c 1
 625 292 638 293 670 293 c 0
 673 293 677 293 680 293 c 0
 724 293 766 298 790 298 c 0
 799 298 800 297 810 292 c 1
 810 289 810 287 810 284 c 1
 814 279 817 273 817 266 c 0
 817 264 817 252 806 243 c 1
 807 241 l 1
 783 230 783 229 755 228 c 0
 710 226.2 692 225.84 681.344 225.84 c 0
 674.24 225.84 670.4 226 664 226 c 0
 664 226 633 226 632 226 c 0
 621 226 601 226 564 223 c 1
 515 141 473 88 427 40 c 0
 387 -2 349 -31 313 -49 c 0
 296 -58 270 -69 251 -69 c 0
 229 -69 228 -53 228 -50 c 0
 228 -42 232 -36 241 -27 c 0
 255 -13 276 1 291 10 c 0
 324 30 347 48 376 79 c 0
 395 99 442 151 483 214 c 1
 446 208 361 192 360 192 c 0
 331 187 313 185 295 185 c 0
 243 185 227 195 219 200 c 0
 209 207 203 215 203 224 c 0
 203 231 208 237 213 240 c 0
 220 244 228 245 239 245 c 0
843 -99 m 1
 846 -104 848 -108 848 -115 c 0
 848 -130 837 -144 815 -144 c 0
 798 -144 791 -136 783 -128 c 0
 769 -113 769 -112 763 -105 c 0
 754 -93 740 -74 726 -54 c 1
 676 8 l 1
 652 34 624 57 597 72 c 0
 582 80 569 86 563 88 c 0
 552 92 549 94 540 96 c 0
 537 97 504 105 504 125 c 0
 504 133 505 135 519 149 c 1
 526 143 l 1
 530 143 534 144 540 144 c 0
 576 144 654 132 731 45 c 0
 778 -8 800 -50 828 -76 c 0
 834 -82 834 -82 844 -97 c 1
 843 -99 l 1
EndSplineSet
Validated: 524293
EndChar

StartChar: hde
Encoding: 983321 983321 45
Width: 1000
GlyphClass: 1
Flags: HMW
LayerCount: 2
Fore
SplineSet
155 218 m 0
 155 228 164 235 174 235 c 0
 177 235 181 234 184 231 c 0
 190 229 196 223 204 215 c 0
 234 185 264 139 300 49 c 0
 326 -16 333 -30 370 -108 c 0
 376 -120 379 -127 379 -135 c 0
 379 -145 371 -150 368 -152 c 0
 366 -153 366 -153 364 -155 c 0
 359 -160 352 -162 346 -162 c 0
 344 -162 343 -161 341 -161 c 2
 337 -168 l 1
 326 -161 l 2
 320 -157 317 -152 310 -138 c 0
 292 -101 277 -57 265 -25 c 0
 217 106 213 112 189 150 c 0
 184 157 171 181 163 196 c 0
 158 205 155 211 155 218 c 0
385 246 m 0
 398 246 437 240 467 240 c 0
 487 240 507 242 527 246 c 1
 557 340 558 363 566 374 c 0
 566 374 573 383 582 383 c 0
 589 383 593 378 595 376 c 0
 604 367 611 352 611 331 c 0
 611 325 611 303 599 262 c 1
 618 265 637 269 663 275 c 0
 679 279 704 283 722 283 c 0
 738 283 748 280 754 268 c 0
 756 264 757 259 757 253 c 0
 757 244 753 238 750 233 c 0
 749 232 749 230 748 229 c 0
 744 221 735 217 721 216 c 0
 699 214 656 204 610 198 c 0
 593 196 583 194 575 192 c 1
 572 186 570 180 567 174 c 1
 571 175 574 174 575 174 c 0
 654 174 811 -32 811 -82 c 0
 811 -93 802 -107 784 -109 c 0
 781 -110 777 -112 771 -112 c 0
 752 -112 736 -95 736 -78 c 0
 736 -75 736 -72 737 -69 c 0
 711 -26 680 13 641 61 c 0
 620 87 615 91 593 107 c 0
 582 115 570 124 552 140 c 0
 551 141 551 140 550 141 c 1
 519 88 480 45 436 17 c 0
 412 2 396 -5 381 -5 c 0
 366 -5 357 5 357 15 c 0
 357 33 383 54 395 63 c 0
 451 105 478 146 498 181 c 1
 495 181 492 181 489 181 c 0
 415 181 390 191 369 203 c 1
 359 213 l 2
 358 219 357 221 357 224 c 0
 357 233 363 241 375 243 c 1
 377 245 l 1
 384 245 383 246 385 246 c 0
482 470 m 1
 482 495 482 495 482 503 c 0
 482 534 483 565 486 587 c 0
 488 602 491 612 495 620 c 1
 488 620 479 620 471 620 c 0
 461 620 453 619 446 619 c 0
 424 619 415 620 404 620 c 0
 402 620 392 620 392 620 c 0
 375 620 360 623 349 627 c 0
 341 630 323 634 323 634 c 0
 292 643 280 670 280 685 c 0
 280 698 289 707 299 707 c 0
 303 707 303 707 311 704 c 0
 321 701 320 702 325 699 c 0
 334 694 337 693 353 690 c 0
 360 689 367 687 372 686 c 0
 380 684 381 683 385 683 c 0
 385 683 406 684 418 684 c 0
 418 684 431 684 433 684 c 0
 466 684 572 688 630 694 c 0
 650 696 707 699 708 699 c 0
 737 699 743 689 751 674 c 1
 745 665 742 664 740 658 c 0
 738 653 736 650 733 647 c 1
 744 636 l 1
 716 633 716 632 710 632 c 0
 710 632 679 630 668 630 c 0
 663 630 657 630 652 630 c 0
 631 626 613 624 541 622 c 1
 545 616 547 609 548 605 c 0
 548 602 548 599 548 594 c 0
 548 593 548 592 548 591 c 0
 548 565 546 508 546 495 c 0
 546 489 546 481 547 472 c 1
 552 472 557 472 562 472 c 0
 585 472 595 469 655 467 c 0
 715 465 758 459 803 451 c 0
 829 446 846 445 868 441 c 0
 873 440 875 439 879 439 c 0
 896 437 909 425 912 406 c 2
 913 402 l 1
 900 373 886 372 865 370 c 0
 850 369 827 363 804 363 c 0
 787 363 762 363 762 386 c 0
 762 388 762 390 762 391 c 1
 717 398 659 401 645 402 c 0
 644 402 575 406 560 406 c 0
 558 406 557 406 555 406 c 0
 544 406 535 406 525 405 c 0
 521 402 515 397 506 397 c 0
 500 397 494 399 486 403 c 0
 485 403 482 403 478 403 c 0
 422 403 352 391 276 391 c 0
 275 391 273 391 272 391 c 0
 270 391 223 391 223 391 c 0
 180 391 135 391 103 411 c 0
 98 414 89 420 89 430 c 0
 89 445 109 455 133 455 c 0
 144 455 169 450 179 450 c 0
 180 450 l 0
 191 450 199 450 240 453 c 0
 268 455 291 455 319 457 c 0
 320 457 384 464 447 468 c 0
 471 469 477 469 482 470 c 1
EndSplineSet
Validated: 1
EndChar

StartChar: hk
Encoding: 983322 983322 46
Width: 1000
GlyphClass: 1
Flags: HMW
LayerCount: 2
Fore
SplineSet
181 -27 m 1
 187 -34 l 2
 190 -34 192 -32 194 -30 c 1
 194 -31 l 1
 197 -31 l 1
 206 -27 l 1
 203 -17 l 1
 192 -18 l 1
 190 -23 l 1
 191 -26 l 2
 193 -28 l 1
 181 -27 l 1
268 -71 m 0
 213 -71 197 -68 189 -65 c 0
 189 -65 189 -65 188 -65 c 0
 184 -65 180 -63 177 -61 c 0
 175 -60 176 -61 161 -52 c 1
 166 -47 l 2
 166 -45 165 -44 165 -44 c 0
 163 -40 163 -36 163 -31 c 0
 163 -21 166 -16 170 -12 c 0
 174 -7 177 -5 184 4 c 0
 192 15 205 32 229 62 c 0
 250 88 293 146 331 208 c 1
 365 281 385 317 403 343 c 0
 406 347 410 354 420 354 c 0
 426 354 434 351 441 333 c 0
 444 325 445 318 445 312 c 0
 445 295 437 279 389 177 c 1
 368 144 320 68 265 3 c 0
 262 0 260 -3 258 -6 c 1
 275 -6 315 -5 379 -2 c 0
 413 -0.5 439 0.5 469 0.5 c 0
 499 0.5 533 -0.5 583 -3 c 0
 584 -3 655 -6 672 -7 c 0
 713 -9 759 -13 786 -15 c 0
 810 -17 815 -18 823 -21 c 2
 848 -32 l 1
 835 -38 l 2
 836 -41 837 -44 837 -48 c 0
 837 -52 837 -56 835 -60 c 0
 835 -61 835 -63 835 -64 c 0
 835 -68 834 -72 827 -77 c 0
 822 -81 815 -82 804 -82 c 0
 783 -82 740 -77 665 -73 c 0
 663 -73 512 -66 481 -66 c 0
 476 -66 438 -66 438 -66 c 0
 434 -66 l 0
 432 -66 303 -71 268 -71 c 0
322 686 m 0
 322 697 329 710 342 710 c 0
 362 710 359 700 436 688 c 0
 438 688 502 690 601 696 c 0
 601 696 648 699 649 699 c 0
 670 699 682 690 689 684 c 0
 691 678 693 674 693 668 c 0
 693 665 692 636 651 634 c 0
 636 633 624 630 609 630 c 0
 609 630 599 630 598 630 c 0
 584 630 556 627 556 627 c 0
 556 610 552 593 549 542 c 0
 547 514 546 481 545 447 c 1
 553 448 560 448 568 448 c 0
 594 448 682 440 683 440 c 0
 684 440 l 0
 693 440 809 440 841 422 c 0
 851 416 858 407 858 396 c 0
 858 394 857 391 857 389 c 1
 888 390 l 1
 843 365 l 2
 832 359 821 358 810 358 c 0
 806 358 804 358 793 359 c 0
 790 362 787 365 784 368 c 0
 751 372 719 374 686 374 c 0
 683 374 679 374 676 374 c 2
 676 373 l 2
 664 374 605 381 567 381 c 0
 521 381 364 352 253 352 c 0
 237 352 222 352 222 352 c 0
 222 352 l 0
 185 352 142 367 142 390 c 0
 142 395 145 411 174 412 c 0
 178 412 182 413 186 413 c 0
 194 413 202 413 211 413 c 0
 268 413 350 420 458 436 c 1
 479 440 l 2
 479 443 480 447 480 453 c 0
 480 455 l 0
 480 468 481 551 494 625 c 1
 492 625 489 625 487 625 c 0
 477 625 467 624 455 624 c 0
 431 624 400 627 369 638 c 0
 349 645 336 654 328 666 c 0
 324 672 322 679 322 686 c 0
194 -30 m 1
 195 -29 l 1
 193 -28 l 1
 194 -30 l 1
EndSplineSet
Validated: 524293
EndChar

StartChar: hki
Encoding: 983323 983323 47
Width: 1000
GlyphClass: 1
Flags: HMW
LayerCount: 2
Fore
SplineSet
380 334 m 1
 410 334 l 1
 413 318 412 319 412 314 c 0
 412 302 410 288 386 248 c 0
 377 233 363 212 353 197 c 0
 335 169 318 149 299 130 c 1
 281 105 244 56 243 55 c 0
 222 27 214 12 195 -32 c 1
 168 -41 167 -41 162 -41 c 0
 152 -41 148 -35 142 -20 c 0
 141 -18 141 -17 141 -15 c 2
 129 -15 l 1
 152 31 152 32 188 83 c 0
 195 90 204 98 211 105 c 0
 228 125 245 145 265 166 c 0
 279 180 293 196 312 220 c 0
 332 246 356 281 371 307 c 0
 379 321 379 323 379 323 c 2
 380 334 l 1
757 -30 m 1
 775 -30 l 1
 778 -23 l 1
 774 -15 l 1
 756 -20 l 1
 755 -24 l 1
 757 -30 l 1
628 360 m 0
 645 360 650 342 650 332 c 0
 650 323 646 314 636 295 c 0
 606 236 564 183 503 108 c 0
 491 93 478 77 466 61 c 0
 453 38 439 16 424 -7 c 1
 445 -5 561 4 613 10 c 0
 669 16 684 16 697 16 c 0
 698 16 773 16 789 10 c 1
 791 18 l 1
 797 9 801 3 803 0 c 0
 805 -1 807 -3 808 -6 c 0
 813 -13 815 -16 815 -23 c 0
 815 -29 814 -30 808 -38 c 0
 800 -48 790 -52 772 -52 c 0
 759 -52 728 -50 694 -50 c 0
 684 -50 675 -50 626 -55 c 0
 624 -55 461 -71 396 -79 c 0
 373 -82 361 -83 352 -83 c 0
 329 -83 326 -68 325 -60 c 0
 324 -51 322 -41 320 -34 c 1
 329 -22 331 -19 342 -5 c 0
 398 63 389 69 433 125 c 0
 434 126 492 198 514 227 c 0
 530 248 545 269 577 317 c 0
 594 342 608 360 628 360 c 0
445 479 m 0
 445 479 445 494 445 495 c 0
 445 508 445 513 449 551 c 0
 449 551 452 586 453 595 c 0
 454 602 456 609 459 614 c 1
 440 613 427 612 426 612 c 0
 402 612 350 613 308 634 c 0
 299 638 286 645 280 661 c 1
 259 654 l 1
 282 685 l 2
 286 690 293 696 302 696 c 0
 317 696 322 687 356 679 c 0
 373 675 393 673 413 673 c 0
 439 673 563 684 600 697 c 0
 602 698 607 699 613 699 c 0
 639 699 651 677 651 667 c 0
 651 655 635 642 626 636 c 0
 615 629 613 631 601 623 c 0
 596 620 586 614 572 614 c 0
 565 614 559 617 554 621 c 1
 541 619 524 618 507 617 c 1
 512 609 514 599 514 587 c 0
 514 585 514 583 514 581 c 0
 514 581 514 562 514 560 c 0
 514 549 509 520 509 468 c 0
 509 467 509 465 509 464 c 0
 509 457 509 452 509 446 c 1
 518 447 527 447 539 447 c 0
 559 447 591 446 626 446 c 0
 653 446 679 447 708 447 c 0
 710 447 827 446 858 438 c 0
 879 433 884 421 889 411 c 1
 880 389 877 383 867 373 c 0
 858 364 847 361 835 361 c 0
 830 361 812 362 807 378 c 1
 779 379 751 381 723 383 c 0
 695 382 666 380 634 380 c 0
 606 380 567 382 529 382 c 0
 529 382 l 0
 525 382 495 381 484 374 c 0
 481 372 472 367 459 367 c 0
 452 367 446 371 441 375 c 1
 392 373 375 372 331 368 c 0
 276 363 238 360 209 360 c 0
 196 360 160 360 133 376 c 0
 121 383 113 393 113 406 c 0
 113 420 121 427 131 427 c 0
 135 427 138 427 140 427 c 0
 140 427 141 427 142 427 c 0
 154 427 169 421 196 421 c 0
 222 421 341 437 403 438 c 0
 423 438 434 440 443 441 c 0
 444 445 445 457 445 479 c 0
EndSplineSet
Validated: 5
EndChar

StartChar: tc
Encoding: 983324 983324 48
Width: 1000
GlyphClass: 1
Flags: HMW
LayerCount: 2
Fore
SplineSet
556 238 m 0
 556 272 553 280 553 298 c 0
 553 303 553 306 554 313 c 0
 555 314 557 316 558 317 c 0
 560 328 563 339 580 339 c 0
 596 339 606 325 612 304 c 0
 617 284 621 254 621 224 c 0
 621 203 619 183 616 156 c 0
 613 125 607 46 607 45 c 0
 604 15 600 -17 595 -50 c 0
 595 -53 596 -56 596 -59 c 0
 596 -73 592 -104 553 -104 c 0
 531 -104 422 -89 318 -0 c 0
 277 35 248 72 215 106 c 0
 192 130 179 144 179 162 c 0
 179 170 184 182 201 182 c 0
 224 182 247 165 312 96 c 0
 335 71 414 -12 531 -34 c 1
 535 -8 540 22 545 82 c 0
 546 98 548 115 550 138 c 0
 555 182 556 214 556 238 c 0
561 769 m 0
 572 769 588 760 588 733 c 0
 588 710 581 662 538 594 c 0
 526 575 510 553 492 530 c 1
 502 527 519 519 541 499 c 0
 573 470 637 409 723 324 c 1
 753 302 784 282 810 272 c 2
 859 254 l 1
 831 251 l 1
 832 248 833 244 833 240 c 0
 833 231 825 208 793 208 c 0
 785 208 766 208 747 226 c 0
 732 240 710 251 681 276 c 0
 646 305 589 365 507 458 c 0
 479 486 480 486 479 487 c 0
 476 492 472 497 470 502 c 1
 418 440 352 371 295 319 c 0
 253 281 227 261 195 261 c 0
 184 261 178 264 174 267 c 0
 170 270 168 276 168 281 c 0
 168 299 188 314 198 320 c 0
 217 332 233 345 264 375 c 0
 295 405 443 550 502 657 c 0
 540 726 536 758 552 767 c 0
 555 769 559 769 561 769 c 0
EndSplineSet
Validated: 1
EndChar

StartChar: tca
Encoding: 983325 983325 49
Width: 1000
GlyphClass: 1
Flags: HMW
LayerCount: 2
Fore
SplineSet
237 347 m 0
 220 347 203 357 203 372 c 0
 203 388 222 399 247 409 c 0
 277 421 304 437 331 460 c 0
 349 475 351 478 392 513 c 0
 461 571 472 581 495 621 c 0
 508 643 526 678 531 688 c 0
 545 714 548 719 557 721 c 0
 560 724 565 728 573 728 c 0
 579 728 580 727 591 721 c 0
 598 717 600 710 600 703 c 0
 600 694 597 686 590 669 c 0
 584 655 556 592 527 553 c 1
 538 549 548 542 560 533 c 0
 592 509 630 482 676 454 c 0
 750 408 751 423 791 399 c 0
 796 375 l 0
 796 373 796 372 796 370 c 0
 796 361 792 354 788 351 c 0
 785 349 785 347 781 344 c 0
 778 342 774 340 770 340 c 0
 764 340 759 342 750 345 c 0
 716 358 674 379 631 407 c 0
 580 441 552 466 521 493 c 0
 499 512 499 512 496 515 c 1
 485 508 437 468 408 443 c 0
 378 417 315 366 258 351 c 0
 250 349 243 347 237 347 c 0
577 249 m 0
 577 251 577 253 577 257 c 0
 577 258 577 299 578 328 c 0
 579 355 581 367 591 376 c 0
 594 379 598 381 604 381 c 0
 607 381 616 381 629 362 c 0
 634 355 640 346 640 270 c 0
 640 218 636 194 631 168 c 0
 629 160 628 150 626 139 c 0
 616 78 598 71 578 71 c 0
 540 71 466 96 378 146 c 0
 365 153 347 163 326 175 c 1
 322 183 318 191 318 201 c 0
 318 208 321 226 353 227 c 2
 356 228 l 1
 383 215 401 205 426 192 c 0
 475 167 517 150 560 139 c 1
 564 160 566 169 569 181 c 0
 573 196 577 222 577 249 c 0
288 -21 m 0
 288 -12 295 -5 304 -5 c 0
 309 -5 307 -6 321 -7 c 0
 353 -8 367 -16 395 -16 c 0
 396 -16 450 -15 523 -10 c 0
 554 -8 594 -5 635 -5 c 0
 636 -5 698 -5 710 -9 c 2
 754 -24 l 1
 732 -29 l 1
 734 -34 734 -39 734 -44 c 0
 734 -51 732 -61 721 -68 c 0
 716 -71 709 -73 699 -73 c 0
 689 -73 663 -71 629 -71 c 0
 567 -71 535 -78 479 -78 c 0
 451 -78 423 -77 403 -76 c 0
 383 -75 370 -72 355 -67 c 0
 347 -65 336 -61 332 -60 c 0
 313 -55 301 -47 294 -37 c 0
 291 -33 288 -28 288 -21 c 0
EndSplineSet
Validated: 1
EndChar

StartChar: hg
Encoding: 983326 983326 50
Width: 1000
GlyphClass: 1
Flags: HMW
LayerCount: 2
Fore
SplineSet
285 212 m 0
 289 212 293 212 302 212 c 0
 345 212 393 217 415 220 c 1
 435 254 455 287 469 308 c 0
 480 324 489 336 503 336 c 0
 518 336 527 319 527 303 c 0
 527 289 521 278 507 254 c 0
 505 251 498 239 492 229 c 1
 513 231 545 235 557 237 c 0
 585 241 591 241 596 241 c 0
 613 241 627 240 644 240 c 0
 648.666666667 240 650.666666667 239.555555556 660.37037037 239.555555556 c 0
 665.222222222 239.555555556 672 239.666666667 682 240 c 0
 689 242 695 244 702 244 c 0
 708 244 732 242 732 213 c 0
 732 183 716 180 708 178 c 0
 695 175 677 174 653 174 c 0
 635 174 608 174 581 175 c 1
 538 170 495 165 452 160 c 1
 388 70 341 11 305 -22 c 1
 354 -20 356 -14 432 -5 c 0
 464 -1 594 12 656 12 c 0
 691 12 765 12 785 3 c 0
 792 0 798 -6 798 -17 c 0
 798 -20 798 -23 797 -26 c 1
 809 -24 l 1
 786 -55 786 -56 780 -60 c 0
 778 -61 774 -63 759 -63 c 0
 752 -63 743 -57 742 -56 c 0
 725 -55 702 -53 656 -53 c 0
 641 -53 627 -53 587 -56 c 0
 552 -59 491 -64 399 -77 c 0
 350 -84 350 -84 308 -86 c 0
 303 -86 298 -87 293 -87 c 0
 265 -87 240 -78 222 -62 c 0
 217 -57 212 -51 212 -43 c 0
 212 -41 212 -41 212 -39 c 0
 212 -39 212 -39 212 -36 c 2
 202 -36 l 1
 208 -29 l 1
 205 -28 202 -27 199 -26 c 1
 204 -25 210 -23 214 -22 c 0
 214 -21 216 -16 221 -14 c 0
 259 29 261 10 369 153 c 1
 358 153 336 153 336 153 c 0
 289 153 275 156 263 165 c 0
 256 170 252 171 248 174 c 0
 245 176 240 180 240 188 c 0
 240 203 260 212 285 212 c 0
406 651 m 0
 464 651 571 672 584 672 c 0
 585 672 586 672 586 672 c 0
 590 674 598 679 612 682 c 0
 614 682 616 683 617 683 c 0
 644 683 656 663 656 649 c 0
 656 647 655 639 646 634 c 0
 641 632 641 628 633 626 c 0
 633 626 624 612 593 609 c 0
 582 608 581 608 540 601 c 1
 543 591 545 577 545 559 c 0
 545 522 539 480 530 426 c 1
 540 426 564 426 597 428 c 1
 644 422 715 415 768 406 c 0
 784 403 794 401 800 392 c 0
 803 386 805 380 805 372 c 0
 805 366 805 356 790 338 c 0
 784 336 779 333 771 333 c 0
 756 333 757 339 740 343 c 0
 727 346 704 350 671 353 c 0
 651 355 623 358 595 362 c 1
 523 361 510 359 397 342 c 0
 355 336 327 334 299 334 c 0
 294 334 l 2
 293 334 l 0
 230 334 195 374 195 398 c 0
 195 413 207 416 212 416 c 0
 227 416 244 403 267 399 c 0
 277 397 290 396 302 396 c 0
 347 396 456 416 461 423 c 0
 465 429 486 526 488 594 c 1
 423 589 424 589 419 589 c 0
 401 589 383 589 359 602 c 0
 343 610 337 621 333 629 c 0
 332 630 331 632 330 635 c 2
 326 643 l 1
 329 643 l 1
 329 649 330 666 353 666 c 0
 363 666 370 662 377 658 c 0
 386 653 389 651 406 651 c 0
EndSplineSet
Validated: 524289
EndChar

StartChar: hv
Encoding: 983327 983327 51
Width: 1000
GlyphClass: 1
Flags: HMW
LayerCount: 2
Fore
SplineSet
340 657 m 0
 345 657 348 656 360 652 c 2
 360 652 384 643 391 641 c 0
 410 641 429 641 448 641 c 0
 490 641 570 643 648 654 c 0
 657 655 665 656 672 656 c 0
 677 660 683 663 690 663 c 0
 694 663 720 662 725 640 c 0
 726 636 726 632 726 627 c 0
 726 606 712 599 702 596 c 0
 692 593 679 591 665 591 c 0
 664 591 l 0
 664 591 l 0
 662 591 660 591 653 590 c 0
 634 587 612 585 560 582 c 1
 562 575 563 567 563 558 c 0
 563 529 554 472 554 455 c 0
 554 451 554 443 554 443 c 1
 565 444 616 449 617 449 c 0
 655 452 726 458 788 458 c 0
 807 458 820 457 825 457 c 0
 839 456 844 456 858 441 c 0
 864 435 867 427 867 419 c 0
 867 402 857 398 849 396 c 0
 847 395 844 395 843 394 c 0
 841 393 835 391 830 391 c 0
 823 391 811 393 786 393 c 0
 744 393 716 391 624 385 c 0
 543 379 492 369 435 356 c 0
 386 345 373 342 307 331 c 0
 254 322 248 321 228 321 c 0
 190 321 161 330 160 331 c 0
 147 338 147 337 146 338 c 0
 142 341 128 352 128 365 c 0
 128 366 128 379 143 381 c 0
 147 382 151 382 156 382 c 0
 177 382 187 380 204 380 c 0
 227 380 247 384 285 391 c 0
 367 407 367 407 434 423 c 0
 451 427 467 430 481 433 c 1
 480 435 480 438 480 441 c 0
 480 453 486 458 489 466 c 0
 493 477 505 560 511 580 c 1
 471 581 434 582 410 584 c 0
 388 586 364 588 335 611 c 0
 328 616 320 627 320 639 c 0
 320 645 324 657 340 657 c 0
849 125 m 0
 858 125 872 119 872 99 c 0
 872 86 867 75 843 51 c 0
 810 18 753 -27 708 -59 c 0
 689 -73 654 -96 629 -96 c 0
 614 -96 603 -86 597 -72 c 0
 594 -63 592 -59 592 -4 c 0
 592 92 596 130 602 165 c 0
 613 233 613 235 614 253 c 1
 599 250 583 247 559 241 c 0
 544 237 515 232 486 228 c 1
 440 209 441 209 439 209 c 0
 390 202 391 193 351 191 c 0
 330 190 298 189 283 189 c 0
 270 189 262 190 255 194 c 0
 235 205 232 212 232 219 c 0
 232 225 235 230 238 232 c 0
 245 238 252 239 270 242 c 0
 291 245 325 250 359 253 c 1
 380 261 400 267 410 269 c 0
 431 274 438 277 438 277 c 1
 454 285 464 288 486 292 c 0
 523 298 551 307 612 318 c 0
 625 320 628 322 635 324 c 0
 639 325 642 325 645 325 c 0
 648 325 648 325 706 316 c 1
 672 306 l 1
 673 305 673 304 682 297 c 1
 681 247 680 235 667 153 c 0
 659 102 658 53 658 -9 c 0
 658 -11 658 -14 658 -16 c 1
 682 -1 699 10 777 74 c 0
 801 93 812 104 817 109 c 0
 824 115 834 125 849 125 c 0
EndSplineSet
Validated: 5
EndChar

StartChar: hm
Encoding: 983328 983328 52
Width: 1000
GlyphClass: 1
Flags: HMW
LayerCount: 2
Fore
SplineSet
268 666 m 0
 296 666 316 650 379 650 c 0
 382 650 486 652 647 685 c 0
 667 689 667 689 683 694 c 0
 683 694 686 695 688 695 c 0
 713 695 726 676 726 661 c 0
 726 658 726 649 712 639 c 1
 703 630 l 1
 652 615 651 615 636 613 c 0
 620 611 615 610 557 601 c 1
 560 591 560 592 560 590 c 0
 560 583 561 577 561 570 c 0
 561 557 560 543 557 507 c 2
 557 507 550 441 547 410 c 1
 575 414 604 415 633 415 c 0
 653 415 708 414 759 409 c 0
 792 406 816 400 844 393 c 0
 877 384 884 374 888 357 c 1
 885 347 874 317 834 317 c 0
 829 317 794 318 781 340 c 0
 780 340 725 349 629 349 c 0
 592 349 592 348 524 339 c 0
 455 329 455 330 378 316 c 0
 335 308 275 300 244 300 c 0
 203 300 164 310 134 326 c 0
 124 332 115 337 115 348 c 0
 115 352 116 364 133 365 c 0
 134 365 136 366 138 366 c 2
 138 366 l 2
 141 366 148 366 157 366 c 0
 186 366 203 361 225 361 c 0
 274 361 324 371 388 386 c 0
 410 391 445 397 481 401 c 1
 484 434 495 559 505 594 c 1
 472 591 419 587 380 587 c 0
 351 587 291 588 258 626 c 0
 250 635 246 642 246 650 c 0
 246 655 246 656 257 677 c 1
 266 666 l 2
 267 666 267 666 268 666 c 0
351 287 m 0
 381 287 404 270 470 270 c 0
 519 270 555 280 601 292 c 0
 645 304 656 306 661 306 c 0
 676 306 688 299 696 287 c 2
 715 258 l 1
 691 265 l 2
 691 264 l 0
 692 263 692 261 692 258 c 0
 692 246 665 216 665 216 c 0
 651 201 648 197 595 114 c 1
 608 109 649 90 721 45 c 0
 768 16 790 -6 815 -31 c 0
 824 -40 829 -46 833 -51 c 0
 845 -55 854 -63 859 -74 c 0
 865 -78 869 -83 871 -90 c 0
 876 -95 880 -101 880 -109 c 0
 880 -128 858 -139 848 -139 c 0
 833 -139 814 -125 810 -121 c 0
 799 -109 794 -106 783 -95 c 0
 781 -93 779 -90 776 -87 c 0
 736 -45 717 -26 612 32 c 0
 591 44 575 52 553 63 c 1
 547 59 548 58 501 21 c 0
 375 -79 282 -83 240 -83 c 0
 226 -83 185 -82 148 -63 c 0
 138 -58 128 -51 128 -39 c 0
 128 -18 154 -17 175 -17 c 0
 203 -17 211 -20 231 -20 c 0
 270 -20 307 -14 344 0 c 0
 382 19 417 41 452 68 c 0
 455 70 455 70 495 101 c 1
 476 113 457 126 438 139 c 1
 403 156 366 169 360 171 c 0
 320 183 303 189 303 205 c 0
 303 208 304 223 330 223 c 0
 356 223 408 211 452 192 c 0
 473 183 487 175 504 165 c 0
 514 159 526 152 537 145 c 1
 547 160 559 182 583 219 c 1
 552 212 521 208 490 208 c 0
 404 208 330 235 330 268 c 0
 330 272 331 287 351 287 c 0
EndSplineSet
Validated: 5
EndChar

StartChar: hom
Encoding: 983329 983329 53
Width: 1000
GlyphClass: 1
Flags: HMW
LayerCount: 2
Fore
SplineSet
203 362 m 0
 212 362 222 362 226 362 c 0
 232 362 237 362 280 370 c 0
 355 384 387 389 418 393 c 1
 415 396 403 407 403 419 c 0
 403 429 410 436 417 439 c 1
 428 548 432 581 441 604 c 1
 427 602 409 601 390 601 c 0
 370 601 342 601 319 622 c 0
 307 633 300 645 300 658 c 0
 300 677 315 677 316 677 c 0
 324 677 361 664 384 664 c 0
 417 664 469 673 551 699 c 1
 563 698 576 697 585 689 c 0
 589 685 592 679 592 673 c 0
 592 665 588 655 573 643 c 0
 571 637 569 635 555 628 c 0
 534 618 527 615 510 615 c 0
 507 615 l 0
 500 615 496 614 491 613 c 1
 494 603 496 591 496 577 c 0
 496 569 496 561 492 525 c 0
 492 524 484 434 482 422 c 0
 481 416 479 407 475 399 c 1
 509 402 546 405 566 405 c 0
 589 405 599 403 607 393 c 0
 613 386 615 378 615 369 c 0
 615 364 615 351 601 342 c 0
 585 332 580 333 575 331 c 0
 572 330 569 329 565 329 c 0
 557 329 549 333 544 339 c 1
 480 331 447 331 370 319 c 0
 346 315 290 306 273 303 c 0
 249 299 239 299 229 299 c 0
 211 299 194 301 180 306 c 0
 163 312 152 324 152 339 c 0
 152 356 165 357 180 359 c 0
 183 359 182 360 186 361 c 0
 191 362 197 362 203 362 c 0
357 255 m 0
 366 255 l 0
 426 255 480 260 541 270 c 0
 556 272 565 274 573 276 c 1
 581 320 669 416 693 441 c 0
 744 495 762 526 780 557 c 0
 780 558 804 598 816 620 c 0
 818 625 824 632 833 632 c 0
 839 632 844 630 853 614 c 0
 856 608 858 601 858 594 c 0
 858 584 855 554 823 503 c 0
 810 482 789 454 742 403 c 0
 730 390 695 351 686 341 c 0
 662 313 645 296 632 283 c 1
 654 278 659 261 659 252 c 0
 659 238 652 228 597 153 c 0
 574 122 563 106 547 90 c 1
 562 82 562 81 631 27 c 0
 663 2 675 -11 686 -23 c 0
 697 -35 708 -47 718 -57 c 0
 732 -71 742 -80 750 -91 c 1
 771 -99 769 -104 790 -113 c 2
 797 -116 l 1
 797 -126 797 -126 798 -129 c 0
 801 -134 802 -140 802 -143 c 0
 802 -149 801 -155 797 -160 c 1
 829 -176 l 1
 771 -173 l 2
 754 -172 739 -166 727 -154 c 1
 712 -149 701 -139 693 -126 c 1
 644 -76 644 -77 638 -70 c 0
 626 -58 618 -48 595 -30 c 0
 584 -21 560 -1 556 2 c 0
 522 31 505 38 488 42 c 1
 467 27 462 24 447 13 c 0
 388 -31 353 -57 285 -72 c 0
 260 -77 232 -81 203 -81 c 0
 172 -81 163 -79 155 -74 c 0
 146 -68 142 -58 142 -49 c 0
 142 -34 152 -22 168 -20 c 0
 172 -20 176 -20 179 -20 c 0
 180 -20 181 -20 182 -20 c 0
 210 -20 283 -15 345 20 c 1
 419 74 l 1
 406 82 355 119 310 142 c 0
 273 161 263 167 263 178 c 0
 263 180 264 193 281 193 c 0
 288 193 302 191 322 188 c 0
 338 185 347 182 361 176 c 0
 414 152 437 129 475 114 c 1
 494 127 512 147 532 175 c 0
 538 183 547 195 556 207 c 1
 526 202 460 193 403 193 c 0
 380 193 353 193 330 205 c 0
 319 211 310 220 310 232 c 0
 310 245 319 255 329 255 c 0
 331 255 332 254 334 254 c 0
 339 254 336 255 357 255 c 0
EndSplineSet
Validated: 1
EndChar

StartChar: hme
Encoding: 983330 983330 54
Width: 1000
GlyphClass: 1
Flags: HMW
LayerCount: 2
Fore
SplineSet
376 -48 m 1
 387 -59 l 2
 388 -59 389 -59 390 -58 c 1
 378 -47 l 1
 376 -48 l 1
118 259 m 0
 118 271 128 277 140 277 c 0
 151 277 162 272 180 261 c 0
 211 242 257 206 299 139 c 0
 308 125 318 109 339 80 c 0
 355 57 404 -15 405 -16 c 0
 423 -42 426 -47 426 -62 c 0
 426 -81 411 -93 397 -93 c 0
 396 -93 393 -93 390 -91 c 0
 376 -88 363 -76 342 -43 c 0
 333 -30 305 14 296 28 c 0
 275 60 262 80 246 110 c 0
 228 144 207 171 178 197 c 0
 173 201 132 237 132 237 c 0
 124 245 118 250 118 259 c 0
408 322 m 0
 408 336 417 347 428 347 c 0
 432 347 436 346 440 344 c 0
 450 340 455 338 465 333 c 0
 467 332 469 330 471 329 c 0
 482 323 488 319 508 319 c 0
 519 319 531 320 541 321 c 0
 546 321 550 322 555 322 c 0
 587 324 602 327 659 343 c 0
 678 348 689 352 693 354 c 0
 700 357 705 357 708 357 c 0
 735 357 750 334 750 307 c 0
 750 276 729 223 707 183 c 0
 695 161 678 134 661 108 c 1
 687 87 716 74 750 45 c 0
 767 31 775 21 817 -33 c 0
 828 -47 830 -50 839 -61 c 0
 848 -72 853 -79 853 -90 c 0
 853 -97 850 -105 845 -111 c 1
 862 -119 l 1
 823 -123 822 -123 822 -123 c 0
 821 -123 821 -123 820 -123 c 0
 814 -124 813 -124 812 -124 c 0
 812 -124 804 -124 798 -118 c 0
 791 -111 791 -111 790 -110 c 0
 765 -74 739 -40 716 -16 c 0
 694 7 675 20 673 21 c 0
 647 37 632 48 620 57 c 1
 605 41 589 26 566 6 c 0
 548 -9 523 -31 509 -42 c 0
 489 -58 477 -63 465 -63 c 0
 450 -63 440 -53 440 -41 c 0
 440 -24 452 -12 504 34 c 0
 532 59 549 74 570 96 c 1
 533 126 495 152 461 171 c 0
 430 188 406 198 398 201 c 0
 384 206 372 210 372 222 c 0
 372 230 378 234 379 235 c 0
 386 240 402 249 417 249 c 0
 423 249 480 246 611 147 c 1
 614 152 639 192 653 218 c 0
 657 225 673 255 682 284 c 1
 615 264 593 259 565 259 c 0
 559 259 553 259 547 259 c 0
 537 257 518 257 517 257 c 0
 499 257 481 260 466 265 c 0
 452 270 446 275 433 285 c 0
 423 293 408 304 408 322 c 0
245 435 m 0
 258 435 279 434 298 434 c 0
 350 434 391 441 392 441 c 0
 436 444 476 448 530 452 c 1
 531 453 l 1
 528 460 527 468 527 481 c 0
 527 511 535 574 549 611 c 1
 518 608 488 606 457 606 c 0
 410 606 377 609 342 641 c 0
 337 649 332 655 332 664 c 0
 332 667 334 682 352 682 c 0
 358 682 366 681 369 679 c 0
 389 668 409 663 431 663 c 0
 449 663 517 670 571 677 c 0
 638 686 641 682 662 685 c 0
 665 685 668 686 671 686 c 0
 678 686 702 685 702 656 c 0
 702 648 701 642 699 637 c 0
 699 636 l 0
 699 631 696 627 694 625 c 0
 686 619 668 621 656 618 c 0
 653 617 651 617 650 617 c 0
 644 617 646 619 624 619 c 0
 616 619 609 619 605 619 c 1
 606 611 605 609 605 604 c 0
 605 590 603 576 600 554 c 0
 597 534 597 534 588 456 c 1
 632 459 682 462 729 462 c 0
 787 462 835 459 856 451 c 0
 861 449 883 440 883 418 c 0
 883 396 861 380 839 380 c 0
 828 380 819 385 812 393 c 1
 804 394 777 395 735 395 c 0
 733 395 626 395 528 387 c 0
 427 379 397 377 386 376 c 0
 354 373 339 372 325 372 c 0
 259 372 236 380 221 390 c 0
 217 393 204 401 204 415 c 0
 204 435 231 435 245 435 c 0
EndSplineSet
Validated: 1
EndChar

StartChar: hr
Encoding: 983331 983331 55
Width: 1000
GlyphClass: 1
Flags: HMW
LayerCount: 2
Fore
SplineSet
306 670 m 0
 307 670 l 0
 307 670 l 0
 315 670 325 673 383 676 c 0
 424 678 433 681 503 685 c 0
 530 686 582 691 583 691 c 0
 592 691 603 691 613 691 c 0
 641 691 672 691 691 686 c 2
 726 676 l 1
 711 670 l 1
 714 665 716 660 716 655 c 0
 716 650 715 644 712 639 c 0
 711 629 699 619 684 619 c 0
 669 619 675 624 649 625 c 0
 639 625 619 626 599 626 c 0
 599 626 l 0
 574 626 552 619 492 618 c 1
 494 611 495 604 495 596 c 0
 495 573 490 463 490 456 c 0
 490 455 490 454 490 453 c 0
 492 453 567 461 667 461 c 0
 725 461 783 458 833 453 c 0
 870 449 882 448 893 440 c 0
 901 434 906 424 906 415 c 0
 906 380 860 372 847 372 c 0
 834 372 824 378 817 388 c 1
 762 393 653 394 638 394 c 0
 542 394 329 367 206 367 c 0
 203.925925926 367 201.813443073 366.994513032 199.667835188 366.994513032 c 0
 172.847736626 366.994513032 140.851851852 367.851851852 114 391 c 0
 104 400 96 410 96 423 c 0
 96 433 102 441 111 442 c 1
 112 443 l 1
 129 440 132 440 146 436 c 0
 154 434 173 431 192 431 c 0
 194 431 287 432 409 446 c 1
 412 452 417 455 423 458 c 1
 432 599 433 599 435 614 c 1
 408 610 380 608 352 608 c 0
 352 608 l 0
 351 608 321 605 287 605 c 0
 254 605 230 610 194 624 c 1
 190 630 187 633 178 641 c 0
 174 644 170 649 170 657 c 0
 170 671 188 679 201 679 c 0
 219 679 253 670 289 670 c 0
 290 670 306 670 306 670 c 0
614 360 m 0
 623 360 625 361 630 361 c 0
 641 361 670 358 670 323 c 0
 670 320 669 314 666 308 c 0
 662 300 656 298 641 286 c 0
 637 283 632 279 626 274 c 0
 608 260 576 239 538 218 c 1
 552 217 562 216 566 216 c 0
 628 212 658 199 684 182 c 1
 691 175 712 157 712 127 c 0
 712 105 700 87 700 87 c 0
 681 63 661 40 644 24 c 0
 630 11 620 3 589 -14 c 0
 550 -36 489 -68 445 -88 c 0
 395 -111 362 -121 313 -131 c 0
 312 -131 252 -142 224 -148 c 1
 218 -147 211 -146 203 -141 c 0
 195 -136 191 -127 191 -118 c 0
 191 -113 192 -108 195 -103 c 0
 202 -88 216 -85 302 -67 c 0
 364 -54 406 -38 460 -9 c 0
 461 -8 548 39 554 42 c 0
 580 56 585 59 596 69 c 0
 597 70 635 106 645 128 c 0
 644 129 643 131 638 134 c 0
 598 161 502 147 450 167 c 0
 432 174 420 185 420 201 c 0
 420 232 463 253 479 261 c 0
 491 266 505 274 520 283 c 1
 445 265 407 256 360 256 c 0
 338 256 326 258 307 264 c 0
 296 268 277 272 277 272 c 1
 262 275 219 284 219 319 c 0
 219 332 231 343 243 343 c 0
 249 343 255 341 258 336 c 0
 266 335 258 334 279 331 c 0
 310 327 332 320 351 320 c 0
 438 320 523 360 592 360 c 0
 601 360 610 360 614 360 c 0
EndSplineSet
Validated: 524293
EndChar

StartChar: hra
Encoding: 983332 983332 56
Width: 1000
GlyphClass: 1
Flags: HMW
LayerCount: 2
Fore
SplineSet
314 649 m 0
 314 667 330 668 331 668 c 0
 332 668 l 0
 344 668 358 657 379 650 c 0
 385 648 389 647 405 647 c 0
 407 647 562 652 612 655 c 0
 642 657 660 657 674 657 c 0
 697 657 740 655 754 628 c 0
 756 625 757 621 757 616 c 0
 757 603 743 585 727 585 c 0
 720 585 724 586 711 588 c 0
 700 590 690 591 672 591 c 0
 637 591 585 586 570 586 c 0
 568 586 565 586 563 586 c 0
 562 570 559 542 552 462 c 1
 553 462 682 464 690 464 c 0
 693 464 798 464 822 452 c 0
 827 449 829 446 833 444 c 0
 840 439 845 431 845 420 c 0
 845 404 836 386 814 386 c 0
 808 386 802 388 796 391 c 0
 755 397 721 397 680 397 c 0
 463 397 400 386 337 375 c 0
 290 366 273 363 247 363 c 0
 221 363 196 366 177 370 c 0
 157 375 142 382 134 394 c 0
 130 400 128 407 128 413 c 0
 128 427 138 436 147 436 c 0
 154 436 179 425 229 425 c 0
 246 425 262 426 305 435 c 0
 350 444 421 455 453 459 c 0
 472 461 481 462 485 464 c 0
 487 470 494 546 502 585 c 1
 468 584 412 583 404 583 c 0
 364 583 314 614 314 649 c 0
410 356 m 0
 419 356 461 355 462 355 c 0
 476 355 489 355 533 363 c 0
 566 369 576 371 609 374 c 0
 626 376 619 377 626 377 c 0
 641 377 659 348 659 337 c 0
 659 314 615 295 580 260 c 1
 628 248 681 254 713 229 c 0
 727 218 734 205 734 190 c 0
 734 175 708 104 613 61 c 0
 601 56 564 39 529 39 c 0
 519 39 503 39 496 51 c 0
 495 53 494 56 494 60 c 0
 494 71 502 78 511 84 c 0
 558 116 612 111 663 184 c 1
 638 192 575 191 535 211 c 0
 516 221 505 235 505 252 c 0
 505 260 508 275 525 297 c 1
 507 294 491 292 470 292 c 0
 442 292 404 296 387 296 c 0
 386 296 386 296 385 296 c 0
 378 296 296 296 284 331 c 0
 283 334 282 337 282 340 c 0
 282 347 286 355 297 356 c 0
 310 357 316 358 325 358 c 0
 342 358 357 356 388 356 c 0
 396 356 403 356 410 356 c 0
257 -65 m 0
 259 -65 259 -65 261 -65 c 0
 262 -65 309 -64 346 -58 c 0
 384 -52 394 -51 450 -48 c 0
 468 -47 487 -46 498 -45 c 0
 525 -43 534 -43 543 -43 c 0
 576 -43 609 -44 641 -47 c 0
 644 -47 651 -47 651 -47 c 2
 715 -47 778 -57 842 -75 c 0
 865 -82 872 -87 872 -111 c 0
 872 -112 872 -114 872 -116 c 1
 884 -117 l 1
 866 -135 l 2
 859 -142 838 -144 838 -144 c 0
 825 -144 820 -136 761 -124 c 0
 713 -114 675 -118 606 -112 c 0
 577 -110 567 -109 563 -109 c 0
 562 -109 516 -109 423 -115 c 0
 369 -118 373 -123 307 -128 c 0
 268 -131 268 -131 264 -131 c 0
 260 -131 260 -131 252 -130 c 0
 243 -132 242 -132 239 -132 c 0
 233 -132 219 -132 188 -110 c 0
 181 -105 168 -97 164 -94 c 0
 154 -88 141 -80 141 -67 c 0
 141 -56 152 -46 173 -46 c 0
 190 -46 205 -54 218 -60 c 0
 221 -62 221 -61 236 -68 c 1
 244 -66 252 -65 257 -65 c 0
EndSplineSet
Validated: 1
EndChar

StartChar: DJE
Encoding: 983333 983333 57
Width: 1000
GlyphClass: 1
Flags: HMW
LayerCount: 2
Fore
SplineSet
413 700 m 0
 413 709 421 715 432 715 c 0
 433 715 435 715 436 715 c 0
 439 715 442 715 442 715 c 0
 462 715 468 686 468 671 c 0
 468 622 460 587 438 484 c 1
 449 488 530 517 531 517 c 0
 541 520 547 521 553 521 c 0
 565 521 569 515 575 506 c 0
 578 501 580 496 580 490 c 0
 580 471 561 460 540 451 c 0
 511 439 464 423 416 409 c 0
 414 405 413 400 411 396 c 1
 435 393 490 385 557 324 c 0
 558 324 560 325 562 325 c 0
 574 325 583 317 589 307 c 0
 591 304 593 299 594 298 c 0
 598 293 602 287 602 279 c 0
 602 260 577 243 565 243 c 0
 556 243 552 246 527 270 c 0
 519 278 510 286 503 293 c 0
 466 326 431 344 391 350 c 1
 374 319 262 120 216 60 c 0
 211 53 185 20 167 12 c 0
 164 10 161 9 156 9 c 0
 144 9 138 19 138 28 c 0
 138 46 161 83 175 106 c 0
 182 117 241 211 308 333 c 0
 324 361 332 379 339 394 c 1
 329 393 315 392 300 392 c 0
 298 392 297 392 295 392 c 0
 291 392 288 392 284 392 c 0
 232 392 215 405 207 414 c 0
 201 421 198 428 198 435 c 0
 198 446 203 454 208 458 c 0
 210 459 211 461 211 462 c 2
 215 476 l 1
 240 464 240 465 244 460 c 0
 245 459 245 458 246 456 c 0
 248 456 252 455 263 455 c 0
 270 455 331 455 366 464 c 1
 375 491 395 584 395 585 c 0
 409 650 407 681 413 698 c 0
 413 699 413 699 413 700 c 0
557 651 m 0
 567 651 714 680 786 680 c 0
 802 680 833 679 849 657 c 2
 862 639 l 1
 860 639 l 1
 861 637 861 635 861 633 c 0
 861 620 853 600 831 504 c 0
 801 372 797 304 783 278 c 0
 772 258 754 258 746 258 c 0
 677 258 606 327 606 356 c 0
 606 366 612 377 627 377 c 0
 643 377 665 364 683 352 c 0
 699 341 714 330 732 325 c 1
 737 345 744 410 770 523 c 0
 777 552 785 584 793 617 c 1
 792 617 l 0
 781 617 761 614 726 614 c 0
 710 613 577 596 576 596 c 0
 567 595 565 594 562 594 c 0
 544 594 521 602 493 618 c 0
 480 625 471 635 471 650 c 0
 471 654 472 658 474 662 c 1
 470 665 l 1
 476 667 l 1
 479 687 l 1
 496 673 l 2
 497 673 l 0
 503 673 508 670 512 667 c 0
 516 664 531 660 543 655 c 0
 552 651 554 651 557 651 c 0
394 124 m 0
 393 124 393 125 378 126 c 1
 383 148 384 148 387 177 c 1
 405 163 405 163 406 163 c 0
 408 163 408 163 410 163 c 0
 423 163 433 159 461 144 c 0
 479 134 516 113 537 101 c 0
 557 89 567 82 579 73 c 0
 583 70 587 67 592 64 c 0
 651 23 697 -72 701 -80 c 0
 705 -89 708 -94 708 -101 c 0
 708 -106 705 -110 704 -112 c 0
 703 -113 701 -117 701 -117 c 0
 696 -126 688 -134 673 -134 c 0
 655 -134 637 -121 634 -97 c 1
 618 -65 598 -35 579 -14 c 0
 569 -3 570 -3 542 21 c 0
 495 62 485 57 397 125 c 0
 396 125 395 124 394 124 c 0
EndSplineSet
Validated: 1
EndChar

StartChar: h'dj
Encoding: 983334 983334 58
Width: 1000
GlyphClass: 1
Flags: HMW
LayerCount: 2
Fore
SplineSet
537 -55 m 0
 537 -65 532 -75 522 -80 c 0
 519 -82 517 -83 513 -85 c 0
 511 -86 508 -86 505 -86 c 0
 497 -86 490 -82 483 -76 c 0
 466 -60 421 -39 411 -35 c 0
 396 -28 377 -16 367 -7 c 0
 366 -6 365 -5 364 -4 c 2
 345 -14 l 1
 346 -8 348 -3 349 1 c 1
 335 -19 320 -39 303 -59 c 0
 285 -81 262 -107 246 -123 c 0
 230 -139 216 -149 198 -149 c 0
 178 -149 166 -133 166 -119 c 0
 166 -108 174 -101 182 -96 c 0
 203 -84 277 8 313 62 c 1
 292 60 272 58 251 58 c 0
 196 58 176 62 165 77 c 1
 151 75 l 1
 158 102 158 104 163 113 c 2
 170 125 l 1
 180 119 l 2
 182 119 189 118 201 118 c 0
 264 118 313 124 352 135 c 1
 373 176 388 219 395 249 c 0
 400 271 405 288 405 288 c 0
 405 290 406 292 406 293 c 0
 407 298 407 298 412 308 c 1
 439 308 l 1
 458 325 459 325 464 327 c 0
 465 328 467 328 470 328 c 0
 473 328 476 328 479 325 c 0
 487 323 494 320 500 317 c 0
 515 311 531 308 547 308 c 0
 575 308 617 316 678 340 c 0
 687 344 740 362 764 362 c 0
 780 362 816 357 816 317 c 0
 816 310 815 304 813 297 c 0
 807 223 800 188 787 127 c 0
 784 114 758 -13 758 -14 c 0
 758 -15 740 -94 735 -101 c 0
 727 -114 713 -122 698 -122 c 0
 644 -122 573 21 573 67 c 0
 573 87 587 88 590 88 c 0
 600 88 608 82 622 64 c 0
 632 51 641 38 650 24 c 0
 661 6 674 -19 686 -35 c 1
 691 -16 695 -3 707 60 c 0
 714 95 716 105 724 143 c 0
 739 213 743 239 750 297 c 1
 745 296 744 295 684 275 c 0
 647 263 601 253 552 253 c 0
 528 253 505 257 486 265 c 0
 468 272 456 281 450 296 c 1
 450 296 l 1
 450 295 450 295 450 294 c 0
 450 293 449 293 449 290 c 0
 452 281 455 273 455 257 c 0
 455 248 454 238 452 229 c 0
 447 206 441 182 433 159 c 1
 445 162 476 171 489 171 c 0
 501 171 505 165 508 159 c 0
 515 147 516 144 516 137 c 0
 516 135 515 134 515 132 c 1
 518 132 l 1
 514 128 l 2
 512 123 508 119 503 116 c 0
 497 110 496 109 478 104 c 0
 460 99 430 92 399 82 c 1
 391 67 382 52 373 38 c 1
 377 36 377 35 377 35 c 1
 407 32 503 -7 527 -30 c 0
 537 -39 537 -55 537 -55 c 0
343 698 m 1
 352 709 l 1
 341 721 l 1
 339 721 l 2
 330 710 l 1
 341 698 l 1
 343 698 l 1
513 626 m 1
 512 626 477 623 462 623 c 0
 450 623 438 623 406 635 c 0
 390 641 388 641 378 644 c 0
 361 649 342 654 326 680 c 0
 318 685 313 693 313 702 c 0
 313 702 l 2
 294 715 l 1
 338 726 338 726 341 726 c 0
 352 726 361 719 369 711 c 0
 372 708 376 705 380 701 c 0
 381 701 381 701 382 701 c 0
 405 701 432 684 461 684 c 0
 466 684 472 684 491 686 c 2
 491 686 607 699 620 700 c 0
 639 706 681 710 684 710 c 0
 694 710 703 708 709 701 c 0
 714 696 714 690 715 687 c 0
 716 678 716 679 716 678 c 0
 716 676 715 674 715 672 c 0
 716 670 718 667 718 665 c 0
 718 657 712 649 699 645 c 0
 675 638 600 635 565 629 c 1
 568 621 570 611 570 599 c 0
 570 598 570 567 560 503 c 0
 559 494 555 462 555 430 c 1
 666 441 686 442 699 442 c 0
 714 442 767 441 768 441 c 0
 769 441 777 441 777 441 c 0
 828 441 835 433 839 423 c 0
 839 422 839 422 840 420 c 0
 843 416 845 411 845 405 c 0
 845 394 837 383 826 378 c 0
 824 375 822 372 814 372 c 0
 807 372 794 375 776 375 c 0
 773 375 770 375 765 375 c 0
 750 375 727 376 698 376 c 0
 647 376 526 363 448 351 c 0
 358 337 299 332 240 330 c 0
 238 330 237 330 236 330 c 0
 225 330 192 332 173 355 c 0
 170 356 164 359 164 368 c 0
 164 376 166 379 181 401 c 1
 192 391 192 391 193 390 c 0
 202 389 211 389 220 389 c 0
 251 389 276 394 277 394 c 0
 328 397 372 403 421 411 c 0
 436 413 463 418 490 422 c 0
 490 424 490 427 490 429 c 0
 490 447 491 466 496 500 c 0
 500 524 509 583 509 593 c 0
 509 593 l 0
 509 594 l 0
 509 607 511 619 513 626 c 1
EndSplineSet
Validated: 517
EndChar

StartChar: hz
Encoding: 983335 983335 59
Width: 1000
GlyphClass: 1
Flags: HMW
LayerCount: 2
Fore
SplineSet
511 640 m 1
 490 640 456 632 433 632 c 0
 379 632 345 661 338 674 c 0
 335 676 331 678 331 685 c 0
 331 690 334 694 337 697 c 0
 341 701 348 707 356 707 c 0
 363 707 362 704 368 703 c 0
 392 699 400 691 422 691 c 0
 447 691 450 697 525 703 c 0
 560 706 567 707 590 713 c 0
 612 718 624 718 642 725 c 0
 648 727 654 730 661 730 c 0
 667 730 684 730 698 707 c 1
 699 703 699 700 699 697 c 0
 699 686 694 664 664 659 c 0
 653 657 648 657 638 655 c 0
 634 654 633 654 630 654 c 0
 627 654 625 654 624 654 c 0
 620 654 613 652 602 649 c 0
 590 646 581 644 570 642 c 1
 570 610 556 513 556 484 c 0
 556 481 556 477 556 474 c 1
 565 475 575 475 584 475 c 0
 590 475 617 474 671 467 c 0
 682 469 706 470 707 470 c 0
 734 470 742 468 793 455 c 0
 821 448 837 443 847 440 c 0
 859 436 868 426 868 413 c 0
 868 392 849 370 825 370 c 0
 822 370 811 370 801 381 c 0
 799 383 800 384 790 387 c 0
 780 391 728 404 709 404 c 0
 693 404 687 401 674 401 c 0
 653 401 627 409 583 409 c 0
 560 409 544 407 505 401 c 0
 419 389 276 372 274 372 c 0
 255 370 243 370 231 370 c 0
 162 370 149 385 141 393 c 0
 140 394 140 393 126 401 c 1
 137 420 137 420 153 444 c 1
 161 430 l 1
 165 430 170 429 177 429 c 0
 216 429 264 435 327 443 c 0
 353 446 359 448 386 451 c 0
 416 455 444 458 472 462 c 1
 474 467 479 476 492 480 c 0
 492 481 l 0
 492 508 495 558 511 640 c 1
314 307 m 0
 394 307 519 338 602 338 c 0
 611 338 l 0
 624 338 l 0
 650 338 660 336 682 336 c 0
 686 336 709 337 709 337 c 0
 724 337 771 333 771 278 c 0
 771 240 750 187 718 108 c 0
 697 57 697 56 671 -12 c 0
 653 -59 639 -80 621 -80 c 0
 616 -80 602 -77 602 -50 c 0
 602 -9 637 81 650 114 c 1
 580 111 453 95 386 90 c 0
 354 88 327 87 299 87 c 0
 269 87 226 87 209 109 c 0
 205 114 203 119 202 120 c 2
 192 128 l 1
 207 147 208 148 214 151 c 0
 216 152 218 153 221 153 c 0
 230 153 224 149 262 149 c 0
 336 149 418 157 525 170 c 0
 535 171 605 178 678 182 c 1
 680 186 701 232 706 272 c 1
 705 272 705 272 704 272 c 0
 699 272 698 271 689 271 c 0
 669 271 663 273 637 273 c 0
 627 273 616 273 604 273 c 0
 603 273 l 0
 557 273 396 250 348 250 c 0
 326 250 305 252 289 254 c 0
 256 259 256 269 246 272 c 2
 232 276 l 1
 240 295 241 297 247 305 c 2
 259 321 l 1
 266 308 l 1
 268 308 271 308 274 308 c 0
 274 308 302 307 314 307 c 0
EndSplineSet
Validated: 1
EndChar

StartChar: h`mr
Encoding: 983336 983336 60
Width: 1000
GlyphClass: 1
Flags: HMW
LayerCount: 2
Fore
SplineSet
558 692 m 0
 567 692 565 688 597 688 c 0
 641 688 717 709 718 709 c 0
 737 714 749 716 758 716 c 0
 781 716 791 694 791 682 c 0
 791 670 784 653 759 616 c 0
 746 596 724 566 702 535 c 1
 727 520 752 502 782 476 c 0
 783 475 869 400 883 382 c 0
 886 379 888 374 888 369 c 0
 888 364 886 362 884 358 c 0
 883 356 881 354 880 351 c 0
 876 343 867 338 858 338 c 0
 855 338 853 338 851 339 c 0
 848 337 845 336 843 336 c 0
 837 336 836 336 810 361 c 0
 741 427 712 453 666 482 c 1
 644 451 621 420 598 395 c 0
 536 327 461 295 375 295 c 0
 371 295 366 296 356 296 c 1
 351 298 333 305 333 323 c 0
 333 330 336 336 340 342 c 0
 347 351 358 352 381 355 c 0
 435 362 495 370 561 447 c 0
 575 464 593 488 610 513 c 1
 500 581 427 581 404 596 c 1
 385 581 l 1
 391 621 391 621 395 629 c 0
 396 631 400 638 408 638 c 0
 413 638 415 636 417 634 c 0
 418 634 418 634 419 634 c 0
 444 634 473 634 529 617 c 0
 567 605 607 587 646 565 c 1
 666 592 685 619 704 646 c 1
 654 635 643 633 615 633 c 0
 597 633 567 635 550 649 c 0
 549 650 548 650 547 651 c 0
 545 653 537 657 537 667 c 0
 537 679 547 692 558 692 c 0
240 198 m 1
 237 208 237 237 237 237 c 0
 237 262 244 313 257 369 c 0
 260 383 265 400 269 419 c 1
 252 419 178 423 150 465 c 0
 149 467 149 465 148 466 c 0
 147 467 147 467 134 476 c 1
 157 497 159 499 167 499 c 0
 169 499 175 499 178 494 c 0
 224 480 250 479 266 479 c 0
 303 479 335 485 381 495 c 1
 383 493 385 491 387 489 c 1
 398 485 406 475 406 464 c 0
 406 464 406 449 397 441 c 0
 386 430 355 424 330 422 c 1
 329 414 328 403 324 383 c 0
 321 366 306 292 299 216 c 0
 298 207 298 202 297 198 c 1
 299 198 300 198 302 198 c 0
 317 198 332 202 344 202 c 0
 366 202 370 195 387 194 c 0
 392 194 399 193 406 188 c 2
 425 175 l 1
 422 174 l 1
 426 169 429 162 429 155 c 0
 429 135 406 121 385 121 c 0
 373 121 368 123 339 137 c 1
 330 135 322 133 310 133 c 0
 300 133 282 135 261 135 c 0
 251 135 238 135 227 135 c 0
 196 135 169 139 148 144 c 0
 138 147 134 149 125 155 c 0
 119 159 114 162 114 172 c 0
 114 180 115 182 128 203 c 1
 139 196 139 196 140 195 c 0
 152 197 156 198 168 198 c 0
 176 198 185 197 193 195 c 0
 209 196 224 197 240 198 c 1
652 247 m 1
 587 228 560 220 516 220 c 0
 484 220 439 225 420 238 c 0
 414 242 409 249 407 255 c 0
 405 256 406 255 394 266 c 1
 412 282 412 282 437 297 c 1
 439 283 l 2
 440 283 464 276 503 276 c 0
 541 276 569 284 592 292 c 0
 634 306 647 309 682 318 c 0
 725 329 729 333 740 333 c 0
 750 333 759 328 766 322 c 2
 790 299 l 1
 774 300 l 1
 775 298 775 295 775 293 c 0
 775 286 771 281 767 278 c 0
 765 273 760 269 755 265 c 0
 735 248 709 219 692 191 c 0
 683 177 677 165 675 158 c 1
 677 158 681 158 685 158 c 0
 704 158 742 161 762 161 c 0
 780 161 790 159 800 148 c 0
 802 146 817 130 817 112 c 0
 817 106 815 100 813 91 c 0
 796 28 752 -29 679 -75 c 0
 664 -85 638 -99 616 -109 c 0
 601 -116 589 -119 565 -126 c 0
 533 -135 459 -155 433 -155 c 0
 423 -155 399 -155 399 -136 c 0
 399 -129 403 -123 406 -119 c 0
 419 -103 438 -96 516 -76 c 0
 564 -64 588 -54 616 -38 c 0
 637 -26 662 -9 682 7 c 0
 718 37 741 72 751 102 c 1
 697 98 697 98 688 98 c 0
 667 98 611 98 611 154 c 0
 611 157 611 162 612 164 c 0
 621 194 634 222 652 247 c 1
EndSplineSet
Validated: 513
EndChar

StartChar: hun
Encoding: 983337 983337 61
Width: 1000
GlyphClass: 1
Flags: HMW
LayerCount: 2
Fore
SplineSet
346 178 m 0
 382 178 460 191 490 191 c 0
 494 191 497 191 501 191 c 0
 503 223 506 272 512 303 c 0
 514 312 515 316 521 328 c 1
 519 341 l 1
 565 341 l 1
 564 329 l 2
 564 329 564 328 565 327 c 0
 569 321 572 312 572 294 c 0
 572 272 570 261 566 191 c 1
 576 192 586 192 596 192 c 0
 609 192 627 191 643 191 c 0
 649 191 656 191 663 191 c 0
 680 191 690 190 704 190 c 0
 705 190 728 191 728 191 c 0
 749 191 794 182 804 172 c 0
 811 165 811 151 811 149 c 0
 811 139 808 130 804 119 c 1
 796 115 788 112 777 112 c 0
 755 112 757 125 723 125 c 0
 718 125 711 125 693 125 c 0
 667 125 628 126 604 126 c 0
 587 126 574 126 562 125 c 1
 560 92 558 62 556 20 c 0
 554 -15 554 -24 554 -33 c 0
 554 -52 555 -82 555 -83 c 0
 555 -123 530 -126 525 -126 c 0
 513 -126 503 -116 498 -98 c 0
 493 -82 492 -54 492 -17 c 0
 492 30 494 78 497 125 c 1
 494 125 492 125 489 125 c 0
 460 125 394 114 352 114 c 0
 327 114 317 118 317 118 c 0
 317 118 l 0
 316 118 l 0
 302 118 289 124 279 133 c 1
 251 135 233 153 229 171 c 1
 209 177 l 1
 227 189 l 1
 225 202 l 1
 234 196 l 1
 238 201 243 206 251 206 c 0
 266 206 272 192 279 192 c 0
 279 192 279 192 280 192 c 0
 293 192 305 188 315 181 c 0
 316 181 319 181 320 181 c 0
 331 181 332 178 346 178 c 0
296 629 m 0
 306 629 314 628 331 628 c 0
 332 628 400 628 457 645 c 0
 471 649 474 652 478 654 c 0
 483 657 496 664 514 664 c 0
 537 664 552 651 552 634 c 0
 552 631 552 620 547 611 c 0
 541 600 530 597 509 591 c 0
 502 589 483 584 463 579 c 1
 451 441 451 441 446 423 c 1
 521 425 521 425 546 425 c 0
 556 425 586 424 613 418 c 0
 630 414 645 405 645 388 c 0
 645 370 626 351 608 351 c 0
 593 351 598 360 545 360 c 0
 516 360 408 357 407 357 c 0
 358 355 318 340 242 334 c 0
 237 334 233 333 230 333 c 0
 217 333 217 336 208 336 c 0
 204 336 l 0
 195 336 194 336 149 356 c 0
 139 360 124 367 120 376 c 0
 119 378 118 380 117 380 c 2
 107 386 l 1
 118 404 119 405 134 426 c 1
 142 414 l 1
 159 413 184 405 203 399 c 0
 206 399 212 399 212 399 c 0
 220 399 227 398 234 396 c 0
 280 403 281 403 313 409 c 0
 314 409 377 421 380 422 c 0
 387 437 396 487 407 570 c 1
 383 566 375 565 365 565 c 0
 301 565 281 576 266 586 c 0
 259 590 256 596 256 603 c 0
 256 626 269 629 296 629 c 0
591 649 m 0
 591 658 596 675 610 675 c 0
 613 675 616 675 617 674 c 0
 669 674 717 624 777 558 c 0
 790 543 800 533 841 465 c 0
 855 441 869 416 876 404 c 0
 886 386 888 379 888 371 c 0
 888 366 888 355 876 341 c 0
 871 338 862 333 850 333 c 0
 829 333 814 349 814 368 c 0
 814 370 814 371 814 372 c 0
 814 381 775 453 739 500 c 0
 710 538 662 590 632 612 c 0
 624 618 606 632 606 632 c 0
 602 634 602 633 599 635 c 0
 596 636 591 641 591 649 c 0
EndSplineSet
Validated: 5
EndChar

StartChar: hn
Encoding: 983338 983338 62
Width: 1000
GlyphClass: 1
Flags: HMW
LayerCount: 2
Fore
SplineSet
219 151 m 0
 226 153 235 155 243 155 c 0
 252 155 260 154 267 151 c 1
 274 153 282 153 296 154 c 2
 296 154 l 2
 304 154 320 155 372 161 c 0
 401 164 461 170 524 174 c 1
 524 184 525 194 525 204 c 0
 525 206 524 269 514 316 c 0
 513 320 512 323 512 326 c 5
 506 347 l 4
 506 348 511 363 528 363 c 0
 553 363 561 340 564 333 c 0
 574 307 586 241 586 179 c 1
 617 182 648 184 679 184 c 0
 697 184 715 184 727 183 c 0
 737 182 747 182 770 171 c 0
 781 166 790 154 790 145 c 0
 790 129 777 107 753 107 c 0
 741 107 732 112 726 115 c 0
 725 116 724 117 723 118 c 0
 705 119 689 119 671 119 c 0
 654 119 645 119 586 115 c 1
 584 43 582 -28 582 -67 c 0
 582 -111 578 -126 565 -136 c 0
 560 -140 555 -143 548 -143 c 0
 533 -143 518 -127 518 -105 c 0
 518 -97 520 -93 520 -68 c 0
 520 -67 519 -17 519 1 c 0
 519 38 520 74 522 110 c 1
 464 107 409 103 378 100 c 0
 342 97 334 97 326 97 c 0
 317 97 309 97 301 97 c 0
 283 97 276 95 267 95 c 0
 251 95 251 101 234 101 c 0
 219 101 215 101 191 110 c 1
 181 93 l 1
 171 127 170 127 170 135 c 0
 170 138 170 138 174 170 c 1
 190 151 l 2
 194 152 199 153 205 153 c 0
 210 153 214 152 219 151 c 0
251 404 m 2
 251 404 268 404 269 404 c 0
 313 404 315 427 491 446 c 1
 492 463 497 505 500 537 c 0
 501 549 503 588 503 589 c 0
 504 599 506 605 507 610 c 1
 494 608 481 607 471 607 c 0
 470 607 356 611 327 627 c 0
 322 630 320 630 320 630 c 0
 320 630 l 2
 320 630 319 630 304 629 c 1
 308 657 308 658 311 663 c 0
 314 668 319 671 327 671 c 0
 329 671 331 671 332 671 c 0
 332 671 341 672 348 672 c 0
 349 672 418 669 471 669 c 2
 471 669 472 669 473 669 c 0
 575 686 626 694 645 694 c 0
 649 694 659 694 666 690 c 2
 696 673 l 1
 674 669 l 1
 675 666 676 664 676 661 c 0
 676 653 671 645 663 641 c 1
 656 628 627 619 615 619 c 0
 604 619 603 623 597 623 c 0
 588 623 574 621 557 618 c 1
 559 613 563 604 564 590 c 0
 565 582 565 569 565 557 c 0
 565 545 565 534 562 507 c 0
 561 496 558 474 556 451 c 1
 564 451 579 451 579 451 c 2
 651 451 727 451 806 428 c 0
 812 426 829 421 829 404 c 0
 829 401 829 400 829 398 c 0
 829 397 829 395 829 394 c 0
 829 365 799 365 795 365 c 0
 781 365 734 384 641 386 c 0
 631 386 619 386 608 386 c 0
 603 386 603 386 541 386 c 1
 410 371 l 1
 329 356 308 344 272 344 c 0
 256 344 217 347 216 347 c 0
 206 349 196 354 191 361 c 0
 190 363 188 364 187 365 c 0
 185 368 181 373 181 381 c 0
 181 392 192 404 203 404 c 0
 210 404 214 400 216 398 c 0
 227 403 249 404 251 404 c 0
 251 404 l 2
EndSplineSet
Validated: 5
EndChar

StartChar: h'np
Encoding: 983339 983339 63
Width: 1000
GlyphClass: 1
Flags: HMW
LayerCount: 2
Fore
SplineSet
351 253 m 0
 351 255 351 261 351 261 c 0
 351 274 354 283 354 288 c 0
 355 302 365 306 377 311 c 1
 392 311 l 2
 393 308 394 304 395 301 c 0
 395 301 396 300 397 299 c 0
 411 285 413 263 413 238 c 0
 413 224 412 200 411 167 c 1
 470 177 469 178 481 178 c 0
 487 178 501 171 512 171 c 1
 516 222 516 231 516 232 c 0
 517 243 519 251 520 256 c 0
 521 259 521 260 521 262 c 0
 523 272 524 273 531 282 c 1
 564 282 l 1
 565 266 565 266 566 263 c 0
 572 248 576 237 576 202 c 0
 576 154 562 7 560 -26 c 1
 573 -23 597 -19 616 -15 c 0
 645 -8 664 3 671 10 c 0
 678 16 682 20 684 21 c 0
 691 25 693 26 699 26 c 0
 702 26 704 26 706 25 c 1
 707 106 709 227 714 260 c 0
 718 285 723 290 723 303 c 0
 723 305 723 305 724 318 c 1
 770 318 l 1
 765 300 765 300 765 299 c 0
 765 298 766 296 766 296 c 0
 772 283 774 270 774 220 c 0
 774 217 771 -88 764 -113 c 0
 764 -115 763 -118 761 -120 c 0
 760 -122 756 -136 737 -136 c 0
 727 -136 718 -130 714 -122 c 0
 713 -120 711 -117 709 -111 c 0
 707 -103 706 -94 706 -51 c 0
 706 -51 706 -46 706 -37 c 1
 699 -44 691 -50 682 -56 c 0
 662 -69 640 -74 618 -78 c 0
 567 -88 566 -89 561 -94 c 0
 555 -100 547 -104 536 -104 c 0
 535 -104 512 -104 503 -86 c 0
 501 -83 495 -70 495 -55 c 0
 495 -30 496 -7 502 60 c 0
 504 81 506 100 507 116 c 1
 504 115 501 114 497 113 c 0
 491.780855769 112.288298514 488.306388112 112.139395923 485.01447227 112.139395923 c 0
 482.645884799 112.139395923 480.371805108 112.21648337 477.610347306 112.21648337 c 0
 468.031880309 112.21648337 452.589585453 111.289015537 407 103 c 1
 404 78 402 42 399 -9 c 0
 396 -65 395 -84 373 -91 c 0
 370 -92 366 -93 363 -93 c 0
 355 -93 344 -87 341 -72 c 0
 338 -69 335 -67 335 -21 c 0
 335 11 341 77 343 95 c 1
 342 95 339 95 338 95 c 0
 326 95 314 96 303 96 c 0
 278 96 263 90 243 90 c 0
 204 90 180 95 163 111 c 1
 155 107 l 1
 146 130 146 130 143 153 c 1
 157 154 156 154 157 154 c 0
 158 154 159 154 160 154 c 0
 163 155 168 156 172 156 c 0
 187 156 198 148 237 148 c 0
 261 148 271 157 312 157 c 0
 317 157 340 156 340 156 c 0
 343 156 345 157 347 157 c 0
 347 165 351 233 351 234 c 0
 351 243 351 249 351 253 c 0
535 393 m 1
 533 408 l 1
 529 409 l 1
 521 405 l 2
 518 398 l 1
 522 390 l 1
 535 393 l 1
284 385 m 0
 298 385 309 384 327 384 c 0
 361 384 381 391 453 398 c 0
 482 401 498 403 513 406 c 1
 513 444 515 548 526 582 c 0
 526 583 l 1
 501 582 485 581 474 581 c 0
 440 581 408 587 377 601 c 0
 358 609 340 620 328 630 c 0
 319 637 312 645 312 656 c 0
 312 669 323 679 335 679 c 0
 336 678 l 2
 356 710 l 1
 356 669 l 1
 375 653 416 635 466 635 c 0
 479 635 492 636 509 637 c 0
 605 643 604 643 634 647 c 0
 644 648 647 648 651 648 c 0
 662 648 684 647 690 632 c 0
 692 627 693 622 693 618 c 0
 693 586 657 584 638 584 c 0
 632 584 610 584 588 584 c 0
 583 584 577 584 571 584 c 1
 571 583 572 583 572 582 c 0
 577 564 578 554 578 518 c 0
 578 466 576 417 576 416 c 0
 576 415 576 414 576 413 c 0
 577 413 l 0
 588 413 615 414 641 414 c 0
 699 414 716 407 794 399 c 0
 818 397 835 394 850 380 c 2
 868 364 l 1
 852 361 l 1
 855 355 856 351 856 349 c 0
 856 338 844 332 837 328 c 0
 823 321 804 317 785 317 c 0
 783 317 783 318 777 318 c 0
 771 323 765 327 760 336 c 0
 759 336 699 346 696 346 c 0
 671 350 657 350 642 350 c 0
 641 350 585 349 544 345 c 0
 524 343 516 339 479 337 c 2
 425 334 l 2
 372 328 360 327 349 327 c 0
 332 327 314 328 297 330 c 0
 293 330 289 330 285 330 c 0
 242 330 211 345 199 351 c 1
 182 368 l 2
 181 372 181 372 181 372 c 0
 180 373 180 373 162 389 c 1
 191 397 191 397 197 397 c 0
 215 397 239 385 275 385 c 0
 275 385 283 385 284 385 c 0
EndSplineSet
Validated: 524801
EndChar

StartChar: hri
Encoding: 983340 983340 64
Width: 1000
GlyphClass: 1
Flags: HMW
LayerCount: 2
Fore
SplineSet
423 342 m 0
 432 342 435 341 455 327 c 1
 446 316 446 316 445 315 c 0
 443 313 443 306 433 287 c 0
 432 286 377 188 359 160 c 0
 348 142 332 119 301 76 c 0
 293 65 271 32 257 6 c 0
 237 -32 222 -52 202 -52 c 0
 202 -52 188 -51 181 -46 c 0
 177 -43 174 -39 172 -34 c 0
 169 -32 164 -30 158 -26 c 1
 162 -23 166 -21 169 -19 c 0
 169 -19 169 -18 169 -17 c 0
 169 -6 171 -3 173 1 c 0
 174 2 173 4 174 5 c 0
 177 12 183 18 192 22 c 1
 228 76 230 78 258 115 c 0
 290 157 307 179 339 231 c 0
 354 255 357 261 377 290 c 0
 396 319 397 319 397 319 c 2
 408 330 l 2
 409 337 415 342 423 342 c 0
609 302 m 1
 587 298 573 297 559 297 c 0
 516 297 502 306 485 317 c 0
 477 322 477 323 469 333 c 1
 484 364 l 1
 494 361 495 361 503 358 c 2
 503 358 503 357 511 357 c 0
 516 357 531 357 553 358 c 0
 584 359 596 363 635 374 c 0
 671 384 679 386 687 386 c 0
 707 386 723 362 723 348 c 0
 723 338 715 329 702 314 c 0
 689 299 667 273 645 244 c 1
 668 244 711 252 723 252 c 0
 730 252 737 251 744 250 c 0
 753 253 762 254 770 254 c 0
 811 254 842 221 842 182 c 0
 842 127 798 76 752 29 c 0
 632 -94 576 -123 539 -140 c 0
 523 -147 513 -150 504 -150 c 0
 484 -150 483 -136 483 -134 c 0
 483 -118 503 -101 512 -93 c 0
 558 -54 586 -45 655 22 c 0
 685 51 718 87 739 111 c 0
 749 122 778 157 778 182 c 0
 778 187 777 189 771 189 c 0
 767 189 757 187 746 187 c 0
 740 187 731 188 724 188 c 0
 709 188 688 181 641 181 c 0
 621 181 594 181 576 202 c 0
 570 209 566 218 566 227 c 0
 566 244 577 262 609 302 c 1
344 664 m 1
 366 659 408 659 409 659 c 0
 439 659 508 676 576 683 c 0
 591 685 632 689 644 689 c 0
 684 689 684 660 684 660 c 0
 684 632 624 618 613 618 c 0
 608 618 605 621 602 621 c 0
 591 621 580 620 569 618 c 1
 570 616 570 612 570 608 c 0
 570 587 567 558 560 519 c 0
 559 512 555 489 552 463 c 1
 554 463 719 469 791 469 c 0
 815 469 833 469 855 456 c 0
 864 451 871 441 871 430 c 0
 871 421 867 408 852 396 c 0
 851 395 850 395 821 374 c 0
 816 373 814 373 809 373 c 0
 804 373 780 375 780 402 c 0
 780 403 l 1
 776 403 770 403 765 403 c 0
 753 403 753 403 599 399 c 0
 546 397 538 397 475 382 c 0
 365 356 327 349 285 343 c 0
 264 340 256 340 249 340 c 0
 208 340 160 353 142 375 c 0
 140 377 138 379 137 381 c 0
 133 383 131 387 131 392 c 0
 131 402 139 409 150 414 c 2
 183 430 l 1
 172 409 l 1
 224 399 224 398 239 398 c 0
 261 398 265 399 330 414 c 0
 367 423 367 423 487 452 c 1
 490 484 495 515 499 530 c 0
 507 566 517 611 517 612 c 1
 516 612 470 604 453 602 c 0
 438 600 427 600 417 600 c 0
 394 600 343 602 314 627 c 0
 309 631 305 636 303 641 c 0
 301 643 300 646 300 650 c 0
 300 656 303 660 304 661 c 0
 310 668 319 669 326 669 c 2
 347 671 l 1
 344 664 l 1
EndSplineSet
Validated: 1
EndChar

StartChar: vno
Encoding: 983341 983341 65
Width: 1000
GlyphClass: 1
Flags: HMW
LayerCount: 2
Fore
SplineSet
832 495 m 0
 849 495 849 475 849 469 c 0
 849 456 843 395 780 327 c 0
 780 327 737 284 736 283 c 0
 731 279 718 269 712 265 c 1
 715 264 l 1
 683 253 683 253 681 253 c 0
 677 253 674 255 672 256 c 0
 658 263 652 278 652 304 c 0
 652 396 671 465 680 555 c 1
 658 551 637 543 578 532 c 0
 452 509 419 503 361 503 c 0
 318 503 285 509 256 519 c 0
 236 526 225 532 221 536 c 0
 218 539 217 540 216 541 c 2
 199 539 l 1
 205 566 205 566 216 591 c 1
 229 580 229 580 229 580 c 0
 232 579 253 573 265 570 c 0
 290 563 311 561 332 561 c 0
 391 561 535 588 564 594 c 0
 610 603 633 609 659 618 c 1
 662 618 664 617 665 617 c 0
 678 617 690 621 690 621 c 1
 700 625 706 626 713 626 c 0
 725 626 731 619 733 615 c 0
 736 610 740 610 745 603 c 0
 748 599 749 593 749 588 c 0
 749 585 749 582 748 578 c 0
 748 576 737 475 728 416 c 0
 724 387 721 369 720 354 c 1
 733 367 745 380 754 392 c 0
 763 403 766 408 776 427 c 0
 782 439 794 461 804 475 c 0
 812 486 820 495 832 495 c 0
723 594 m 1
 722 590 l 1
 722 587 l 1
 731 581 l 1
 734 581 l 1
 738 595 l 1
 723 594 l 1
385 392 m 0
 385 409 407 414 412 414 c 0
 414 414 422 414 426 402 c 0
 429 394 438 383 442 361 c 0
 444 351 445 340 445 330 c 0
 445 328 445 295 438 229 c 1
 462 233 485 234 509 234 c 0
 527 234 543 234 555 224 c 0
 562 218 566 209 566 199 c 0
 566 165 517 162 502 162 c 0
 485 162 480 166 465 166 c 0
 456 166 444 164 431 162 c 1
 428 131 427 101 427 50 c 0
 427 -6 431 -51 431 -79 c 0
 431 -89 430 -105 419 -110 c 0
 414 -116 408 -121 399 -121 c 0
 397 -121 379 -121 371 -100 c 0
 362 -76 362 34 362 43 c 0
 362 77 363 108 366 154 c 1
 344 152 325 151 318 150 c 0
 287 147 274 146 261 146 c 0
 252 146 216 147 216 147 c 0
 214 147 204 147 204 147 c 0
 177 147 167 157 160 165 c 0
 160 165 160 166 144 172 c 1
 162 196 161 196 167 199 c 0
 169 200 170 201 174 201 c 0
 176 201 179 201 182 199 c 0
 183 199 270 204 325 212 c 0
 341 214 341 215 371 218 c 1
 375 235 382 301 384 346 c 0
 384 356 386 383 386 383 c 0
 386 386 385 388 385 392 c 0
441 -139 m 0
 427 -139 420 -130 420 -121 c 0
 420 -107 433 -99 489 -64 c 0
 544 -30 549 -27 597 19 c 0
 616 37 661 80 682 99 c 0
 750 161 765 181 778 202 c 0
 779 203 779 204 780 205 c 0
 780 205 780 205 772 217 c 1
 791 227 792 227 801 231 c 1
 819 231 l 1
 819 224 l 1
 822 222 834 213 834 193 c 0
 834 187 833 178 823 160 c 0
 815 146 802 128 784 109 c 0
 772 97 760 85 748 73 c 0
 741 67 741 67 639 -27 c 0
 587 -75 556 -98 524 -113 c 0
 523 -113 468 -139 441 -139 c 0
EndSplineSet
Validated: 1
EndChar

StartChar: rv
Encoding: 983342 983342 66
Width: 1000
GlyphClass: 1
Flags: HMW
LayerCount: 2
Fore
SplineSet
599 561 m 0
 580 561 538 545 454 545 c 0
 430 545 417 548 403 565 c 1
 401 570 400 575 400 582 c 0
 400 594 407 605 419 614 c 0
 432 623 439 631 459 654 c 1
 394 647 394 646 387 646 c 0
 376 646 332 648 300 672 c 0
 295 676 293 679 291 681 c 1
 271 683 l 1
 306 731 l 1
 315 712 l 1
 348 704 361 701 381 701 c 0
 394 701 406 702 436 708 c 0
 473 715 535 726 566 731 c 0
 576 732 577 733 579 733 c 0
 586 733 593 731 598 724 c 1
 608 721 615 712 615 702 c 0
 615 682 607 678 586 666 c 0
 530 634 520 627 504 609 c 1
 553 614 576 623 601 623 c 0
 621 623 640 617 658 607 c 1
 667 606 691 601 691 565 c 0
 691 549 686 533 674 513 c 0
 649 472 613 445 587 425 c 0
 562 406 554 399 520 371 c 0
 490 346 466 326 421 308 c 0
 411 304 344 277 280 277 c 0
 261 277 250 280 242 285 c 0
 236 289 230 295 230 304 c 0
 230 312 235 322 247 327 c 0
 253 329 259 331 280 334 c 0
 311 338 357 349 393 364 c 0
 430 379 452 395 477 417 c 0
 505 441 515 450 540 469 c 0
 569 491 600 515 621 546 c 0
 624 551 626 553 627 555 c 1
 619 559 609 561 599 561 c 0
628 558 m 1
 628 558 l 1
 628 558 l 1
247 219 m 0
 249 219 250 219 252 219 c 0
 253 219 306 221 352 231 c 0
 369 235 382 238 414 239 c 0
 429 239 433 239 452 245 c 0
 501 260 530 273 558 285 c 0
 577 293 582 294 596 299 c 0
 602 301 603 302 609 304 c 1
 611 304 l 2
 631 303 649 292 649 273 c 0
 649 263 643 180 631 97 c 0
 627 66 626 66 620 13 c 0
 618 1 617 -10 615 -19 c 1
 643 7 665 32 698 71 c 0
 733 112 763 149 801 162 c 0
 806 164 811 165 816 165 c 0
 829 165 834 156 834 147 c 0
 834 131 821 117 802 96 c 0
 780 72 773 63 754 40 c 0
 738 21 717 -3 698 -24 c 0
 669 -55 640 -82 616 -100 c 0
 606 -108 598 -113 587 -113 c 0
 587 -113 563 -112 554 -105 c 0
 544 -98 544 -86 544 -75 c 0
 544 -52 545 -39 548 -25 c 0
 550 -15 553 -1 559 48 c 0
 574 170 l 2
 577 197 579 213 580 224 c 1
 555 212 519 200 483 188 c 0
 450 177 423 173 396 173 c 0
 391 173 385 173 380 173 c 0
 358 165 341 164 323 162 c 0
 303 160 290 159 271 156 c 1
 268 156 l 2
 257 158 235 160 234 160 c 0
 230 160 214 159 214 159 c 0
 207 159 199 160 193 164 c 0
 192 164 192 164 191 164 c 0
 182 164 174 170 171 178 c 0
 170 178 170 179 156 192 c 1
 171 199 l 1
 183 210 187 213 202 214 c 0
 219 215 232 219 247 219 c 0
561 -104 m 1
 564 -105 l 1
 567 -104 l 2
 574 -93 l 1
 570 -86 l 1
 561 -104 l 1
EndSplineSet
Validated: 1
EndChar

StartChar: hur
Encoding: 983343 983343 67
Width: 1000
GlyphClass: 1
Flags: HMW
LayerCount: 2
Fore
SplineSet
526 253 m 1
 461 233 428 227 393 227 c 0
 392 227 299 228 280 260 c 0
 280 261 279 260 279 261 c 0
 278 262 276 266 276 272 c 0
 276 280 281 283 287 289 c 0
 290 291 290 292 300 301 c 1
 273 294 247 289 223 289 c 0
 221 289 200 289 175 302 c 0
 172 304 163 308 163 318 c 0
 163 318 164 330 170 337 c 0
 176 343 183 343 186 343 c 0
 195 344 196 344 240 351 c 0
 267 355 289 361 326 375 c 0
 337 379 358 387 381 395 c 0
 380 399 380 403 380 407 c 0
 380 409 384 477 409 562 c 1
 354 551 314 546 281 546 c 0
 250 546 234 548 224 561 c 0
 222 562 222 562 205 572 c 1
 228 592 227 592 233 594 c 0
 234 595 236 595 239 595 c 0
 242 595 245 594 247 592 c 0
 288 595 319 598 379 613 c 0
 412 622 457 632 458 635 c 0
 464 646 476 659 508 659 c 0
 533 659 547 641 547 619 c 0
 547 618 547 619 547 614 c 0
 527 590 513 586 469 576 c 1
 457 518 453 495 447 438 c 0
 446 429 445 421 444 412 c 1
 467 417 490 420 513 422 c 0
 514 425 520 435 533 435 c 0
 540 435 552 430 553 430 c 0
 561 425 567 412 568 405 c 0
 572 400 575 394 575 387 c 0
 575 370 557 358 542 358 c 0
 537 358 530 359 521 359 c 0
 520 359 476 358 393 331 c 0
 376 326 350 317 341 314 c 0
 329 310 315 306 303 302 c 1
 310 290 311 290 311 290 c 0
 315 290 321 289 331 288 c 0
 340 287 368 285 395 285 c 0
 396 285 l 0
 434 285 522 316 569 334 c 0
 600 346 621 354 636 354 c 0
 658 354 668 339 668 322 c 0
 668 306 658 295 647 289 c 0
 630 279 615 266 602 251 c 1
 635 243 635 242 674 235 c 0
 690 232 701 225 710 214 c 0
 722 200 730 183 730 166 c 0
 730 152 724 119 679 69 c 0
 642 28 580 -24 528 -61 c 0
 477 -96 380 -148 310 -148 c 0
 288 -148 260 -147 260 -125 c 0
 260 -106 286 -98 328 -85 c 0
 379 -69 440 -50 526 18 c 0
 557 43 595 77 619 102 c 0
 644 127 654 143 661 156 c 0
 664 162 666 166 666 168 c 0
 664 171 663 172 661 175 c 0
 661 175 647 176 626 181 c 0
 615 183 595 188 585 190 c 0
 573 192 563 193 557 194 c 0
 545 196 521 203 521 234 c 0
 521 238 522 245 526 253 c 1
757 360 m 0
 757 362 757 364 757 365 c 0
 757 375 742 401 733 417 c 0
 733 418 697 482 691 493 c 0
 677 516 665 535 650 553 c 0
 606 606 606 606 599 613 c 1
 583 603 l 1
 587 640 587 640 591 650 c 2
 597 663 l 1
 597 663 615 652 616 651 c 0
 640 640 657 622 670 610 c 0
 675 605 677 604 682 599 c 0
 706 577 724 554 744 524 c 0
 768 489 795 442 820 394 c 0
 835 370 835 370 835 369 c 0
 836 366 837 362 837 359 c 0
 837 358 837 358 835 325 c 1
 836 323 l 1
 835 322 l 1
 834 318 l 1
 832 322 l 1
 814 321 814 321 810 321 c 0
 789 321 778 326 770 334 c 0
 769 335 769 337 767 338 c 0
 761 342 757 350 757 360 c 0
EndSplineSet
Validated: 1
EndChar

StartChar: h'rm
Encoding: 983344 983344 68
Width: 1000
GlyphClass: 1
Flags: HMW
LayerCount: 2
Fore
SplineSet
263 305 m 0
 308 305 411 333 438 333 c 0
 441 333 464 333 464 316 c 0
 464 312 462 310 462 309 c 0
 462 308 l 0
 462 306 463 305 463 302 c 0
 463 300 463 298 462 296 c 1
 475 295 l 1
 406 228 l 1
 407 228 442 211 462 200 c 0
 464 199 466 197 468 196 c 0
 471 198 474 199 478 201 c 0
 481 202 488 204 498 204 c 0
 525 204 573 195 626 161 c 1
 658 220 663 229 684 263 c 1
 628 264 562 268 519 319 c 0
 518 321 517 322 516 323 c 0
 515 324 509 329 509 337 c 0
 509 349 520 361 531 361 c 0
 535 361 539 359 542 355 c 0
 559 349 581 332 618 326 c 0
 627 325 632 324 645 324 c 0
 654 324 705 324 724 329 c 0
 728 330 732 331 736 331 c 0
 741 331 741 330 803 316 c 1
 769 310 l 1
 773 307 776 303 776 296 c 0
 776 288 772 284 768 280 c 0
 755 255 742 233 723 201 c 0
 714 185 707 174 677 118 c 1
 710 84 720 72 768 14 c 0
 796 -20 807 -38 815 -57 c 2
 822 -75 l 1
 816 -75 l 1
 816 -76 816 -77 816 -78 c 0
 816 -90 808 -103 785 -103 c 0
 765 -103 758 -91 753 -81 c 0
 743 -61 734 -47 698 -2 c 0
 683 17 663 40 643 62 c 1
 622 32 596 5 557 -22 c 0
 539 -34 512 -53 500 -62 c 0
 463 -90 436 -106 403 -106 c 0
 396 -106 384 -105 379 -93 c 0
 378 -91 378 -89 378 -86 c 0
 378 -77 385 -61 420 -41 c 0
 447 -25 468 -4 531 35 c 0
 557 56 579 81 597 109 c 1
 567 133 533 148 506 155 c 0
 494 158 490 158 488 159 c 1
 487 150 484 130 468 105 c 0
 459 90 445 73 419 48 c 0
 390 20 347 -16 312 -42 c 0
 291 -58 265 -76 235 -84 c 0
 230 -85 226 -86 222 -86 c 0
 208 -86 200 -76 200 -66 c 0
 200 -35 276 1 370 89 c 0
 398 116 413 133 422 152 c 1
 402 162 395 165 373 174 c 0
 343 186 327 193 327 218 c 0
 327 234 335 246 341 253 c 1
 326 251 292 247 274 247 c 0
 216 247 171 270 162 286 c 0
 162 286 162 286 144 298 c 1
 176 315 177 316 183 316 c 0
 185 316 187 315 189 314 c 0
 190 314 190 314 191 314 c 0
 209 314 242 305 263 305 c 0
798 -98 m 1
 793 -76 l 1
 793 -76 l 1
 790 -77 l 2
 785 -86 l 1
 797 -98 l 1
 798 -98 l 1
469 683 m 0
 559 683 630 703 660 703 c 0
 676 703 681 695 685 687 c 0
 690 678 690 677 690 671 c 0
 690 662 688 664 686 654 c 0
 684 640 675 639 637 635 c 0
 636 635 589 629 572 627 c 1
 577 618 578 607 578 589 c 0
 578 577 577 565 573 531 c 2
 573 531 566 477 563 450 c 1
 574 450 585 450 596 450 c 0
 693 450 765 437 845 418 c 0
 869 412 905 403 905 377 c 0
 905 371 903 364 895 355 c 1
 906 349 l 1
 876 340.666666667 871 339.972222222 867.273148148 339.972222222 c 0
 866.527777778 339.972222222 865.833333333 340 865 340 c 0
 856 340 847 343 841 350 c 1
 757 370 697 384 595 384 c 0
 508 384 399 366 244 366 c 0
 191 366 129 368 103 406 c 1
 81 408 l 1
 104 433 105 433 112 439 c 2
 125 449 l 1
 130 436 l 1
 143 434 151 430 168 428 c 0
 174 427 181 426 192 426 c 0
 194 426 240 427 353 434 c 0
 405 437 452 441 499 446 c 1
 505 488 511 529 514 544 c 0
 518 565 525 619 525 620 c 0
 525 620 525 621 525 623 c 0
 514 622 505 622 495 622 c 0
 469 622 458 622 371 634 c 0
 338 639 330 642 325 644 c 0
 324 645 320 645 320 645 c 2
 306 644 l 1
 307 666 307 673 313 680 c 0
 318 685 325 686 327 686 c 0
 334 687 346 690 364 690 c 0
 377 690 446 683 469 683 c 0
EndSplineSet
Validated: 524805
EndChar

StartChar: pt
Encoding: 983345 983345 69
Width: 1000
GlyphClass: 1
Flags: HMW
LayerCount: 2
Fore
SplineSet
508 331 m 0
 508 340 516 348 527 348 c 0
 531 348 554 345 554 314 c 0
 554 291 547 244 505 164 c 1
 534 153 584 126 639 86 c 2
 688 50 l 2
 707 33 727 15 746 -2 c 0
 753 -9 758 -16 763 -24 c 2
 776 -36 l 1
 803 -56 806 -61 806 -69 c 0
 806 -74 805 -74 805 -80 c 0
 804 -95 793 -105 779 -105 c 0
 777 -105 774 -104 772 -104 c 0
 769 -105 768 -106 766 -106 c 0
 757 -106 732 -90 714 -67 c 0
 692 -39 659 -13 569 58 c 0
 547 75 513 101 512 101 c 0
 501 110 492 118 484 126 c 1
 451 69 410 28 337 -36 c 0
 330 -42 269 -98 268 -99 c 0
 253 -112 229 -129 212 -129 c 0
 202 -129 193 -123 193 -111 c 0
 193 -100 200 -81 229 -50 c 0
 257 -19 291 10 320 36 c 0
 371 82 385 95 409 130 c 0
 479 234 495 286 505 321 c 0
 506 324 507 327 508 329 c 0
 508 330 508 330 508 331 c 0
604 405 m 1
 610 408 l 1
 606 415 l 1
 604 415 l 1
 602 415 l 1
 604 405 l 1
402 710 m 1
 427 694 427 661 427 635 c 0
 427 563 418 512 395 397 c 1
 412 404 429 416 467 429 c 0
 502 441 561 455 585 455 c 0
 595 455 610 454 617 450 c 1
 618 507 620 560 622 594 c 0
 625 648 626 666 626 671 c 0
 626 699 627 711 639 725 c 0
 639 726 638 727 636 742 c 1
 652 743 653 742 655 742 c 0
 659 742 663 741 666 741 c 2
 666 741 680 740 680 727 c 0
 680 726 680 724 678 721 c 0
 683 702 687 687 687 623 c 0
 687 556 683 458 683 425 c 0
 683 424 683 389 683 389 c 0
 683 379 683 380 681 332 c 1
 676 332 672 332 667 332 c 0
 665 329 659 324 649 324 c 0
 639 324 632 330 629 333 c 0
 629 333 629 333 628 334 c 0
 617 343 616 356 616 377 c 0
 616 379 616 382 616 385 c 0
 616 387 616 389 616 391 c 1
 611 390 606 389 599 389 c 0
 591 389 554 388 497 371 c 0
 484 367 481 366 464 357 c 0
 463 356 394 320 356 320 c 0
 343 320 333 326 327 333 c 2
 320 341 l 1
 322 343 l 2
 321 345 320 347 320 349 c 0
 320 358 331 409 341 452 c 0
 344 467 365 557 365 645 c 0
 365 679 362 666 361 691 c 0
 361 692 361 694 361 696 c 0
 361 706 366 708 382 718 c 1
 404 718 l 1
 402 710 l 1
616 420 m 1
 610 411 l 1
 616 404 l 1
 616 409 616 415 616 420 c 1
EndSplineSet
Validated: 1
EndChar

StartChar: pt`v
Encoding: 983346 983346 70
Width: 1000
GlyphClass: 1
Flags: HMW
LayerCount: 2
Fore
SplineSet
149 -49 m 0
 132 -49 102 -49 102 -26 c 0
 102 -9 121 -2 143 6 c 0
 182 21 230 40 283 99 c 0
 296 113 307 128 325 155 c 0
 373 226 392 261 408 293 c 0
 408 294 424 324 424 324 c 0
 424 324 423 325 425 342 c 1
 466 342 l 1
 467 336 466 335 467 326 c 0
 469 319 472 313 472 304 c 0
 472 274 448 223 401 151 c 1
 403 151 405 152 407 152 c 0
 421 152 433 146 451 137 c 0
 461 132 481 121 492 115 c 0
 533 94 562 70 590 37 c 0
 601 24 615 7 623 -5 c 0
 631 -16 636 -23 636 -31 c 0
 636 -36 634 -38 633 -43 c 0
 631 -54 621 -65 606 -65 c 0
 599 -65 596 -64 590 -61 c 0
 582 -60 577 -54 567 -40 c 0
 556 -25 533 5 510 26 c 0
 499 36 493 41 478 52 c 0
 463 62 440 78 426 87 c 0
 404 101 401 102 379 107 c 0
 377 106 375 105 372 105 c 0
 371 105 371 105 370 105 c 0
 300 4 201 -49 149 -49 c 0
561 279 m 0
 541 279 497 282 497 310 c 0
 497 311 498 312 498 313 c 2
 477 323 l 1
 514 337 515 337 526 337 c 0
 527 337 526 336 536 336 c 0
 539 336 544 337 547 337 c 1
 541 341 536 348 536 359 c 0
 536 361 536 360 537 371 c 1
 506 369 473 359 429 344 c 0
 362 321 346 317 306 306 c 0
 270 296 269 296 260 296 c 0
 238 296 222 311 222 332 c 0
 222 367 238 431 246 532 c 0
 247 542.5 247.25 549.75 247.25 555.5 c 0
 247.25 561.25 247 565.5 247 570 c 0
 247 577.333333333 247.111111111 582.666666667 247.111111111 588.259259259 c 0
 247.111111111 599.444444444 246.666666667 611.666666667 244 643 c 0
 244 648 243 650 243 651 c 0
 243 652 241 655 241 660 c 0
 241 672 253 676 262 680 c 2
 274 685 l 1
 280 671 280 671 283 665 c 0
 295 645 303 628 303 548 c 0
 303 499 296 430 289 367 c 1
 379 391 475 435 524 435 c 0
 529 435 535 435 540 434 c 1
 545 486 546 503 549 545 c 0
 553 603 554 622 559 651 c 0
 560 656 561 658 561 659 c 0
 561 659 560 664 560 665 c 0
 560 682 579 688 586 688 c 0
 590 688 596 686 601 678 c 0
 602 676 603 675 606 671 c 0
 609 668 617 656 617 630 c 0
 617 620 616 571 606 438 c 0
 604 416 603 395 602 380 c 0
 601 364 601 355 597 348 c 1
 623 357 654 374 697 407 c 0
 716 422 722 426 733 426 c 0
 744 426 754 420 761 410 c 0
 766 403 769 394 769 378 c 0
 769 341 756 241 756 188 c 0
 756 169 756 149 757 130 c 1
 769 141 777 149 818 194 c 0
 849 229 856 237 870 237 c 0
 886 237 899 222 899 208 c 0
 899 196 892 184 879 168 c 0
 879 168 791 58 750 42 c 0
 746 40 741 39 736 39 c 0
 728 39 720 43 713 48 c 0
 697 60 691 79 691 108 c 0
 691 109 691 174 691 189 c 0
 691 201 691 212 694 243 c 0
 696 262 698 294 701 330 c 1
 652 296 597 279 561 279 c 0
EndSplineSet
Validated: 524801
EndChar

StartChar: |pc
Encoding: 983347 983347 71
Width: 1000
GlyphClass: 1
Flags: HMW
LayerCount: 2
Fore
SplineSet
679 347 m 1
 679 345 l 1
 691 333 l 1
 700 337 l 1
 701 339 l 1
 689 351 l 1
 679 347 l 1
244 487 m 0
 244 497 244 501 246 507 c 0
 245 509 245 512 245 514 c 0
 245 521 248 527 258 542 c 1
 290 536 307 529 307 452 c 0
 307 423 298 317 298 250 c 0
 298 230 298 211 299 191 c 0
 303 189 313 183 313 150 c 0
 313 141 311 133 307 113 c 0
 302 90 301 76 301 76 c 0
 299 68 295 62 291 58 c 2
 252 23 l 1
 265 58 l 1
 262 59 259 60 256 62 c 1
 243 22 l 1
 236 100 235 100 235 117 c 0
 235 121 235 126 235 131 c 0
 235 162 232 190 232 239 c 0
 232 304 240 404 241 423 c 0
 244 465 244 473 244 481 c 0
 244 482 244 482 244 483 c 0
 244 484 244 486 244 487 c 0
703 390 m 1
 705 401 l 1
 696 395 l 1
 698 392 l 1
 703 390 l 1
705 361 m 1
 707 360 709 359 712 358 c 1
 704 350 l 1
 710 340 711 325 711 306 c 0
 711 253 705 208 705 136 c 0
 705 125 l 0
 705 85 701 61 701 33 c 0
 701 5 704 2 704 -22 c 0
 704 -27 704 -47 704 -47 c 0
 704 -53 705 -63 705 -85 c 0
 705 -106 700 -112 693 -120 c 1
 681 -121 677 -121 677 -121 c 0
 668 -121 663 -121 657 -120 c 0
 656 -120 654 -120 653 -120 c 0
 649 -120 645 -118 637 -113 c 0
 614 -99 585 -75 526 -11 c 0
 513 3 408 115 407 116 c 0
 365 160 351 177 351 196 c 0
 351 212 363 216 370 216 c 0
 390 216 415 195 447 164 c 0
 482 130 541 70 578 30 c 0
 605 1 623 -17 638 -31 c 1
 638 -30 638 -28 638 -27 c 0
 638 3 635 14 635 34 c 0
 635 47 635 58 637 98 c 0
 638 117 639 142 639 157 c 0
 640 203 641 225 643 248 c 0
 644 255 643 263 644 274 c 0
 646 311 649 333 654 343 c 0
 654 345 653 347 653 349 c 0
 653 355 655 360 660 364 c 1
 659 364 659 364 658 364 c 0
 652 364 646 364 623 359 c 0
 611 357 583 351 554 346 c 1
 499 328 465 312 457 309 c 0
 455 308 453 307 449 307 c 0
 448 307 447 307 446 307 c 0
 443 305 439 305 435 305 c 0
 425 305 430 307 420 307 c 0
 403 307 403 327 403 335 c 0
 403 370 422 461 429 622 c 0
 429 633 429 638 429 644 c 0
 429 645 429 691 421 706 c 2
 415 717 l 1
 446 732 l 1
 454 729 458 727 460 720 c 1
 484 701 493 663 493 632 c 0
 493 630 493 523 473 385 c 1
 510 399 543 410 611 423 c 0
 636 428 646 429 656 429 c 0
 668 429 679 427 689 425 c 1
 688 432 689 439 689 449 c 0
 689 452.692307692 688.976331361 455.816568047 688.976331361 458.926263086 c 0
 688.976331361 476.029585799 689.692307692 492.692307692 699 601 c 0
 705 669 707 675 720 703 c 0
 724 710 728 720 742 720 c 0
 747 720 766 719 766 697 c 0
 766 696 l 0
 766 689 767 683 767 667 c 0
 767 627 760 533 759 520 c 0
 755 464 755 457 755 450 c 0
 755 438 755 430 757 400 c 1
 750 398 l 1
 749 381 737 376 729 376 c 0
 726 376 724 376 722 377 c 0
 720 373 714 365 705 361 c 1
EndSplineSet
Validated: 524801
EndChar

